<?xml version="1.0" encoding="UTF-8"?><svg id="Layer_1" xmlns="http://www.w3.org/2000/svg" viewBox="0 0 988.0704 608.0485"><defs><style>.cls-1{fill:#fff9ef;stroke-width:0px;}</style></defs><g id="E"><path class="cls-1" d="M667.8271,285.9808v23.2517c0,2.8256,2.2987,5.1245,5.1244,5.1245h94.5631c-.1915,13.793-.3591,27.562-.5267,41.355-102.5132-.6226-205.0265-1.2213-307.5397-1.8439-30.1003-5.5315-51.0291-28.879-49.1614-54.0943,1.772-23.9461,23.6827-43.941,52.5138-47.4372,101.8428.5987,203.6617,1.1973,305.4803,1.796-.1197,8.908-.2394,17.8159-.3351,26.7239h-94.9943c-2.8256,0-5.1244,2.2987-5.1244,5.1244Z"/><path class="cls-1" d="M768.7808,474.652c-14.7747,22.5334-44.7313,61.6852-96.0239,92.1925-16.1821,9.6246-79.599,45.2346-167.7424,40.8282-15.3894-.7694-108.5095-6.7626-186.4682-76.2205-29.4326-26.2232-47.6077-53.4449-56.417-67.8393-15.6367-25.5504-30.1242-57.6621-37.7391-96.1914-2.6096-13.2038-13.1506-71.0186,6.8965-142.0483,21.9183-77.6599,67.3363-124.8787,78.9504-136.4688,20.867-20.824,83.8663-77.5776,182.7566-87.4512,80.112-7.9987,141.7858,18.9615,169.4904,33.5485,55.8422,29.4019,89.1203,69.3178,105.2191,91.6471-100.3448-7.9882-180.5184-7.2793-237.0663-4.7892-31.3067,1.3786-64.8773,3.7216-100.5736,23.9461-50.002,28.3297-71.8715,73.443-76.6275,83.8113-5.0389,10.9851-16.0877,37.914-16.7623,74.2329-.786,42.3199,12.9387,73.2531,16.7623,81.4167,4.487,9.5802,26.4198,54.1641,76.6275,81.4167,35.9778,19.5286,69.6846,21.1273,100.5736,21.5515,55.5581.7629,136.1742-1.1543,238.1439-13.5829Z"/></g></svg>