<?xml version="1.0" encoding="UTF-8"?><svg id="Layer_1" xmlns="http://www.w3.org/2000/svg" viewBox="0 0 988.0704 608.0485"><defs><style>.cls-1{fill:#fff9ef;stroke-width:0px;}</style></defs><path id="Y" class="cls-1" d="M879.3704,350.6498l-47.15-106.91v-.33h-58.3l52.45,104.34h15.78c1.19,0,2.14.96,2.14,2.14v9.71c0,1.18-.95,2.14-2.14,2.14h-8.75l11.86,23.59,25.06-14.15,14.49-8.19-5.4399-12.34ZM773.7588,440.415v54.7548h3.3215c24.86,0,45.55-3.48,62.07-10.43,16.52-6.96,31.3599-18.23,44.52-33.81,13.16-15.1,25.51-34.71,37.0699-58.8,11.55-24.1,24.6301-52.9301,39.26-86.5,4.0901-9.11,8.4701-18.88,13.1602-29.31,4.6699-10.4301,9.5-21.16,14.47-32.19l.4399-.72h-62.73v.36c-6.14,14.39-11.8401,27.69-17.1001,39.92-5.2699,12.23-10.24,23.74-14.9199,34.53-5.05,11.82-9.7,22.64-13.95,32.43-.92,2.13-1.8301,4.2-2.71,6.23-2.2001,5.04-4.3201,9.8-6.3401,14.3-2.5601,5.67-4.98,10.92-7.26,15.73-4.1,8.63-8.05,16.07-11.85,22.3-3.8,6.24-7.6,11.51-11.4,15.83-3.8,4.55-7.83,8.21-12.06,10.97-4.25,2.75-8.9915,4.4052-25.9915,4.4052"/><path id="A" class="cls-1" d="M492.3304,361.7398h-54.28c.95,4.88,1.42,10,1.42,15.35v63.97h-60.35c-8.91,0-17.08-1.56-24.51-4.69-7.43-3.12-13.77-7.47-19.03-13.04-5.27-5.56-9.39-12.28-12.36-20.16-2.97-7.88-4.45-16.57-4.45-26.08,0-5.35.47-10.47,1.41-15.35h-54.28c-.14,2.78-.2,5.59-.2,8.44,0,18.46,2.77,35.34,8.31,50.67,5.53,15.33,13.3,28.49,23.29,39.5,9.98,11.01,21.93,19.57,35.84,25.67,13.91,6.1,29.23,9.15,45.98,9.15h113.41v-124.99c0-2.85-.06-5.66-.2-8.44ZM335.7804,330.0298c5.4-5.84,11.74-10.39,19.04-13.65,7.29-3.26,15.39-4.89,24.3-4.89s17.01,1.63,24.3,4.89c7.29,3.2599,13.63,7.81,19.04,13.65,4.73,5.12,8.52,11.06,11.39,17.83.2-.07.43-.11.66-.11h56.59c-1.33-10.25-3.6201-19.96-6.8701-29.13-5.54-15.62-13.3-29.01-23.29-40.17-9.99-11.16-21.94-19.79-35.85-25.89-13.91-6.1-29.23-9.15-45.97-9.15-16.75,0-32.07,3.05-45.98,9.15-13.91,6.1-25.86,14.73-35.84,25.89-9.99,11.16-17.76,24.55-23.29,40.17-3.25,9.17-5.55,18.88-6.88,29.13h57.3c2.86-6.72,6.64-12.63,11.35-17.72Z"/><path class="cls-1" d="M48.2149,112.0381v96.8267h-19.4946v-79.9512H.8316v-16.8755h47.3833ZM51.0582,112.0381h25.0454v16.8755h-16.7871l-8.2583-16.8755Z"/><path class="cls-1" d="M81.9239,112.0381h18.0054l-.1353,96.8267h-18.0059l.1357-96.8267ZM143.9722,148.0019c4.0322,5.5332,6.0479,14.2949,6.0479,26.2817v34.5811h-18.0054v-34.4922c0-2.4814-.0679-4.874-.2031-7.1738-.1357-2.2993-.6094-4.3223-1.4219-6.0708-.812-1.7466-2.1216-3.1274-3.9258-4.1392-1.8066-1.0112-4.3789-1.5171-7.7168-1.5171-2.6187,0-5.4614.7393-8.5288,2.2134l-.1353.1382-.1357-.2769-6.498-11.98.1353-.1382c2.3462-2.1401,4.9624-3.7437,7.8521-4.8135,2.8877-1.0679,6.0459-1.6035,9.4766-1.6035,10.894,0,18.5791,2.9976,23.0591,8.9907Z"/><path class="cls-1" d="M192.1236,138.5962c4.7827,0,9.2944.9468,13.5381,2.8354,4.2412,1.8911,7.9409,4.4502,11.1011,7.6772,3.1582,3.229,5.6626,7.0088,7.5137,11.3423,1.8486,4.3359,2.7754,8.9912,2.7754,13.9707,0,2.6758-.271,5.2563-.8125,7.7461l-.1353.2769h-34.3867l-8.6646-14.1089h25.7227c-1.2651-3.873-3.3638-7.0547-6.2954-9.5444-2.9341-2.4897-6.3862-3.7349-10.3564-3.7349-2.437,0-4.7383.5059-6.9048,1.5171-2.166,1.0117-4.04,2.3667-5.6182,4.0654-1.5801,1.6992-2.8218,3.7222-3.7227,6.0649-.9033,2.3428-1.354,4.8931-1.354,7.6489,0,2.1138.4062,4.2964,1.2183,6.5464.8125,2.252,1.9844,4.2969,3.52,6.1338,1.5337,1.8374,3.3843,3.376,5.5508,4.6167,2.166,1.2407,4.6025,1.8608,7.3105,1.8608,2.4365,0,4.6704-.3457,6.7012-1.0376,2.0308-.6914,3.9473-2.2344,5.7534-4.6338l.1357-.1382.2705.1382,15.7041,7.0654-.2705.2808c-3.249,4.6514-7.3784,8.2778-12.3872,10.8804-5.0093,2.6045-10.3125,3.9053-15.9072,3.9053-4.874,0-9.4556-.9229-13.7412-2.7661-4.2881-1.8438-8.0107-4.3789-11.1689-7.6079-3.1602-3.2271-5.665-7.0073-7.5137-11.3428-1.8511-4.3335-2.7754-8.9434-2.7754-13.8325,0-4.9795.9243-9.6348,2.7754-13.9707,1.8486-4.3335,4.3535-8.1133,7.5137-11.3423,3.1582-3.2271,6.8809-5.7861,11.1689-7.6772,4.2856-1.8887,8.8672-2.8354,13.7412-2.8354Z"/><path class="cls-1" d="M534.7288,242.715v55.59h115.1899l-39,49.11h70.3701l48.26-60.73v-43.97h-194.8201ZM607.8489,439.825l62.3099-78.41h-70.35l-71.09,89.52v44.48h208.35v-55.59h-129.22Z"/><g id="E"><path class="cls-1" d="M182.3001,349.4979v9.71c0,1.18.96,2.14,2.14,2.14h39.49c-.08,5.76-.15,11.51-.22,17.27-42.81-.26-85.62-.51-128.43-.77-12.57-2.31-21.31-12.06-20.53-22.59.74-10,9.89-18.35,21.93-19.81,42.53.25,85.05.5,127.57.75-.05,3.72-.1,7.44-.14,11.16h-39.67c-1.18,0-2.14.96-2.14,2.14Z"/><path class="cls-1" d="M229.4701,440.3034c-6.17,9.41-18.68,25.76-40.1,38.5-6.7577,4.0193-33.2409,18.8902-70.05,17.05-6.4267-.3213-45.3141-2.8241-77.87-31.83-12.2912-10.9509-19.8812-22.3188-23.56-28.33-6.53-10.67-12.58-24.08-15.76-40.17-1.0898-5.514-5.4917-29.6577,2.88-59.32,9.1532-32.4311,28.12-52.1499,32.97-56.99,8.7142-8.6962,35.0229-32.3968,76.32-36.52,33.4551-3.3403,59.2104,7.9184,70.78,14.01,23.3199,12.2784,37.217,28.9474,43.94,38.2722-41.9044-3.3359-75.3853-3.0399-99-2-13.0738.5757-27.0931,1.5542-42,10-20.8811,11.8306-30.0139,30.6701-32,35-2.1043,4.5874-6.7183,15.8331-7,31-.3282,17.673,5.4033,30.5908,7,34,1.8738,4.0007,11.033,22.6192,32,34,15.0245,8.1552,29.1006,8.8229,42,9,23.2013.3186,56.867-.482,99.45-5.6723Z"/></g></svg>