<svg xmlns="http://www.w3.org/2000/svg" width="105" height="72" viewBox="0 0 105 72" fill="none"><rect x="4.5" y="4" width="96" height="64" rx="32" fill="#7B5AFF"></rect><rect x="2.5" y="2" width="100" height="68" rx="34" stroke="#7B5AFF" stroke-opacity="0.2" stroke-width="4"></rect><path d="M59.4835 19.333H45.5168C39.4502 19.333 35.8335 22.9497 35.8335 29.0163V42.9663C35.8335 49.0497 39.4502 52.6663 45.5168 52.6663H59.4668C65.5335 52.6663 69.1502 49.0497 69.1502 42.983V29.0163C69.1668 22.9497 65.5502 19.333 59.4835 19.333ZM60.6335 35.2163C60.6335 35.8663 60.1168 36.383 59.4668 36.383C58.8168 36.383 58.3002 35.8663 58.3002 35.2163V34.9163L53.7668 39.4497C53.5168 39.6997 53.1835 39.8163 52.8335 39.783C52.4835 39.7497 52.1668 39.5663 51.9835 39.2663L50.2835 36.733L46.3168 40.6997C46.0835 40.933 45.8002 41.033 45.5002 41.033C45.2002 41.033 44.9002 40.9163 44.6835 40.6997C44.2335 40.2497 44.2335 39.5163 44.6835 39.0497L49.6502 34.083C49.9002 33.833 50.2335 33.7163 50.5835 33.7497C50.9335 33.783 51.2502 33.9663 51.4335 34.2663L53.1335 36.7997L56.6502 33.283H56.3502C55.7002 33.283 55.1835 32.7663 55.1835 32.1163C55.1835 31.4663 55.7002 30.9497 56.3502 30.9497H59.4502C59.6002 30.9497 59.7502 30.983 59.9002 31.033C60.1835 31.1497 60.4168 31.383 60.5335 31.6663C60.6002 31.8163 60.6168 31.9663 60.6168 32.1163V35.2163H60.6335Z" fill="white"></path></svg>