<svg xmlns="http://www.w3.org/2000/svg" width="97" height="56" viewBox="0 0 97 56" fill="none"><rect width="97" height="56" rx="28" fill="white"></rect><rect x="29" y="27" width="28" height="2" fill="#D0D3D7"></rect><path d="M74.3332 28.9999C74.8798 28.9999 75.3332 28.5466 75.3332 27.9999C75.3332 27.4533 74.8798 26.9999 74.3332 26.9999H58.6665V21.3333C58.6665 19.2266 59.5598 18.3333 61.6665 18.3333H69.3332C69.8798 18.3333 70.3332 17.8799 70.3332 17.3333C70.3332 16.7866 69.8798 16.3333 69.3332 16.3333H61.6665C58.4398 16.3333 56.6665 18.1066 56.6665 21.3333V26.9999H49.6665C49.1198 26.9999 48.6665 27.4533 48.6665 27.9999C48.6665 28.5466 49.1198 28.9999 49.6665 28.9999H56.6665V34.6666C56.6665 37.8933 58.4398 39.6666 61.6665 39.6666H71.3332C71.8798 39.6666 72.3332 39.2133 72.3332 38.6666C72.3332 38.1199 71.8798 37.6666 71.3332 37.6666H61.6665C59.5598 37.6666 58.6665 36.7733 58.6665 34.6666V28.9999H74.3332Z" fill="#D0D3D7"></path><rect x="18" y="22" width="12" height="12" rx="6" fill="#7DEABC"></rect><path d="M75.6665 31C77.3234 31 78.6665 29.6569 78.6665 28C78.6665 26.3431 77.3234 25 75.6665 25C74.0096 25 72.6665 26.3431 72.6665 28C72.6665 29.6569 74.0096 31 75.6665 31Z" fill="#FF909F"></path><path d="M72 20.3333C73.6569 20.3333 75 18.9901 75 17.3333C75 15.6764 73.6569 14.3333 72 14.3333C70.3431 14.3333 69 15.6764 69 17.3333C69 18.9901 70.3431 20.3333 72 20.3333Z" fill="#7DEABC"></path><path d="M73 41.6667C74.6569 41.6667 76 40.3236 76 38.6667C76 37.0099 74.6569 35.6667 73 35.6667C71.3431 35.6667 70 37.0099 70 38.6667C70 40.3236 71.3431 41.6667 73 41.6667Z" fill="#7DEABC"></path></svg>