<svg xmlns="http://www.w3.org/2000/svg" width="96" height="64" viewBox="0 0 96 64" fill="none"><rect y="4" width="96" height="56" rx="28" fill="#7B5AFF" fill-opacity="0.2"></rect><rect x="18" y="2" width="60" height="60" rx="30" fill="#7B5AFF"></rect><rect x="18" y="2" width="60" height="60" rx="30" stroke="white" stroke-width="4"></rect><path d="M53.6753 38.5878L49.7387 32.467L46.2485 31.5318L39.7789 34.8642C37.9716 35.7879 36.9532 37.6822 37.1716 39.7009C37.3933 41.7066 38.8051 43.341 40.7498 43.8621L48.3355 45.8947C50.2932 46.4192 52.3201 45.7062 53.515 44.0801C54.7134 42.4411 54.7787 40.2914 53.6753 38.5878ZM48.2252 40.5369L43.5372 39.2808C43.0478 39.1496 42.7684 38.6468 42.8961 38.1703C43.0238 37.6938 43.53 37.4015 44.0065 37.5292L48.6945 38.7854C49.1839 38.9165 49.4633 39.4193 49.3356 39.8958C49.2079 40.3723 48.7017 40.6646 48.2252 40.5369Z" fill="white"></path><path d="M58.8285 24.3014C58.6067 22.2956 57.195 20.6612 55.2502 20.1401L47.6516 18.1041C45.7069 17.583 43.6671 18.2926 42.4722 19.9187C41.2867 21.5612 41.2214 23.7109 42.3247 25.4145L46.2614 31.5352L49.7516 32.4704L56.2212 29.138C58.0156 28.2109 59.0339 26.3165 58.8285 24.3014ZM51.9901 26.4859L47.3021 25.2298C46.8127 25.0986 46.5333 24.5959 46.661 24.1193C46.7887 23.6428 47.2949 23.3505 47.7715 23.4782L52.4594 24.7344C52.9488 24.8655 53.2282 25.3683 53.1005 25.8448C52.9728 26.3213 52.4666 26.6136 51.9901 26.4859Z" fill="white"></path></svg>