<svg class="hero__svg" fill="none" viewBox="0 0 637 807" xmlns="http://www.w3.org/2000/svg">
<path class="svg-arrow svg-arrow--1" d="m324.76 371.06c-0.246-0.319-0.643-0.426-0.888-0.238l-3.996 3.066c-0.245 0.188-0.245 0.6 0 0.92 0.245 0.319 0.643 0.426 0.888 0.237l3.552-2.725 3.551 4.629c0.245 0.319 0.643 0.426 0.888 0.238s0.245-0.6 0-0.92l-3.995-5.207zm-140.99-1.167 3.789 1.015v-1.3l-3.789-1.015v1.3zm11.365 3.045 7.577 2.03v-1.3l-7.577-2.03v1.3zm15.153 4.06 7.577 2.03v-1.3l-7.577-2.03v1.3zm15.153 4.06 7.577 2.03v-1.3l-7.577-2.03v1.3zm15.153 4.061 7.576 2.03v-1.3l-7.576-2.03v1.3zm15.153 4.06 7.576 2.03v-1.3l-7.576-2.03v1.3zm15.153 4.06 7.576 2.03v-1.3l-7.576-2.03v1.3zm15.153 4.06 7.576 2.03v-1.3l-7.576-2.03v1.3zm15.153 4.06 3.788 1.016v-1.3l-3.788-1.016v1.3zm3.788 1.016c1.331 0.356 2.633 0.57 3.892 0.649l-0.244-1.34c-1.179-0.075-2.399-0.275-3.648-0.609v1.3zm11.083-0.509c2.175-0.925 4.047-2.362 5.503-4.223l-1.043-1.003c-1.365 1.745-3.12 3.092-5.159 3.958l0.699 1.268zm8.484-10.869c0.249-1.237 0.379-2.55 0.379-3.928l-1.255-0.336c0 1.293-0.123 2.523-0.356 3.681l1.232 0.583zm0.379-3.928v-3.875l-1.255-0.336v3.875l1.255 0.336zm0-11.625v-3.875l-1.255-0.336v3.875l1.255 0.336z" fill="#DFD1F4" data-svg-origin="183.77000427246094 368.593017578125" transform="matrix(1,0,0,1,0,0)" style="translate: none; rotate: none; scale: none; will-change: auto; opacity: 1; visibility: inherit;"></path>
<path class="svg-arrow svg-arrow--2" d="m471.48 293.68c0.188-0.145 0.188-0.462 0-0.707l-3.074-4.006c-0.188-0.246-0.494-0.328-0.683-0.183-0.188 0.145-0.188 0.461 0 0.707l2.732 3.561-2.732 2.096c-0.188 0.145-0.188 0.461 0 0.707 0.189 0.246 0.495 0.328 0.683 0.183l3.074-2.358zm-41.394-10.945 3.421 0.916v-1l-3.421-0.916v1zm10.263 2.75 6.842 1.833v-1l-6.842-1.833v1zm13.684 3.666 6.842 1.834v-1l-6.842-1.834v1zm13.684 3.667 3.421 0.917v-1l-3.421-0.917v1z" fill="#DFD1F4" data-svg-origin="430.08599853515625 281.7349853515625" transform="matrix(1,0,0,1,0,0)" style="translate: none; rotate: none; scale: none; will-change: auto; opacity: 1; visibility: inherit;"></path>
<path class="svg-arrow svg-arrow--4" d="m471.55 612.84c0.259-0.17 0.281-0.574 0.051-0.904l-3.764-5.372c-0.23-0.33-0.627-0.46-0.886-0.29s-0.281 0.575-0.05 0.904l3.345 4.776-3.747 2.459c-0.259 0.169-0.281 0.574-0.051 0.904 0.231 0.33 0.628 0.459 0.887 0.29l4.215-2.767zm-91.737 83.575-0.628-0.168 0.628 0.168zm-19.319 14.824v-0.65 0.65zm39.731-122.16-0.036 0.639 0.036-0.639zm-20.412 14.498 0.628 0.168-0.628-0.168zm-94.423 88.184 3.755 1.006v-1.3l-3.755-1.006v1.3zm11.266 3.018 7.51 2.013v-1.3l-7.51-2.013v1.3zm15.02 4.025 7.511 2.013v-1.3l-7.511-2.013v1.3zm15.021 4.025 7.511 2.013v-1.3l-7.511-2.013v1.3zm15.021 4.025 7.511 2.012v-1.3l-7.511-2.012v1.3zm15.021 4.025 3.755 1.006v-1.3l-3.755-1.006v1.3zm3.755 1.006c1.332 0.357 2.633 0.57 3.892 0.65l-0.243-1.341c-1.18-0.074-2.4-0.274-3.649-0.609v1.3zm11.083-0.509c2.175-0.925 4.047-2.361 5.504-4.223l-1.044-1.003c-1.365 1.745-3.12 3.092-5.158 3.959l0.698 1.267zm8.484-10.869c0.249-1.237 0.38-2.549 0.38-3.927l-1.256-0.337c0 1.293-0.123 2.523-0.356 3.682l1.232 0.582zm0.38-3.927v-3.868l-1.256-0.337v3.868l1.256 0.337zm0-11.605v-7.736l-1.256-0.336v7.736l1.256 0.336zm0-15.472v-7.736l-1.256-0.337v7.736l1.256 0.337zm0-15.472v-7.737l-1.256-0.336v7.736l1.256 0.337zm0-15.473v-7.736l-1.256-0.336v7.736l1.256 0.336zm0-15.472v-7.736l-1.256-0.337v7.736l1.256 0.337zm0-15.473v-3.868l-1.256-0.336v3.868l1.256 0.336zm0-3.868c0-1.342 0.131-2.615 0.381-3.809l-1.23-0.591c-0.267 1.276-0.407 2.634-0.407 4.064l1.256 0.336zm3.371-10.186c1.459-1.764 3.33-3.094 5.491-3.901l-0.661-1.282c-2.305 0.861-4.302 2.279-5.858 4.161l1.028 1.022zm12.583-4.685c1.231 0.143 2.5 0.421 3.794 0.844l0.071-1.279c-1.379-0.45-2.733-0.747-4.047-0.9l0.182 1.335zm3.794 0.844 3.545 1.158 0.071-1.279-3.545-1.158-0.071 1.279zm10.636 3.474 7.091 2.316 0.071-1.279-7.091-2.316-0.071 1.279zm14.182 4.632 7.09 2.316 0.072-1.279-7.091-2.316-0.071 1.279zm14.181 4.632 7.091 2.316 0.071-1.278-7.091-2.316-0.071 1.278zm14.182 4.633 7.09 2.316 0.072-1.279-7.091-2.316-0.071 1.279zm14.181 4.632 3.546 1.158 0.071-1.279-3.546-1.158-0.071 1.279z" fill="#DFD1F4" data-svg-origin="285.3899841308594 587.5391235351562" transform="matrix(1,0,0,1,0,0)" style="translate: none; rotate: none; scale: none; will-change: auto; opacity: 1; visibility: inherit;"></path>
<path class="svg-arrow svg-arrow--3" d="m177.56 445.04c0.245 0.319 0.643 0.426 0.888 0.237l3.996-3.066c0.245-0.188 0.245-0.599 0-0.919-0.246-0.319-0.643-0.426-0.888-0.238l-3.552 2.726-3.552-4.629c-0.245-0.32-0.642-0.426-0.888-0.238-0.245 0.188-0.245 0.6 0 0.919l3.996 5.208zm1.072-0.173v-0.625l-1.256-0.336v0.625l1.256 0.336zm0-1.875v-0.625l-1.256-0.336v0.625l1.256 0.336zm0-0.625c0-1.293 0.122-2.523 0.356-3.682l-1.232-0.582c-0.249 1.237-0.38 2.549-0.38 3.928l1.256 0.336zm3.148-9.907c1.364-1.745 3.12-3.092 5.158-3.958l-0.698-1.268c-2.175 0.925-4.048 2.362-5.504 4.223l1.044 1.003zm11.894-5.044c1.18 0.074 2.399 0.275 3.649 0.609v-1.3c-1.332-0.356-2.633-0.57-3.893-0.65l0.244 1.341zm3.649 0.609 3.836 1.028v-1.3l-3.836-1.028v1.3zm11.507 3.084 7.672 2.055v-1.3l-7.672-2.055v1.3zm15.344 4.111 7.672 2.056v-1.3l-7.672-2.056v1.3zm15.344 4.112 7.672 2.055v-1.3l-7.672-2.055v1.3zm15.344 4.111 7.672 2.056v-1.3l-7.672-2.056v1.3zm15.344 4.111 7.672 2.056v-1.3l-7.672-2.056v1.3zm15.344 4.112 7.672 2.055v-1.3l-7.672-2.055v1.3zm15.344 4.111 7.672 2.056v-1.3l-7.672-2.056v1.3zm15.344 4.111 7.672 2.056v-1.3l-7.672-2.056v1.3zm15.344 4.112 7.672 2.056v-1.3l-7.672-2.056v1.3zm15.344 4.111 7.671 2.056v-1.3l-7.671-2.056v1.3zm15.343 4.112 7.672 2.055v-1.3l-7.672-2.055v1.3zm15.344 4.111 7.672 2.056v-1.3l-7.672-2.056v1.3zm15.344 4.111 7.672 2.056v-1.3l-7.672-2.056v1.3zm15.344 4.112 7.672 2.055v-1.3l-7.672-2.055v1.3zm15.344 4.111 7.672 2.056v-1.3l-7.672-2.056v1.3zm15.344 4.112 7.672 2.055v-1.3l-7.672-2.055v1.3zm15.344 4.111 7.672 2.056v-1.3l-7.672-2.056v1.3zm15.344 4.111 7.672 2.056v-1.3l-7.672-2.056v1.3zm15.344 4.112 7.672 2.055v-1.3l-7.672-2.055v1.3zm15.344 4.111 7.672 2.056v-1.3l-7.672-2.056v1.3zm15.343 4.111 7.672 2.056v-1.3l-7.672-2.056v1.3zm15.344 4.112 3.836 1.028v-1.3l-3.836-1.028v1.3zm3.836 1.028c1.332 0.356 2.633 0.57 3.892 0.65l-0.243-1.341c-1.18-0.074-2.4-0.275-3.649-0.609v1.3zm11.083-0.509c2.175-0.925 4.048-2.362 5.504-4.223l-1.044-1.003c-1.364 1.745-3.12 3.092-5.158 3.958l0.698 1.268zm8.484-10.869c0.249-1.237 0.38-2.549 0.38-3.928l-1.256-0.336c0 1.293-0.122 2.523-0.356 3.682l1.232 0.582zm0.38-3.928v-3.875l-1.256-0.336v3.875l1.256 0.336zm0-11.625v-7.75l-1.256-0.336v7.75l1.256 0.336zm0-15.5v-7.75l-1.256-0.336v7.75l1.256 0.336zm0-15.5v-3.875l-1.256-0.336v3.875l1.256 0.336z" fill="#DFD1F4" data-svg-origin="173.3802490234375 426.07501220703125" transform="matrix(1,0,0,1,0,0)" style="translate: none; rotate: none; scale: none; will-change: auto; opacity: 1; visibility: inherit;"></path>
<mask id="e" x="285" y="587" width="187" height="126" style="mask-type:alpha" maskUnits="userSpaceOnUse">
<path d="m471.13 612.24-70.907-23.161c-11.082-3.619-20.412 3.008-20.412 14.499v92.834c0 11.046-8.649 17.683-19.319 14.824l-75.104-20.124" stroke="#DFD1F4" stroke-width="1.3"></path>
</mask>
<g mask="url(#e)">
<circle cx="-45.541992" cy="703" r="24" fill="#8148f7" data-svg-origin="-34.63046646118164 703" transform="matrix(1,0,0,1,-996.86155,-633.1093)" style="opacity: 0; translate: none; rotate: none; scale: none; transform-origin: 0px 0px;"></circle>
</g>
<mask id="f" x="177" y="426" width="378" height="94" style="mask-type:alpha" maskUnits="userSpaceOnUse">
<path d="m554.2 456.5v46.5c0 11.046-8.649 17.683-19.319 14.824l-337.56-90.45c-10.67-2.859-19.319 3.778-19.319 14.823v2.5" stroke="#DFD1F4" stroke-width="1.3"></path>
</mask>
<g mask="url(#f)">
<circle cx="-45.541992" cy="462" r="24" fill="#8148f7" data-svg-origin="-34.116519927978516 462" transform="matrix(1,0,0,1,-997.37542,-392.10929)" style="opacity: 0; translate: none; rotate: none; scale: none; transform-origin: 0px 0px;"></circle>
</g>
<mask id="g" x="429" y="281" width="43" height="13" style="mask-type:alpha" maskUnits="userSpaceOnUse">
<path d="m430.08 282.24 41.052 11" stroke="#DFD1F4"></path>
</mask>
<g mask="url(#g)">
<circle cx="-45.542091" cy="283" r="24" fill="#8148f7" data-svg-origin="-34.63054656982422 283" transform="matrix(1,0,0,1,-996.86143,-213.10929)" style="opacity: 0; translate: none; rotate: none; scale: none; transform-origin: 0px 0px;"></circle>
</g>
<mask id="h" x="183" y="368" width="142" height="36" style="mask-type:alpha" maskUnits="userSpaceOnUse">
<path d="m183.77 369.24 121.22 32.482c10.669 2.859 19.319-3.778 19.319-14.824v-15.5" stroke="#DFD1F4" stroke-width="1.3"></path>
</mask>
<g mask="url(#h)">
<circle cx="0" cy="370" r="24" fill="#8148f7" data-svg-origin="-34.116519927978516 370" transform="matrix(1,0,0,1,-997.37542,-494.2261)" style="opacity: 1; translate: none; rotate: none; scale: none; transform-origin: 0px 0px;"></circle>
</g>
<rect class="svg-card svg-card--5" transform="matrix(-3.7032e-8 -1 .96593 .25882 486.3 705.94)" width="169" height="132"></rect>
<rect class="svg-card svg-card--4" transform="matrix(-3.7032e-8 -1 .96593 .25882 53 643.44)" width="225" height="280"></rect>
<rect class="svg-card svg-card--4-1" transform="matrix(.96593 .25882 -5.1899e-9 1 153 613.44)" width="146" height="36"></rect>
<rect class="svg-card svg-card--3" transform="matrix(.96593 .25882 -5.1899e-9 1 485.96 184.53)" width="156" height="229"></rect>
<path class="svg-card svg-card--3-1" d="m473 233.75 88 23.579v68.329l-88-23.58v-68.328z"></path>
<path class="svg-card svg-card--2" d="m233.52 62.57 192.22 51.505v260l-192.22-51.505v-260z"></path>
<rect class="svg-card svg-card--2-1" transform="matrix(.96593 .25882 -5.1899e-9 1 210 278.38)" width="185" height="36"></rect>
<rect class="svg-card svg-card--1" transform="matrix(.96593 .25882 -5.1899e-9 1 32.603 143.24)" width="156" height="200"></rect>
<path class="svg-card svg-card--1-1" d="m0 261.44 98 26.259v53.783l-98-26.259 2.7913e-7 -53.783z"></path>
</svg>