<svg xmlns="http://www.w3.org/2000/svg" width="52" height="81" viewBox="0 0 52 81" fill="none">
                        <g filter="url(#filter0_i_9_10)">
                        <ellipse cx="26" cy="75.5" rx="12" ry="5.5" fill="#F04438"></ellipse>
                        </g>
                        <path d="M25.9805 0C40.2425 0.000153503 52 11.5257 52 25.7852C52 32.9706 49.4217 39.6417 45.1777 45.2959C40.4957 51.5329 34.7242 56.9669 28.2285 61.2324C26.7419 62.2181 25.4002 62.2926 23.7686 61.2324C17.2359 56.967 11.4652 51.5328 6.82324 45.2959C2.57608 39.6417 3.11286e-05 32.9707 0 25.7852C0 11.5256 11.7584 0 25.9805 0ZM25.9805 17.9111C21.2646 17.9113 17.419 21.8512 17.4189 26.5908C17.4189 31.3677 21.2646 35.1249 25.9805 35.125C30.6996 35.125 34.583 31.3678 34.583 26.5908C34.583 21.8511 30.6995 17.9111 25.9805 17.9111Z" fill="#F04438"></path>
                        <defs>
                        <filter id="filter0_i_9_10" x="14" y="70" width="24" height="14.3061" filterUnits="userSpaceOnUse" color-interpolation-filters="sRGB">
                        <feFlood flood-opacity="0" result="BackgroundImageFix"></feFlood>
                        <feBlend mode="normal" in="SourceGraphic" in2="BackgroundImageFix" result="shape"></feBlend>
                        <feColorMatrix in="SourceAlpha" type="matrix" values="0 0 0 0 0 0 0 0 0 0 0 0 0 0 0 0 0 0 0 0" result="hardAlpha"></feColorMatrix>
                        <feOffset dy="3.30612"></feOffset>
                        <feGaussianBlur stdDeviation="2.56224"></feGaussianBlur>
                        <feComposite in2="hardAlpha" operator="arithmetic" k2="-1" k3="1"></feComposite>
                        <feColorMatrix type="matrix" values="0 0 0 0 0.418025 0 0 0 0 0 0 0 0 0 0.00696708 0 0 0 0.48 0"></feColorMatrix>
                        <feBlend mode="normal" in2="shape" result="effect1_innerShadow_9_10"></feBlend>
                        </filter>
                        </defs>
                    </svg>