<svg id="eyzFM4vwpTs1" xmlns="http://www.w3.org/2000/svg" xmlns:xlink="http://www.w3.org/1999/xlink" viewBox="0 0 1440 613" shape-rendering="geometricPrecision" text-rendering="geometricPrecision" project-id="bedf5024d6524ac0a5fe42d9eb7f0f8e" export-id="8483b3473cbf462e9971c9dd827e6e79" cached="false">
<style><![CDATA[
#eyzFM4vwpTs5 {animation: eyzFM4vwpTs5_s_do 4800ms linear infinite normal forwards}@keyframes eyzFM4vwpTs5_s_do { 0% {stroke-dashoffset: 804.19} 50% {stroke-dashoffset: 804.19} 70.833333% {stroke-dashoffset: -804.19} 100% {stroke-dashoffset: -804.19}} #eyzFM4vwpTs6 {animation: eyzFM4vwpTs6_s_do 4800ms linear infinite normal forwards}@keyframes eyzFM4vwpTs6_s_do { 0% {stroke-dashoffset: 535} 29.166667% {stroke-dashoffset: 535} 50% {stroke-dashoffset: -510} 100% {stroke-dashoffset: -510}} #eyzFM4vwpTs8 {animation: eyzFM4vwpTs8_s_do 4800ms linear infinite normal forwards}@keyframes eyzFM4vwpTs8_s_do { 0% {stroke-dashoffset: 535} 75% {stroke-dashoffset: 535} 95.833333% {stroke-dashoffset: -510} 100% {stroke-dashoffset: -510}} #eyzFM4vwpTs9 {animation: eyzFM4vwpTs9_s_do 4800ms linear infinite normal forwards}@keyframes eyzFM4vwpTs9_s_do { 0% {stroke-dashoffset: -979} 2.083333% {stroke-dashoffset: -979} 12.5% {stroke-dashoffset: 0} 25% {stroke-dashoffset: 979.82} 100% {stroke-dashoffset: 979.82}} #eyzFM4vwpTs10 {animation: eyzFM4vwpTs10_s_do 4800ms linear infinite normal forwards}@keyframes eyzFM4vwpTs10_s_do { 0% {stroke-dashoffset: -979} 2.083333% {stroke-dashoffset: -979} 12.5% {stroke-dashoffset: 0} 25% {stroke-dashoffset: 979.82} 100% {stroke-dashoffset: 979.82}} #eyzFM4vwpTs12 {animation: eyzFM4vwpTs12_s_do 4800ms linear infinite normal forwards}@keyframes eyzFM4vwpTs12_s_do { 0% {stroke-dashoffset: 535} 29.166667% {stroke-dashoffset: 535} 50% {stroke-dashoffset: -510} 100% {stroke-dashoffset: -510}} #eyzFM4vwpTs13 {animation: eyzFM4vwpTs13_s_do 4800ms linear infinite normal forwards}@keyframes eyzFM4vwpTs13_s_do { 0% {stroke-dashoffset: 535} 27.083333% {stroke-dashoffset: 535} 47.916667% {stroke-dashoffset: -510} 100% {stroke-dashoffset: -510}}
]]></style>
<defs><linearGradient id="eyzFM4vwpTs6-stroke" x1="-3.17674" y1="512.991" x2="443" y2="512.991" spreadMethod="pad" gradientUnits="userSpaceOnUse" gradientTransform="translate(0 0)"><stop id="eyzFM4vwpTs6-stroke-0" offset="0%" stop-color="#deef96"/><stop id="eyzFM4vwpTs6-stroke-1" offset="100%" stop-color="#2dffd7"/></linearGradient><linearGradient id="eyzFM4vwpTs7-stroke" x1="-3.17674" y1="512.991" x2="443" y2="512.991" spreadMethod="pad" gradientUnits="userSpaceOnUse" gradientTransform="translate(0 0)"><stop id="eyzFM4vwpTs7-stroke-0" offset="0%" stop-color="#deef96"/><stop id="eyzFM4vwpTs7-stroke-1" offset="100%" stop-color="#2dffd7"/></linearGradient><linearGradient id="eyzFM4vwpTs8-stroke" x1="-3.17674" y1="512.991" x2="443" y2="512.991" spreadMethod="pad" gradientUnits="userSpaceOnUse" gradientTransform="translate(0 0)"><stop id="eyzFM4vwpTs8-stroke-0" offset="0%" stop-color="#deef96"/><stop id="eyzFM4vwpTs8-stroke-1" offset="100%" stop-color="#2dffd7"/></linearGradient><linearGradient id="eyzFM4vwpTs9-stroke" x1="-3.17674" y1="512.991" x2="443" y2="512.991" spreadMethod="pad" gradientUnits="userSpaceOnUse" gradientTransform="translate(0 0)"><stop id="eyzFM4vwpTs9-stroke-0" offset="0%" stop-color="#deef96"/><stop id="eyzFM4vwpTs9-stroke-1" offset="100%" stop-color="#2dffd7"/></linearGradient><linearGradient id="eyzFM4vwpTs10-stroke" x1="-3.17674" y1="512.991" x2="443" y2="512.991" spreadMethod="pad" gradientUnits="userSpaceOnUse" gradientTransform="translate(0 0)"><stop id="eyzFM4vwpTs10-stroke-0" offset="0%" stop-color="#deef96"/><stop id="eyzFM4vwpTs10-stroke-1" offset="100%" stop-color="#2dffd7"/></linearGradient><linearGradient id="eyzFM4vwpTs12-stroke" x1="-3.17674" y1="512.991" x2="443" y2="512.991" spreadMethod="pad" gradientUnits="userSpaceOnUse" gradientTransform="translate(0 0)"><stop id="eyzFM4vwpTs12-stroke-0" offset="0%" stop-color="#deef96"/><stop id="eyzFM4vwpTs12-stroke-1" offset="100%" stop-color="#2dffd7"/></linearGradient><linearGradient id="eyzFM4vwpTs13-stroke" x1="-3.17674" y1="512.991" x2="443" y2="512.991" spreadMethod="pad" gradientUnits="userSpaceOnUse" gradientTransform="translate(0 0)"><stop id="eyzFM4vwpTs13-stroke-0" offset="0%" stop-color="#deef96"/><stop id="eyzFM4vwpTs13-stroke-1" offset="100%" stop-color="#2dffd7"/></linearGradient><linearGradient id="eyzFM4vwpTs14-stroke" x1="-3.17674" y1="512.991" x2="443" y2="512.991" spreadMethod="pad" gradientUnits="userSpaceOnUse" gradientTransform="translate(0 0)"><stop id="eyzFM4vwpTs14-stroke-0" offset="0%" stop-color="#deef96"/><stop id="eyzFM4vwpTs14-stroke-1" offset="100%" stop-color="#2dffd7"/></linearGradient><linearGradient id="eyzFM4vwpTs18-stroke" x1="-8" y1="260.424" x2="602.738" y2="260.424" spreadMethod="pad" gradientUnits="userSpaceOnUse" gradientTransform="translate(0 0)"><stop id="eyzFM4vwpTs18-stroke-0" offset="0%" stop-color="#deef96"/><stop id="eyzFM4vwpTs18-stroke-1" offset="100%" stop-color="#2dffd7"/></linearGradient><linearGradient id="eyzFM4vwpTs19-stroke" x1="-38" y1="345.424" x2="224" y2="345.424" spreadMethod="pad" gradientUnits="userSpaceOnUse" gradientTransform="translate(0 0)"><stop id="eyzFM4vwpTs19-stroke-0" offset="0%" stop-color="#deef96"/><stop id="eyzFM4vwpTs19-stroke-1" offset="100%" stop-color="#2dffd7"/></linearGradient><linearGradient id="eyzFM4vwpTs20-stroke" x1="-3.17676" y1="513.415" x2="443" y2="513.415" spreadMethod="pad" gradientUnits="userSpaceOnUse" gradientTransform="translate(0 0)"><stop id="eyzFM4vwpTs20-stroke-0" offset="0%" stop-color="#deef96"/><stop id="eyzFM4vwpTs20-stroke-1" offset="100%" stop-color="#2dffd7"/></linearGradient><linearGradient id="eyzFM4vwpTs21-stroke" x1="982.646" y1="467.415" x2="1624.15" y2="467.415" spreadMethod="pad" gradientUnits="userSpaceOnUse" gradientTransform="translate(0 0)"><stop id="eyzFM4vwpTs21-stroke-0" offset="0%" stop-color="#deef96"/><stop id="eyzFM4vwpTs21-stroke-1" offset="100%" stop-color="#2dffd7"/></linearGradient><linearGradient id="eyzFM4vwpTs22-stroke" x1="0.106934" y1="385.869" x2="475.9" y2="385.869" spreadMethod="pad" gradientUnits="userSpaceOnUse" gradientTransform="translate(0 0)"><stop id="eyzFM4vwpTs22-stroke-0" offset="0%" stop-color="#deef96"/><stop id="eyzFM4vwpTs22-stroke-1" offset="100%" stop-color="#2dffd7"/></linearGradient><linearGradient id="eyzFM4vwpTs23-stroke" x1="1462.22" y1="339.869" x2="1185.22" y2="339.869" spreadMethod="pad" gradientUnits="userSpaceOnUse" gradientTransform="translate(0 0)"><stop id="eyzFM4vwpTs23-stroke-0" offset="0%" stop-color="#deef96"/><stop id="eyzFM4vwpTs23-stroke-1" offset="100%" stop-color="#2dffd7"/></linearGradient><linearGradient id="eyzFM4vwpTs24-stroke" x1="1510" y1="300.924" x2="987" y2="300.924" spreadMethod="pad" gradientUnits="userSpaceOnUse" gradientTransform="translate(0 0)"><stop id="eyzFM4vwpTs24-stroke-0" offset="0%" stop-color="#deef96"/><stop id="eyzFM4vwpTs24-stroke-1" offset="100%" stop-color="#2dffd7"/></linearGradient></defs><path d="M-8,0.923828L69.0135,104.994C76.5567,115.187,88.4863,121.2,101.167,121.2h141.799c13.362,0,25.841,6.672,33.262,17.782L386.187,303.603c7.422,11.111,19.901,17.783,33.263,17.783h30.553c14.306,0,27.523,7.64,34.662,20.037L641.023,612.924" fill="none" stroke="#33fed5" stroke-width="2" stroke-opacity="0.2" stroke-dasharray="970.93"/><g><path id="eyzFM4vwpTs5" d="M882.984287,619.00816L1064.45,354.528c5.572661-7.216378,12.265653-17.313,32.939999-17.313h65.06c15.903747,0,27.591713-8.665812,32.68-15.829l122.58-174.483647c7.52-10.978351,10.46175-10.978353,24.132722-10.978353h100.049877" transform="translate(.000001 0)" fill="none" stroke="#2dffd7" stroke-width="2.88" stroke-dashoffset="804.19" stroke-dasharray="804.19"/><path id="eyzFM4vwpTs6" d="M477.656708,541.087h-34.656708-110.578c-14.628,0-28.522-6.405-38.022-17.529l-18.049-21.134c-9.5-11.124-23.394-17.529-38.022-17.529h-23.329-253" fill="none" stroke="url(#eyzFM4vwpTs6-stroke)" stroke-width="2" stroke-dashoffset="535" stroke-dasharray="535"/><path d="M443,541.087h-102.578c-7.757,0-17.228552-1.835-23.711018-5.975889" transform="translate(160 6)" fill="none" stroke="url(#eyzFM4vwpTs7-stroke)" stroke-width="2" stroke-dashoffset="535" stroke-dasharray="535"/><path id="eyzFM4vwpTs8" d="M513.644716,541.087h-181.222716c-14.628,0-26.757815-6.888128-36.257815-18.012128L276.452674,503.25898c-9.5-11.124-23.495674-13.19132-38.123674-13.19132h-23.329-253" transform="matrix(-1 0 0-.966621 1518.902674 965.567698)" fill="none" stroke="url(#eyzFM4vwpTs8-stroke)" stroke-width="2" stroke-dashoffset="535" stroke-dasharray="535"/><path id="eyzFM4vwpTs9" d="M794.327159,735.865387L665.686997,721.547984c-8.94063-2.672591-20.942924-4.362094-30.574545-20.109652L564.600491,581.849337c-3.937674-8.316569-16.757233-19.510312-32.689148-19.099108L335.027931,549.791646c-14.628,0-22.540194-8.382308-32.040194-19.506308l-18.943999-32.12921c-9.5-11.124-31.086738-13.261128-45.714738-13.261128h-23.329l-288.200372.339191" transform="matrix(-.500355-.86582-.883383 0.510504 1039.496295 313.006026)" fill="none" stroke="url(#eyzFM4vwpTs9-stroke)" stroke-width="2" stroke-dashoffset="-979" stroke-dasharray="979.82"/><path id="eyzFM4vwpTs10" d="M794.327159,735.865387L665.686997,721.547984c-8.94063-2.672591-20.942924-4.362094-30.574545-20.109652L564.600491,581.849337c-3.937674-8.316569-16.757233-19.510312-32.689148-19.099108L335.027931,549.791646c-14.628,0-22.540194-8.382308-32.040194-19.506308l-18.943999-32.12921c-9.5-11.124-31.086738-13.261128-45.714738-13.261128h-23.329l-288.200372.339191" transform="matrix(-.500355-.86582-.883383 0.510504 1039.496295 313.006026)" fill="none" stroke="url(#eyzFM4vwpTs10-stroke)" stroke-width="2" stroke-dashoffset="-979" stroke-dasharray="979.82"/><path id="eyzFM4vwpTs12" d="M477.656708,541.087h-34.656708-110.578c-14.628,0-28.522-6.405-38.022-17.529l-18.049-21.134c-9.5-11.124-23.394-17.529-38.022-17.529h-23.329-253" fill="none" stroke="url(#eyzFM4vwpTs12-stroke)" stroke-width="2" stroke-dashoffset="535" stroke-dasharray="535"/><path id="eyzFM4vwpTs13" d="M443,541.087h-102.578c-7.757,0-17.228552-1.835-23.711018-5.975889" transform="translate(160 6)" fill="none" stroke="url(#eyzFM4vwpTs13-stroke)" stroke-width="2" stroke-dashoffset="535" stroke-dasharray="535"/><path d="M513.644716,541.087h-181.222716c-14.628,0-26.757815-6.888128-36.257815-18.012128L276.452674,503.25898c-9.5-11.124-23.495674-13.19132-38.123674-13.19132h-23.329-253" transform="matrix(-1 0 0-.966621 1518.902674 965.567698)" fill="none" stroke="url(#eyzFM4vwpTs14-stroke)" stroke-width="2" stroke-dashoffset="-510" stroke-dasharray="535"/></g><path d="M-8,0.923828L69.0135,104.994C76.5567,115.187,88.4863,121.2,101.167,121.2h141.799c13.362,0,25.841,6.672,33.262,17.782L386.187,303.603c7.422,11.111,19.901,17.783,33.263,17.783h30.553c14.306,0,27.523,7.64,34.662,20.037L641.023,612.924" fill="none" stroke="url(#eyzFM4vwpTs18-stroke)" stroke-width="2" stroke-opacity="0.2" stroke-dasharray="970.93"/><path d="M-38,373.924h90.1021c11.9064,0,23.1939-5.304,30.7931-14.47l23.2638-28.06c7.6-9.166,18.887-14.47,30.794-14.47h87.047" fill="none" stroke="url(#eyzFM4vwpTs19-stroke)" stroke-width="2" stroke-opacity="0.2" stroke-dasharray="283.89"/><path d="M-3.17676,485.318h241.50576c14.628,0,28.522,6.406,38.022,17.529L294.4,523.982c9.5,11.124,23.394,17.529,38.022,17.529l145.234708.008207" fill="none" stroke="url(#eyzFM4vwpTs20-stroke)" stroke-width="2" stroke-opacity="0.2" stroke-linecap="round" stroke-dasharray="501.28"/><path d="M1004.65,443.318h184.92c10.64,0,20.84,4.238,28.34,11.776l24.54,24.642c7.51,7.538,17.71,11.775,28.34,11.775h353.36" fill="none" stroke="url(#eyzFM4vwpTs21-stroke)" stroke-width="2" stroke-opacity="0.2" stroke-dasharray="636.06"/><path d="M0.106934,224.814h140.718066c13.333,0,25.79,6.644,33.218,17.718L282.07,403.576c7.428,11.073,19.885,17.717,33.219,17.717h56.19c13.442,0,25.985,6.751,33.388,17.971l59.176,89.689c7.403,11.22,19.946,17.971,33.388,17.971h105.569" fill="none" stroke="url(#eyzFM4vwpTs22-stroke)" stroke-width="2" stroke-opacity="0.2" stroke-dasharray="761.26"/><path d="M1462.22,364.869h-93.21c-10.42,0-20.43-4.066-27.89-11.333l-28.09-27.333c-7.47-7.268-17.48-11.334-27.9-11.334h-79.91" transform="translate(-10 0)" fill="none" stroke="url(#eyzFM4vwpTs23-stroke)" stroke-width="2" stroke-opacity="0.2" stroke-dasharray="294.06"/><path d="M1510,135.924h-164c-13,0-25.18,6.314-32.68,16.931L1195.13,320.284c-7.5,10.617-19.69,16.931-32.68,16.931h-65.06c-13.16,0-25.48,6.474-32.94,17.313L886.5,612.924" fill="none" stroke="url(#eyzFM4vwpTs24-stroke)" stroke-width="2" stroke-opacity="0.2" stroke-dasharray="862.95"/></svg>
