<svg xmlns="http://www.w3.org/2000/svg" width="24" height="24" viewBox="0 0 24 24" fill="none"><g id="Frame"><path id="path" d="M23.2806 5.24977C23.0387 5.13164 22.9347 5.35665 22.7932 5.47102C22.7454 5.50852 22.7041 5.55727 22.6638 5.60039C22.3103 5.97915 21.8978 6.22665 21.3597 6.19665C20.5712 6.15352 19.899 6.40102 19.3047 7.00479C19.1781 6.26039 18.7581 5.81602 18.1197 5.53102C17.785 5.38289 17.4465 5.23477 17.2132 4.91227C17.0491 4.68352 17.005 4.42852 16.9225 4.17727C16.8709 4.0254 16.8184 3.86977 16.6441 3.84352C16.4547 3.81352 16.3806 3.97289 16.3065 4.10602C16.0085 4.64977 15.894 5.24977 15.9044 5.85727C15.9306 7.22223 16.5072 8.30972 17.6509 9.08415C17.7813 9.17228 17.815 9.26223 17.7737 9.39164C17.6959 9.65785 17.6031 9.91667 17.5206 10.1829C17.4691 10.3536 17.3912 10.391 17.2094 10.316C16.5813 10.0536 16.0384 9.66543 15.5594 9.19475C14.7457 8.40726 14.0097 7.53731 13.0919 6.85667C12.8763 6.69727 12.6616 6.54915 12.4384 6.40852C11.5018 5.49727 12.5613 4.74915 12.8059 4.66102C13.0628 4.56915 12.895 4.25039 12.0662 4.25414C11.2384 4.2579 10.48 4.5354 9.51434 4.90477C9.37284 4.96102 9.22471 5.00227 9.07188 5.03414C8.1953 4.86915 7.28503 4.83164 6.33344 4.93852C4.54281 5.13915 3.11219 5.98665 2.06031 7.43411C0.797494 9.17228 0.500307 11.1485 0.864061 13.211C1.24656 15.3822 2.35375 17.1822 4.05625 18.5885C5.82063 20.0454 7.85316 20.7598 10.1716 20.6229C11.5797 20.5422 13.1481 20.3529 14.9163 18.8547C15.3625 19.076 15.8303 19.1642 16.6075 19.2316C17.2057 19.2879 17.7813 19.2017 18.2275 19.1097C18.9259 18.9617 18.8772 18.3147 18.625 18.1947C16.5775 17.2404 17.0265 17.6285 16.6178 17.3154C17.6584 16.0817 19.2269 14.801 19.84 10.6536C19.8878 10.3235 19.8465 10.1173 19.84 9.84918C19.8363 9.6879 19.8728 9.62415 20.0584 9.60543C20.5712 9.54726 21.0691 9.40662 21.5265 9.15356C22.8532 8.4279 23.3875 7.23731 23.514 5.80852C23.5328 5.59102 23.5103 5.36414 23.2806 5.24977ZM11.7213 18.1066C9.73658 16.5448 8.77466 16.031 8.37722 16.0536C8.00589 16.0741 8.07252 16.4998 8.15402 16.7773C8.23937 17.051 8.35092 17.2404 8.50749 17.4804C8.6153 17.6398 8.68941 17.8778 8.39969 18.0541C7.76033 18.4516 6.64941 17.921 6.5969 17.8947C5.30406 17.1336 4.22312 16.1266 3.46094 14.7504C2.72593 13.4248 2.29844 12.0035 2.22812 10.4866C2.20938 10.1191 2.31718 9.98972 2.68094 9.92415C3.16 9.83603 3.655 9.81731 4.13406 9.88662C6.15907 10.1829 7.88311 11.0904 9.32781 12.5248C10.1528 13.3442 10.7772 14.321 11.4203 15.2754C12.1038 16.2898 12.8397 17.2554 13.7763 18.0466C14.1062 18.3242 14.3706 18.536 14.6228 18.6916C13.8616 18.776 12.5903 18.7947 11.7213 18.1066ZM12.6719 11.981C12.6719 11.8178 12.8022 11.6885 12.9662 11.6885C13.0028 11.6885 13.0366 11.696 13.0665 11.7073C13.1069 11.7222 13.1444 11.7448 13.1735 11.7785C13.2259 11.8292 13.2559 11.9042 13.2559 11.981C13.2559 12.1442 13.1257 12.2736 12.9625 12.2736C12.7984 12.2736 12.6719 12.1442 12.6719 11.981ZM15.6259 13.4998C15.4366 13.5767 15.2472 13.6442 15.0654 13.6516C14.7831 13.6648 14.4747 13.5504 14.3069 13.4098C14.0472 13.1923 13.8616 13.0704 13.7828 12.6879C13.75 12.5248 13.7688 12.2736 13.7978 12.1292C13.8653 11.8178 13.7903 11.6191 13.5719 11.4373C13.3928 11.2892 13.1669 11.2498 12.9175 11.2498C12.8247 11.2498 12.7394 11.2085 12.6756 11.1747C12.5716 11.1222 12.4862 10.9929 12.5678 10.8336C12.594 10.7829 12.7206 10.6573 12.7506 10.6347C13.0881 10.4417 13.4781 10.5054 13.839 10.6498C14.1737 10.7866 14.4259 11.0378 14.7896 11.3923C15.1618 11.8217 15.2285 11.9417 15.4403 12.2622C15.6072 12.5154 15.76 12.7741 15.8641 13.0704C15.9269 13.2541 15.8454 13.406 15.6259 13.4998Z" fill="#4D6BFE"></path></g></svg>