<svg xmlns="http://www.w3.org/2000/svg" width="24" height="24" viewBox="0 0 24 24" fill="none"><g id="Google" clip-path="url(#clip0_2075_3872)"><path id="Vector" d="M23.7387 12.2874C23.7387 11.4787 23.6605 10.6439 23.53 9.86133H12.2344V14.4787H18.7039C18.4431 15.9657 17.5822 17.27 16.3039 18.1048L20.1648 21.1048C22.4344 18.9918 23.7387 15.9135 23.7387 12.2874Z" fill="#4280EF"></path><path id="Vector_2" d="M12.2347 23.9735C15.4695 23.9735 18.1825 22.9039 20.1651 21.0778L16.3043 18.1039C15.2347 18.8343 13.8521 19.2517 12.2347 19.2517C9.10428 19.2517 6.4695 17.1387 5.50428 14.3213L1.53906 17.3735C3.57385 21.4169 7.69558 23.9735 12.2347 23.9735Z" fill="#34A353"></path><path id="Vector_3" d="M5.50453 14.2955C5.00888 12.8086 5.00888 11.1912 5.50453 9.70424L1.53932 6.62598C-0.156335 10.0173 -0.156335 14.0086 1.53932 17.3738L5.50453 14.2955Z" fill="#F6B704"></path><path id="Vector_4" d="M12.2347 4.77367C13.9304 4.74759 15.5999 5.39976 16.826 6.57367L20.2434 3.1302C18.0782 1.09541 15.2086 -0.000241033 12.2347 0.0258459C7.69558 0.0258459 3.57385 2.58237 1.53906 6.62585L5.50428 9.70411C6.4695 6.86063 9.10428 4.77367 12.2347 4.77367Z" fill="#E54335"></path></g><defs><clipPath id="clip0_2075_3872"><rect width="23.4783" height="24" fill="white" transform="translate(0.260742)"></rect></clipPath></defs></svg>