<svg xmlns="http://www.w3.org/2000/svg" width="24" height="24" viewBox="0 0 24 24" fill="none"><g id="Grammarly" clip-path="url(#clip0_2075_3875)"><path id="Vector" d="M12 0C5.37279 0 0 5.37238 0 12H24C24 5.37238 18.6276 0 12 0Z" fill="#129C78"></path><path id="Vector_2" d="M12 24C18.6276 24 24 18.6273 24 12H0C0 18.6273 5.37279 24 12 24Z" fill="#129C78"></path><path id="Vector_3" opacity="0.2" fill-rule="evenodd" clip-rule="evenodd" d="M14.3679 13.7846C14.2483 13.7846 14.1302 13.8111 14.022 13.862C13.8588 13.9388 13.7258 14.0676 13.6438 14.2282C13.5617 14.3888 13.5353 14.572 13.5687 14.7492C13.6395 15.1421 14.0089 15.4111 14.4082 15.4111H15.6654L16.3944 15.3089C15.2281 17.0199 13.2035 17.8069 10.9896 17.4595C9.18778 17.1764 7.64092 15.9576 6.98458 14.2548C5.5034 10.3889 8.32672 6.69805 12.0055 6.69805C13.9231 6.69805 15.604 7.82065 16.5682 9.17586V9.20532C16.6898 9.38401 16.877 9.50731 17.0891 9.54826C17.3013 9.5892 17.5211 9.54444 17.7003 9.42377C17.867 9.30841 17.984 9.13411 18.0275 8.93599C18.071 8.73786 18.0379 8.53062 17.9346 8.35598H17.9408C17.2596 7.28908 16.3033 6.42557 15.1726 5.85638C14.042 5.28718 12.7788 5.03337 11.516 5.12163C8.00984 5.35784 5.17059 8.229 4.96899 11.739C4.73464 15.8242 7.97515 19.1597 12.0055 19.1597C13.0113 19.1637 14.0061 18.95 14.9216 18.5333C15.837 18.1168 16.6516 17.507 17.3094 16.7461L17.1565 17.6025V18.3759C17.1565 18.7744 17.4251 19.1442 17.8184 19.215C17.936 19.2372 18.057 19.2333 18.1729 19.2033C18.2888 19.1734 18.3966 19.1183 18.4887 19.0419C18.5809 18.9657 18.6549 18.8698 18.7058 18.7615C18.7568 18.6532 18.7832 18.5351 18.783 18.4154V13.7846H14.3679Z" fill="#181D27"></path><path id="Vector_4" fill-rule="evenodd" clip-rule="evenodd" d="M14.3679 13.6264C14.2483 13.6264 14.1302 13.6529 14.022 13.7038C13.8588 13.7806 13.7258 13.9094 13.6438 14.07C13.5617 14.2306 13.5353 14.4138 13.5687 14.591C13.6395 14.9839 14.0089 15.2529 14.4082 15.2529H15.6654L16.3944 15.1507C15.2281 16.8617 13.2035 17.6487 10.9896 17.3013C9.18778 17.0182 7.64092 15.7994 6.98458 14.0966C5.5034 10.2307 8.32672 6.53985 12.0055 6.53985C13.9231 6.53985 15.604 7.66245 16.5682 9.01766V9.04712C16.6898 9.22581 16.877 9.34911 17.0891 9.39005C17.3013 9.431 17.5211 9.38623 17.7003 9.26557C17.867 9.15021 17.984 8.97591 18.0275 8.77779C18.071 8.57966 18.0379 8.37242 17.9346 8.19777H17.9408C17.2596 7.13088 16.3033 6.26737 15.1726 5.69817C14.042 5.12898 12.7788 4.87516 11.516 4.96343C8.00984 5.19964 5.17059 8.0708 4.96899 11.5808C4.73464 15.6659 7.97515 19.0015 12.0055 19.0015C13.0113 19.0054 14.0061 18.7918 14.9216 18.3751C15.837 17.9586 16.6516 17.3488 17.3094 16.5879L17.1565 17.4443V18.2177C17.1565 18.6162 17.4251 18.986 17.8184 19.0568C17.936 19.079 18.057 19.0751 18.1729 19.0451C18.2888 19.0152 18.3966 18.9601 18.4887 18.8837C18.5809 18.8074 18.6549 18.7116 18.7058 18.6033C18.7568 18.495 18.7832 18.3769 18.783 18.2572V13.6264H14.3679Z" fill="white"></path></g><defs><clipPath id="clip0_2075_3875"><rect width="24" height="24" fill="white"></rect></clipPath></defs></svg>