<svg xmlns="http://www.w3.org/2000/svg" width="26" height="24" viewBox="0 0 26 24" fill="none"><path fill-rule="evenodd" clip-rule="evenodd" d="M22.6884 10.0042C22.9417 9.26384 23.0295 8.47826 22.9458 7.70133C22.8621 6.92441 22.6089 6.17453 22.2035 5.50316C20.9688 3.41316 18.4884 2.33716 16.0658 2.84316C15.5292 2.25756 14.8729 1.79057 14.1401 1.47292C13.4073 1.15527 12.6146 0.99415 11.814 1.00016C9.33767 0.995162 7.14028 2.54616 6.37839 4.83816C5.59526 4.99269 4.85441 5.30959 4.20499 5.76785C3.55557 6.2261 3.01242 6.81523 2.61158 7.49616C2.0057 8.51043 1.74676 9.68985 1.87299 10.8603C1.99922 12.0307 2.50393 13.1301 3.3126 13.9962C3.05898 14.7366 2.97092 15.5223 3.05445 16.2994C3.13798 17.0765 3.39113 17.8266 3.79651 18.4982C5.03115 20.5882 7.51158 21.6632 9.93419 21.1582C10.4706 21.7437 11.1267 22.2105 11.8594 22.528C12.592 22.8455 13.3846 23.0064 14.1849 23.0002C16.6633 23.0062 18.8617 21.4542 19.6236 19.1602C20.4073 19.0057 21.1486 18.6886 21.7984 18.23C22.4482 17.7713 22.9916 17.1817 23.3925 16.5002C23.9972 15.486 24.2553 14.3071 24.1287 13.1373C24.0021 11.9675 23.4976 10.8688 22.6894 10.0032L22.6884 10.0042ZM14.1859 21.5622C13.1964 21.5645 12.2369 21.2272 11.4722 20.6082C11.5067 20.5902 11.5665 20.5582 11.6061 20.5342L16.1104 18.0042C16.2228 17.9423 16.3164 17.8519 16.3813 17.7423C16.4463 17.6328 16.4802 17.5081 16.4797 17.3812V11.2052L18.3839 12.2742C18.4042 12.2842 18.4174 12.3032 18.4204 12.3242V17.4392C18.4174 19.7132 16.5233 21.5572 14.1859 21.5622ZM5.07883 17.7802C4.58236 16.9477 4.40323 15.9681 4.57361 15.0172C4.60607 15.0372 4.66492 15.0722 4.70651 15.0952L9.21086 17.6252C9.43912 17.7552 9.72216 17.7552 9.95144 17.6252L15.45 14.5372V16.6752C15.4504 16.6861 15.4482 16.6971 15.4434 16.707C15.4386 16.7169 15.4315 16.7256 15.4226 16.7322L10.8696 19.2882C8.84158 20.4242 6.25158 19.7482 5.07984 17.7782L5.07883 17.7802ZM3.89289 8.21616C4.3913 7.37816 5.17214 6.73906 6.09941 6.41016L6.09738 6.56116V11.6212C6.09676 11.7482 6.13068 11.8731 6.19563 11.9828C6.26057 12.0926 6.35416 12.1832 6.46665 12.2452L11.9652 15.3322L10.062 16.4022C10.0526 16.4081 10.0418 16.4117 10.0307 16.4126C10.0195 16.4134 10.0084 16.4116 9.9981 16.4072L5.44405 13.8482C3.42013 12.7082 2.72622 10.1902 3.89187 8.21816L3.89289 8.21616ZM19.5333 11.7562L14.0348 8.66816L15.938 7.60016C15.9473 7.59405 15.958 7.5903 15.9692 7.58926C15.9803 7.58821 15.9915 7.58989 16.0019 7.59416L20.5559 10.1512C22.5829 11.2912 23.2778 13.8132 22.1071 15.7842C21.6082 16.6216 20.8281 17.2608 19.9016 17.5912V12.3802C19.9022 12.2534 19.8684 12.1287 19.8037 12.0192C19.7389 11.9096 19.6455 11.8191 19.5333 11.7572V11.7562ZM21.4274 8.98316C21.3831 8.95661 21.3384 8.9306 21.2935 8.90516L16.7891 6.37516C16.6766 6.31137 16.5491 6.2778 16.4193 6.2778C16.2896 6.2778 16.162 6.31137 16.0496 6.37516L10.551 9.46316V7.32516C10.5506 7.31419 10.5528 7.30327 10.5576 7.29334C10.5624 7.28342 10.5695 7.27478 10.5784 7.26816L15.1304 4.71316C17.1594 3.57616 19.7514 4.25316 20.9201 6.22616C21.4142 7.05916 21.5948 8.03516 21.4274 8.98316ZM9.51622 12.7932L7.61202 11.7252C7.60208 11.7204 7.59352 11.7132 7.58714 11.7043C7.58076 11.6954 7.57675 11.685 7.57549 11.6742V6.55916C7.57651 4.28216 9.47564 2.43716 11.8171 2.43916C12.8072 2.43916 13.7649 2.77716 14.5268 3.39316C14.4923 3.41116 14.4335 3.44316 14.3939 3.46616L9.88955 5.99616C9.77695 6.05787 9.68319 6.14822 9.61807 6.2578C9.55294 6.36738 9.51882 6.49217 9.51926 6.61916L9.51622 12.7922V12.7932ZM10.551 10.6252L13 9.25016L15.449 10.6252V13.3752L13 14.7502L10.55 13.3752V10.6252H10.551Z" fill="#181D27"></path></svg>