<svg xmlns="http://www.w3.org/2000/svg" fill="none" width="1288" height="668" viewBox="0 0 1288 668">
  <style>
    .plate-0 {
      animation: 1.25s cubic-bezier(0.39, 0.83, 0.34, 0.85) 0s 1 forwards plate-0;
    }

    @keyframes plate-0 {
      0% {
        transform: translate(100px, -100px);
        opacity: 0;
        filter: blur(5px);
      }
      100% {
        transform: translate(0, 0);
        opacity: 1;
        filter: blur(0);
      }
    }
  </style>
  <g id="plate-0" class="plate-0">
    <path d="m784.23 340.16-27.69-46.08.95-.1 27.69 46.08-.95.1Z" fill="#D4D7DC" fill-rule="evenodd" clip-rule="evenodd"/>
    <g filter="url(#a)">
      <rect fill="url(#b)" width="461.23" height="845.89" rx="28.65" transform="matrix(-.51504 -.85717 .99452 -.10453 272.33 624.95)"/>
    </g>
    <g opacity=".6">
      <rect fill="#fff" width="300.05" height="36.59" x=".68" y=".34" stroke="#DFE1E5" stroke-width=".91" rx="7.78" transform="matrix(.99452 -.10453 .51504 .85717 107.4 262)"/>
      <path d="m140 273.5-1.36.14a5.24 5.24 0 0 0-4.4-1.73c-.68.1-1.2.3-1.58.7a1.9 1.9 0 0 0-.52 1.48c.02.6.29 1.33.8 2.17.5.84 1.08 1.53 1.75 2.07a6.3 6.3 0 0 0 2.1 1.17 5 5 0 0 0 2.1.25c.38-.04.7-.12 1-.24.3-.13.53-.3.7-.5.19-.2.3-.44.34-.72.05-.28 0-.6-.1-.93l1.35-.14c.2.5.28.97.24 1.38-.03.42-.17.8-.4 1.1a2.6 2.6 0 0 1-1 .77c-.4.2-.9.33-1.46.39-.96.1-1.93-.01-2.92-.34a9.56 9.56 0 0 1-5.03-4.11 5.72 5.72 0 0 1-.9-2.73c0-.77.27-1.41.77-1.9s1.24-.76 2.2-.87a7.54 7.54 0 0 1 5.07 1.4c.5.38.96.8 1.36 1.29Zm7.75-4.03 1.36-.15 3.85 6.41c.4.66.57 1.27.53 1.83a1.9 1.9 0 0 1-.79 1.4 4 4 0 0 1-2.03.67 6.9 6.9 0 0 1-4.83-1.26 5.76 5.76 0 0 1-1.6-1.72l-3.86-6.4 1.36-.15 3.8 6.31c.28.48.65.88 1.12 1.23a4.83 4.83 0 0 0 3.35.9c.62-.07 1.1-.23 1.42-.49.32-.25.5-.58.51-.97.02-.4-.1-.83-.4-1.3l-3.79-6.3Zm9.9 9.25-5.82-9.68 3.8-.4c.88-.1 1.68-.03 2.4.18a5.54 5.54 0 0 1 3.25 2.48c.34.57.52 1.1.53 1.6.01.5-.18.9-.57 1.25-.4.33-1.03.54-1.9.63l-2.72.3-.63-1.05 2.68-.28a2.4 2.4 0 0 0 1.3-.43.94.94 0 0 0 .35-.8 2.36 2.36 0 0 0-.38-1.08 3.88 3.88 0 0 0-.87-1c-.35-.3-.76-.5-1.24-.65a4.25 4.25 0 0 0-1.63-.1l-2.39.25 5.2 8.64-1.36.14Zm9.8-1.03-5.82-9.7 6.78-.7.63 1-5.42.51 1.96 3.28 5.07-.53.63 1.05-5.07.53 1.97 3.3 5.51-.58.63 1.03-6.87.73Zm12.7-1.4-3.47.33-5.82-9.68 3.62-.38a7.88 7.88 0 0 1 5.93 1.75 9.35 9.35 0 0 1 2.17 2.52c.6 1.01.92 1.91.94 2.68a2.2 2.2 0 0 1-.82 1.85 4.7 4.7 0 0 1-2.55.88Zm-2.74-.8 2.02-.27c.93-.1 1.6-.33 2.03-.7.43-.39.62-.87.58-1.48-.04-.6-.3-1.3-.78-2.08a7.76 7.76 0 0 0-1.65-1.97 6.07 6.07 0 0 0-4.48-1.4l-2.17.23 4.55 7.6Z" fill="#414141"/>
      <g clip-path="url(#c)">
        <path d="M201.86 261.81c-4.24.45-5.9 3.77-3.7 7.42s7.4 6.25 11.64 5.8c4.24-.44 5.9-3.76 3.7-7.4-2.19-3.66-7.4-6.26-11.64-5.8Zm4.42 10.08-5.82-2.9.52-1.05 4.18 2.08 2.8-5.63 1.65.82-3.33 6.68Z" fill="#535963"/>
      </g>
      <path d="M0-.45h17.87" stroke="#C5C8CF" stroke-width=".91" transform="matrix(.51504 .85717 -.99452 .10453 219.32 258.85)"/>
      <path d="M244.76 262.2a3 3 0 0 0-1.47-1.03 4.52 4.52 0 0 0-1.97-.22c-.5.05-.89.17-1.18.35-.28.17-.46.4-.52.66s0 .55.2.86c.15.26.35.47.6.64.26.17.54.3.84.4a6.84 6.84 0 0 0 1.69.34l1.3.14 1.14.17c.43.08.87.2 1.32.37.5.17.9.4 1.3.68.4.3.8.66 1 1.12.4.52.5 1 .4 1.46 0 .46-.3.84-.7 1.16-.45.3-1.1.5-1.97.6-.8.1-1.56.05-2.3-.1a6.12 6.12 0 0 1-1.93-.8 4.83 4.83 0 0 1-1.4-1.34l1.4-.15c.25.36.58.65.97.86a4.78 4.78 0 0 0 2.63.47 3.2 3.2 0 0 0 1.26-.36c.33-.2.53-.43.62-.72.08-.29 0-.6-.2-.96-.2-.33-.45-.58-.78-.76-.33-.18-.7-.3-1.12-.4-.42-.1-.85-.16-1.3-.22l-1.6-.2a8.9 8.9 0 0 1-2.63-.7 3.82 3.82 0 0 1-1.72-1.5c-.33-.55-.44-1.04-.34-1.48.1-.44.37-.8.8-1.1a3.95 3.95 0 0 1 1.75-.54 6.35 6.35 0 0 1 4.02.9c.55.35.99.77 1.3 1.26l-1.31.14Zm11.51 6.67c-.8.08-1.6 0-2.38-.25a6.72 6.72 0 0 1-3.78-3.06 4.39 4.39 0 0 1-.7-2.02 2 2 0 0 1 .6-1.47c.39-.38.96-.62 1.72-.7a5.32 5.32 0 0 1 2.95.55c.53.24 1.03.58 1.52 1.03.48.44.92 1 1.33 1.68l.29.47-6.5.68-.59-.96 5.18-.55a3.97 3.97 0 0 0-2.2-1.74 3.3 3.3 0 0 0-1.4-.15c-.5.05-.9.2-1.15.47a1.3 1.3 0 0 0-.35.94c.01.37.14.76.38 1.16l.38.64a4.51 4.51 0 0 0 2.62 2.13 3.87 3.87 0 0 0 2.4-.07c.23-.12.4-.27.5-.46.1-.19.12-.42.08-.68l1.44.17c.1.38.06.72-.1 1.03-.13.31-.4.57-.75.77a4 4 0 0 1-1.4.4Zm12.75 1.4-2.3-3.85h-.11l-.1.56c-.06.2-.2.42-.44.6-.23.19-.62.3-1.16.37a4.9 4.9 0 0 1-2.1-.26 6.64 6.64 0 0 1-2-1.18 7.56 7.56 0 0 1-1.64-1.95 4.57 4.57 0 0 1-.72-2.03 1.8 1.8 0 0 1 .49-1.43c.36-.37.9-.59 1.6-.66a3.69 3.69 0 0 1 1.44.1c.42.12.77.27 1.06.45l.69.44.15-.01-.7-1.16 1.25-.13 6 9.99-1.3.13Zm-4.53-3.33c.51-.06.88-.22 1.1-.49.2-.27.2-.63.2-1.06a4.15 4.15 0 0 0-.6-1.48c-.39-.5-.7-1-1.19-1.3a4.3 4.3 0 0 0-1.39-.87c-.5-.2-1-.26-1.53-.2-.56.05-.94.22-1.16.5-.22.28-.3.64-.23 1.07.06.43.25.9.56 1.4.3.53.68 1 1.12 1.4.44.4.91.7 1.42.9.51.22 1.03.3 1.58.24Zm10.09-3.31-2.58-4.3 1.3-.13 4.35 7.26-1.29.14-.74-1.23h-.09c.03.4-.09.74-.35 1.04-.26.3-.72.48-1.35.55a4.08 4.08 0 0 1-3.1-.95c-.47-.39-.9-.89-1.27-1.5l-2.77-4.62 1.3-.13 2.72 4.53c.32.53.74.94 1.28 1.22a2.8 2.8 0 0 0 1.6.33c.3-.03.6-.14.8-.31.21-.18.4-.43.41-.75.06-.31-.05-.7-.32-1.15Zm9.07 2.36c-.81.09-1.6 0-2.38-.24a6.69 6.69 0 0 1-2.14-1.17 7.2 7.2 0 0 1-1.65-1.9 4.4 4.4 0 0 1-.7-2.02c-.03-.6.14-1.1.52-1.47a2.8 2.8 0 0 1 1.7-.7 5.38 5.38 0 0 1 2.96.55 7.05 7.05 0 0 1 2.85 2.7l.28.48-6.5.68-.57-.96 5.18-.55a3.92 3.92 0 0 0-2.2-1.74 3.3 3.3 0 0 0-1.4-.15c-.5.05-.89.21-1.13.47-.24.26-.36.57-.35.94 0 .37.13.76.37 1.16l.39.64c.33.55.72 1 1.17 1.36.45.36.93.61 1.44.77.52.15 1.03.2 1.56.15.34-.04.62-.1.84-.22.23-.12.4-.27.5-.45.1-.2.12-.42.08-.69l1.43.17c.1.38.06.73-.08 1.04-.15.3-.4.56-.77.76-.36.2-.83.33-1.4.4Zm4.04-5.23 2.62 4.37-1.3.13-4.36-7.26 1.25-.13.68 1.14.11-.01c-.02-.4.1-.72.37-.99.26-.27.72-.44 1.35-.5a4.38 4.38 0 0 1 3.22.95 5 5 0 0 1 1.28 1.5l2.88 4.6-1.3.14-2.72-4.54c-.34-.57-.78-1-1.31-1.28-.54-.28-1.1-.4-1.7-.33a1.8 1.8 0 0 0-.98.35.96.96 0 0 0-.35.75c0 .32.1.7.38 1.11Zm9.66-4.09.57.94-4.37.46-.56-.94 4.36-.46Zm-4.14-1.42 1.3-.13 4.16 6.92c.18.31.38.55.58.7.2.13.4.22.6.26a2.2 2.2 0 0 0 .93-.04l.2-.06.86.98c-.07.03-.17.08-.3.12a3.67 3.67 0 0 1-1.78.02c-.43-.1-.84-.28-1.24-.53-.4-.26-.7-.6-.97-1.02l-4.34-7.23Zm10.45 8.48-4.36-7.27 1.3-.13 4.35 7.26-1.29.14Zm-4.43-8.54a1.66 1.66 0 0 1-1.38-.7.62.62 0 0 1-.05-.6c.1-.19.27-.29.52-.3.25-.04.51.01.78.14s.47.3.6.5c.12.21.14.4.04.57-.09.16-.26.26-.51.3Zm10.68 8a4.75 4.75 0 0 1-3.1-.8 3.55 3.55 0 0 1-1.12-1.16c-.25-.42-.36-.76-.32-1.04a1 1 0 0 1 .4-.7c.22-.18.5-.32.85-.44l1.06-.3 1.17-.26c.3-.06.5-.14.6-.23.11-.09.11-.22 0-.4l-.02-.05a2.67 2.67 0 0 0-1.1-1.03 2.75 2.75 0 0 0-1.56-.25c-.62.07-1.04.24-1.25.5-.2.28-.3.55-.29.83l-1.46-.24a1.6 1.6 0 0 1 .26-1.12c.22-.29.52-.5.9-.65a4.66 4.66 0 0 1 2.19-.3c.38 0 .8.1 1.22.22a4.25 4.25 0 0 1 2.45 2.03l2.88 4.78-1.3.14-.59-.98h-.06c0 .17-.04.36-.14.56-.1.2-.28.38-.54.54a2.8 2.8 0 0 1-1.13.3Zm-.4-1.06c.5-.06.88-.19 1.13-.4.25-.2.38-.46.4-.75.02-.3-.07-.6-.25-.9l-.61-1.03c-.02.05-.11.12-.27.2l-.56.17a24.08 24.08 0 0 1-1.16.27c-.31.07-.59.17-.83.3a.9.9 0 0 0-.48.42c-.08.2-.03.42.14.7.23.4.58.66 1.03.83.45.16.94.21 1.45.16Zm2-9.62 5.81 9.68-1.3.14-5.8-9.68 1.29-.12Zm6.9.38-.52-1.04 8.42-.9.62 1.04-3.53.38 5.2 8.64-1.38.14-5.2-8.64-3.52.36Zm18.05 7.46c-.8.1-1.59.01-2.38-.23a6.7 6.7 0 0 1-2.14-1.16 7.18 7.18 0 0 1-1.65-1.91 4.4 4.4 0 0 1-.7-2.01 1.8 1.8 0 0 1 .52-1.5 2.8 2.8 0 0 1 1.7-.7 5.38 5.38 0 0 1 2.96.56 7.05 7.05 0 0 1 2.85 2.7l.27.48-6.5.67-.56-.96 5.18-.56a3.92 3.92 0 0 0-2.2-1.75 3.3 3.3 0 0 0-1.4-.15c-.5.05-.9.2-1.15.47-.24.26-.36.57-.35.94.01.37.14.76.38 1.16l.4.64c.33.55.72 1 1.17 1.36.45.36.93.61 1.44.77.52.15 1.03.2 1.56.15.34-.03.62-.1.84-.2.24-.13.4-.28.5-.46.1-.2.13-.42.1-.7l1.42.18c.1.38.06.73-.08 1.04-.16.3-.4.56-.78.76-.36.2-.83.33-1.4.4Zm7.95-6.98-1 .4a3.84 3.84 0 0 0-.6-.45 2.92 2.92 0 0 0-1.84-.4c-.53.05-.89.2-1.1.43-.23.23-.25.51-.06.82.16.27.4.47.74.6.33.14.78.24 1.34.3l1.4.13a5.9 5.9 0 0 1 2.13.54c.57.3 1 .68 1.3 1.2.26.41.34.8.26 1.15-.07.36-.3.65-.68.9-.38.24-.9.4-1.55.46-.86.1-1.67 0-2.43-.26-.75-.26-1.4-.7-1.91-1.3l1.07-.4a3.04 3.04 0 0 0 2.66.97c.59-.06 1-.23 1.23-.48.23-.26.24-.55.06-.86a1.58 1.58 0 0 0-.7-.6 3.3 3.3 0 0 0-1.17-.3l-1.57-.13a5.7 5.7 0 0 1-2.14-.55c-.56-.3-1-.7-1.3-1.2-.24-.41-.32-.8-.25-1.14.08-.34.3-.63.66-.86a4.67 4.67 0 0 1 3.67-.17 5.5 5.5 0 0 1 1.75 1.13Zm4.78-2.24.58.95-4.36.47-.57-.95 4.36-.46Zm-4.12-1.4 1.3-.15 4.15 6.93c.2.32.39.55.59.7.2.14.4.23.6.26a2.24 2.24 0 0 0 1.12-.1l.87 1a2.62 2.62 0 0 1-.9.22 3.95 3.95 0 0 1-2.44-.62c-.39-.25-.7-.6-.96-1l-4.35-7.23Zm10.44 8.46-4.36-7.26 1.3-.14 4.36 7.25-1.3.13Zm-4.43-8.54c-.25.02-.51-.04-.78-.17s-.48-.3-.6-.5-.13-.4-.04-.56c.09-.17.26-.27.5-.3.27 0 .53.04.79.17.27.13.47.3.6.5.12.2.13.4.04.57-.1.16-.27.26-.52.3Zm6.77 3.64 2.63 4.36-1.3.13-4.35-7.26 1.25-.15.68 1.14h.1c-.02-.4.1-.7.38-1 .26-.24.7-.41 1.35-.47a4.38 4.38 0 0 1 3.22.95c.47.38.9.88 1.27 1.5l2.77 4.6-1.3.15-2.72-4.54a3.3 3.3 0 0 0-1.31-1.28c-.53-.28-1.1-.4-1.7-.33a1.8 1.8 0 0 0-.97.35.97.97 0 0 0-.35.75c0 .32.12.7.37 1.1Zm15.5 6.06a6.35 6.35 0 0 1-4.33-1.1l.66-.72.7.42a4.08 4.08 0 0 0 2.36.44c.68-.07 1.16-.28 1.43-.6.26-.33.22-.8-.15-1.4l-.88-1.48h-.1l-.12.54c-.05.2-.19.4-.43.6-.23.18-.62.3-1.17.36-.68.07-1.38 0-2.08-.23a6.27 6.27 0 0 1-2-1.07 6.87 6.87 0 0 1-1.63-1.87 4.4 4.4 0 0 1-.73-2 1.8 1.8 0 0 1 .5-1.4 2.6 2.6 0 0 1 1.6-.67 3.7 3.7 0 0 1 1.46.1c.42.12.78.27 1.07.45l.7.44h.13l-.7-1.17 1.24-.13 4.5 7.46c.37.63.5 1.15.41 1.58-.09.43-.35.77-.8 1-.42.25-.98.4-1.65.48Zm-2.45-3.98c.52-.05.9-.2 1.13-.44.25-.24.34-.57.3-.97a3.7 3.7 0 0 0-.55-1.4 5.89 5.89 0 0 0-1.1-1.35 4.44 4.44 0 0 0-1.37-.85c-.5-.2-1-.28-1.54-.2s-.93.2-1.15.5c-.23.26-.31.61-.25 1.03a5.25 5.25 0 0 0 1.6 2.67 4 4 0 0 0 1.37.82c.5.18 1 .24 1.55.2Z" fill="#414141"/>
      <g clip-path="url(#d)">
        <path d="M392.86 242.5c-4.24.45-5.9 3.78-3.7 7.43s7.4 6.25 11.64 5.8c4.24-.44 5.9-3.76 3.7-7.4-2.19-3.67-7.4-6.27-11.64-5.82Zm4.42 10.09-5.82-2.9.52-1.05 4.18 2.08 2.8-5.63 1.65.82-3.3 6.68Z" fill="#535963"/>
      </g>
    </g>
    <g opacity=".5">
      <path d="m440.33 304.87.63 1.04-4.92.52-.62-1.04 4.9-.52Zm4.95 5.18-.5-.85 1.6-3.9c.19-.45.33-.84.43-1.17.1-.34.13-.65.1-.93a2.02 2.02 0 0 0-.3-.87 2.7 2.7 0 0 0-.81-.85 3.43 3.43 0 0 0-2.34-.6c-.43.05-.76.16-.99.35a.93.93 0 0 0-.35.72c0 .3.1.62.32.99l-1.3.13a2.55 2.55 0 0 1-.44-1.54c.05-.46.26-.84.64-1.13.38-.3.9-.48 1.56-.55a5.84 5.84 0 0 1 3.74 1.02c.53.38.95.82 1.25 1.3a3 3 0 0 1 .4 1.08 3 3 0 0 1-.1 1.2c-.1.46-.3 1.02-.6 1.69l-1.11 2.59.04.07 5.22-.55.63 1.04-7.1.75Zm13.99-3.4-.3-.5a2.06 2.06 0 0 1-.34-1c0-.32.1-.58.32-.79.22-.22.57-.35 1.04-.4.47-.05.92 0 1.35.14a3.63 3.63 0 0 1 2 1.58l.3.5c.21.36.32.7.33 1a1 1 0 0 1-.31.8c-.22.2-.56.34-1.03.38-.47.06-.93 0-1.36-.13a3.77 3.77 0 0 1-2-1.58Zm.81-.63.3.51c.18.3.42.55.72.77.3.2.65.3 1.04.25.4-.04.6-.18.6-.43.03-.25-.05-.52-.23-.81l-.3-.51a2.6 2.6 0 0 0-.7-.76 1.5 1.5 0 0 0-1.04-.27c-.38.04-.59.2-.61.44-.03.25.04.52.22.81Zm-9.73-4.32-.31-.5a2.06 2.06 0 0 1-.33-1c0-.32.1-.59.32-.8a1.7 1.7 0 0 1 1.03-.4c.48-.04.93 0 1.36.15a3.64 3.64 0 0 1 1.98 1.58l.31.5c.21.36.32.7.33 1a1 1 0 0 1-.3.8c-.22.2-.56.33-1.03.38a2.5 2.5 0 0 1-1.36-.03 3.76 3.76 0 0 1-2-1.58Zm.8-.63.31.5c.18.3.42.56.72.77.3.22.65.3 1.04.26.38-.04.59-.18.6-.43.03-.25-.05-.52-.23-.81l-.3-.52a2.96 2.96 0 0 0-.7-.76c-.4-.2-.7-.3-1.1-.26-.4.04-.6.2-.66.44 0 .24.06.51.24.8Zm4.03 7.94 1.9-10.5 1.26-.13-1.9 10.5-1.26.13ZM157.9 340.25l-5.82-9.68 3.8-.4a5.9 5.9 0 0 1 2.39.2 5.53 5.53 0 0 1 3.24 2.46c.35.57.52 1.1.53 1.6.02.5-.17.91-.57 1.25-.4.33-1.03.54-1.9.63l-2.72.3-.62-1.05 2.67-.28a2.4 2.4 0 0 0 1.3-.42.94.94 0 0 0 .35-.8 2.37 2.37 0 0 0-.37-1.09 3.9 3.9 0 0 0-.88-1c-.35-.3-.76-.5-1.23-.64a4.27 4.27 0 0 0-1.63-.1l-2.4.24 5.2 8.64-1.36.14Zm9.63-1-4.37-7.27 1.26-.13.65 1.1h.1c-.07-.39.03-.7.3-.98.27-.26.65-.42 1.16-.48a17.2 17.2 0 0 1 .69-.05l.68 1.14a5.5 5.5 0 0 0-.83 0c-.41.05-.74.16-.97.34a.97.97 0 0 0-.4.69c-.02.27.06.57.26.9l2.76 4.6-1.3.13Zm5.74-.6-4.36-7.27 1.3-.14 4.36 7.26-1.3.14Zm-4.43-8.55c-.25.02-.51-.03-.78-.16s-.47-.3-.6-.5c-.12-.21-.14-.4-.05-.57.1-.16.27-.26.52-.3.25-.01.52.04.78.17.28.13.47.3.6.5.12.2.14.4.05.56-.1.17-.27.27-.52.3Zm8.1 8.15-4.36-7.26 1.25-.13.68 1.13h.1c0-.42.1-.75.3-1 .3-.26.7-.42 1.3-.48.57-.05 1.09 0 1.59.19.5.17.98.44 1.42.8h.1c-.02-.4.13-.73.43-1s.75-.43 1.35-.5c.75-.08 1.5.06 2.2.42a4.5 4.5 0 0 1 1.88 1.8l2.93 4.87-1.3.03-2.9-4.86c-.32-.53-.72-.9-1.2-1.1a2.86 2.86 0 0 0-1.41-.2c-.6.05-.96.26-1.1.6-.14.33-.07.73.2 1.19l2.84 4.74-1.31.13-3-4.97c-.24-.42-.6-.73-1.06-.95a2.65 2.65 0 0 0-1.43-.26c-.33.04-.6.15-.8.33a1 1 0 0 0-.31.72c0 .29.1.6.3.97l2.73 4.53-1.3.15Zm16-1.5a4.77 4.77 0 0 1-3.1-.76c-.46-.3-.83-.7-1.11-1.17-.25-.42-.36-.76-.32-1.04a1 1 0 0 1 .4-.7c.22-.18.5-.32.84-.44.35-.11.7-.21 1.06-.3l1.17-.26c.3-.06.5-.14.6-.23.1-.1.1-.22 0-.4l-.01-.04a2.68 2.68 0 0 0-1.1-1 2.76 2.76 0 0 0-1.57-.2c-.62.08-1.03.25-1.24.5-.21.29-.3.56-.3.84l-1.45-.25c-.04-.46.04-.84.26-1.12.22-.3.52-.5.9-.65a4.67 4.67 0 0 1 2.18-.3c.39.02.8.1 1.23.23a4.25 4.25 0 0 1 2.45 2.02l2.87 4.79-1.3.14-.58-.98h-.07c0 .18-.04.36-.13.57-.1.2-.28.38-.54.54-.27.16-.65.27-1.14.32Zm-.4-1.02c.5-.06.89-.2 1.14-.4.25-.2.38-.46.4-.75 0-.3-.07-.6-.25-.9l-.61-1.02c-.02.06-.11.13-.27.2l-.57.18a30.02 30.02 0 0 1-1.17.27c-.32.07-.6.17-.84.3a.9.9 0 0 0-.47.43c-.08.18-.03.42.14.7.23.4.57.66 1.03.83.45.16.93.2 1.45.16Zm6.52.2-4.36-7.27 1.27-.13.66 1.1h.1c-.07-.38.03-.7.3-.97s.65-.43 1.16-.48a16.75 16.75 0 0 1 .69-.05l.68 1.13a5.55 5.55 0 0 0-.84 0c-.4.05-.73.16-.96.35a.97.97 0 0 0-.4.68c-.02.27.06.58.26.9l2.77 4.6-1.4.13Zm8.48 2a3.58 3.58 0 0 1-1.03-.03l-.26-1.02c.36.03.65.03.88 0a.61.61 0 0 0 .48-.36c.1-.18.1-.47.1-.85l-.1-.6-7.5-6.97 1.4-.15 5.8 5.55.1-.01-1.17-6.03 1.4-.15 1.43 8.7c.06.4.05.72-.04 1s-.25.48-.5.63c-.24.15-.55.25-.94.3Zm4.83-13.7 1.62-.17 8.65 7.64.13-.01-1.01-8.44 1.62-.17 5.79 9.68-1.26.13-4.42-7.35h-.1l.9 7.73-1.3.13-7.94-6.98H215l4.41 7.36-1.28.14-5.8-9.7Zm23 8.04c-.8.1-1.6 0-2.38-.24a6.7 6.7 0 0 1-2.13-1.16 7.22 7.22 0 0 1-1.65-1.91 4.38 4.38 0 0 1-.71-2.02c-.03-.6.15-1.1.52-1.47a2.8 2.8 0 0 1 1.7-.7 5.37 5.37 0 0 1 2.96.55 7.02 7.02 0 0 1 2.85 2.7l.29.48-6.5.68-.58-.96 5.18-.55a3.97 3.97 0 0 0-2.2-1.74 3.3 3.3 0 0 0-1.4-.15c-.5.05-.9.21-1.13.47-.24.26-.35.57-.35.94s.14.76.38 1.16l.38.64c.35.55.74 1 1.19 1.36.45.36.93.61 1.45.77.5.15 1.03.2 1.55.15.24-.04.52-.1.75-.22.23-.12.4-.27.5-.46.1-.28.13-.53.09-.78l1.43.16c.09.38.06.73-.1 1.04-.13.3-.4.56-.75.76-.4.2-.86.33-1.43.4Zm4.67-8.37.57.94-4.3.46-.55-.94 4.36-.46Zm-4.14-1.42 1.3-.13 4.15 6.92c.2.31.39.55.59.7.2.13.4.22.6.26a2.2 2.2 0 0 0 .93-.04l.2-.06.86.98-.31.12a3.67 3.67 0 0 1-1.77.02c-.43-.1-.84-.28-1.24-.53s-.7-.6-.9-1.01l-4.33-7.23Zm10.45 8.47L242 323.7l1.25-.13.66 1.1.09-.01a1 1 0 0 1 .3-.96c.27-.27.66-.43 1.16-.48a12.56 12.56 0 0 1 .7-.05l.68 1.13a5.55 5.55 0 0 0-.84 0c-.4.05-.73.16-.96.35a.97.97 0 0 0-.4.68c-.03.28.06.58.25.9l2.77 4.6-1.3.13Zm5.75-.6-4.37-7.26 1.3-.25 4.36 7.26-1.38.14Zm-4.44-8.54c-.25.03-.5-.02-.78-.15-.27-.13-.47-.3-.6-.5-.12-.22-.13-.4-.04-.57.1-.27.26-.37.52-.38.25-.04.5 0 .78.14.27.14.47.3.6.5.12.23.13.4.04.58-.1.17-.26.26-.51.3Zm11.62 7.95c-.8.08-1.57 0-2.34-.27a7.3 7.3 0 0 1-3.74-3.07 4.34 4.34 0 0 1-.7-2c-.01-.6.17-1.1.55-1.48.37-.38.94-.6 1.7-.7a5.63 5.63 0 0 1 3.42.8c.5.3.94.69 1.28 1.13l-1.3.14a3.47 3.47 0 0 0-2.78-1.06c-.5.06-.87.22-1.12.48-.24.27-.34.6-.3 1.05.03.42.2.91.54 1.46a5.9 5.9 0 0 0 1.19 1.43c.46.4.94.69 1.46.88a3.4 3.4 0 0 0 1.54.2c.34-.03.62-.11.83-.24.2-.13.36-.3.43-.5.08-.22.08-.46 0-.73l1.3-.14a2 2 0 0 1 .15 1.22c-.08.37-.3.68-.65.93-.35.25-.83.4-1.45.47Zm7.7-6.96-1 .4a3.88 3.88 0 0 0-.62-.45 2.9 2.9 0 0 0-1.83-.4c-.51.06-.88.2-1.1.45-.22.23-.24.5-.05.82.17.28.42.49.75.62.33.14.77.23 1.34.29l1.4.13a5.8 5.8 0 0 1 2.12.55c.57.28 1 .68 1.3 1.18.25.42.34.8.26 1.16-.08.36-.3.66-.7.9-.37.24-.9.4-1.54.46a4.9 4.9 0 0 1-2.42-.2 4.4 4.4 0 0 1-1.92-1.3l1.07-.4a3.04 3.04 0 0 0 2.66 1c.6-.04 1-.2 1.24-.46.22-.26.24-.55.05-.86a1.57 1.57 0 0 0-.7-.6 3.5 3.5 0 0 0-1.16-.3l-1.58-.13a5.7 5.7 0 0 1-2.14-.56c-.56-.3-1-.7-1.3-1.2-.24-.4-.32-.78-.24-1.13.08-.34.3-.63.66-.85a4.67 4.67 0 0 1 3.68-.16c.66.26 1.25.64 1.76 1.14Zm322.37-27.62a5.1 5.1 0 0 1-2.46-.36 7.58 7.58 0 0 1-2.35-1.56 12.4 12.4 0 0 1-2.08-2.64 8.43 8.43 0 0 1-1.15-2.73c-.14-.78-.03-1.4.32-1.85.35-.45.93-.72 1.75-.8.82-.1 1.64.03 2.45.36.82.33 1.6.85 2.37 1.56.75.7 1.44 1.59 2.07 2.63a8.5 8.5 0 0 1 1.16 2.75c.14.77.03 1.38-.31 1.83-.35.45-.94.72-1.77.8Zm-.62-1.04c.82-.1 1.25-.5 1.3-1.22.04-.73-.32-1.73-1.07-3a11 11 0 0 0-1.6-2.1 6 6 0 0 0-1.7-1.25 3.1 3.1 0 0 0-1.67-.32c-.8.09-1.24.5-1.28 1.24-.04.73.3 1.73 1.07 2.99.49.83 1 1.54 1.57 2.1.56.57 1.12.98 1.69 1.25.57.26 1.13.37 1.67.3ZM599.9 292l-.3-.51a2.05 2.05 0 0 1-.34-1c0-.31.1-.57.32-.79a1.7 1.7 0 0 1 1.04-.39c.47-.05.92 0 1.35.14a3.66 3.66 0 0 1 1.99 1.58l.3.51c.22.35.33.69.34 1a1 1 0 0 1-.31.79c-.3.2-.6.34-1.1.39-.47.05-.92 0-1.36-.14a3.77 3.77 0 0 1-2-1.58Zm.8-.63.32.51c.19.3.42.55.72.76.3.22.65.3 1.04.26.39-.04.6-.18.6-.43a1.4 1.4 0 0 0-.22-.81l-.3-.51a2.6 2.6 0 0 0-.71-.76c-.3-.22-.64-.3-1.03-.27-.4.04-.6.19-.62.44-.03.25.05.52.22.81Zm-9.71-4.32-.31-.51a2.06 2.06 0 0 1-.33-1c0-.31.1-.58.32-.79a1.7 1.7 0 0 1 1.03-.4c.48-.04.93 0 1.36.15a3.62 3.62 0 0 1 1.99 1.58l.3.5c.2.36.32.7.33 1a1 1 0 0 1-.3.8c-.22.2-.56.33-1.03.38-.48.05-.93 0-1.36-.13a3.77 3.77 0 0 1-2-1.58Zm.8-.63.32.5c.17.3.4.56.7.77.3.22.66.3 1.05.26.39-.04.59-.18.6-.43.03-.25-.05-.52-.23-.81l-.3-.51a2.6 2.6 0 0 0-.7-.77c-.3-.21-.64-.3-1.04-.26-.38.04-.6.19-.62.44-.02.25.05.51.23.8Zm4.03 7.94 1.9-10.5 1.26-.13-1.9 10.5-1.26.13Zm123.3-14.87-3.75-6.24 1.22-.13 3.75 6.24-1.23.13Zm-4.57-2.28-.63-1.06 7.24-.76.63 1.06-7.24.76Zm11.93 3.31-.51-.85 1.6-3.89c.2-.45.33-.84.43-1.18a2.02 2.02 0 0 0-.2-1.8 2.7 2.7 0 0 0-.8-.85 3.41 3.41 0 0 0-2.34-.58c-.43.04-.76.16-1 .35a.93.93 0 0 0-.35.71c0 .3.1.63.33 1l-1.3.13a2.54 2.54 0 0 1-.44-1.54c.04-.46.26-.84.63-1.13.39-.3.9-.48 1.56-.55a5.14 5.14 0 0 1 1.97.18c.65.18 1.24.46 1.77.84.54.38.95.8 1.25 1.3a2.76 2.76 0 0 1 .32 2.28 12.6 12.6 0 0 1-.6 1.68l-1.13 2.6.05.07 5.22-.55.62 1.04-7.08.74Zm13.98-3.4-.3-.5a2.06 2.06 0 0 1-.33-1c0-.32.1-.58.32-.8a1.7 1.7 0 0 1 1.03-.39c.48-.05.93 0 1.36.15a3.62 3.62 0 0 1 1.98 1.57l.3.51c.22.36.33.69.34 1a1 1 0 0 1-.3.79c-.22.21-.56.34-1.03.4-.48.04-.93 0-1.36-.15a3.77 3.77 0 0 1-2-1.58Zm.82-.63.3.51c.18.3.42.55.72.77.3.21.65.3 1.04.26.38-.04.58-.19.6-.43.02-.25-.05-.53-.23-.82l-.3-.5a2.6 2.6 0 0 0-.7-.77 1.4 1.4 0 0 0-1-.26c-.32.04-.6.18-.6.43s.09.52.27.81Zm-9.74-4.32-.3-.5a2.06 2.06 0 0 1-.34-1c0-.32.1-.58.32-.8.23-.2.57-.34 1.04-.39.47-.05.92 0 1.36.14a3.65 3.65 0 0 1 1.98 1.58l.3.51c.22.35.33.7.34 1a1 1 0 0 1-.3.8c-.23.2-.57.33-1.04.38-.47.05-.92 0-1.36-.14a3.78 3.78 0 0 1-2-1.58Zm.8-.63.3.51c.2.3.43.55.74.77.3.2.64.3 1.04.25.38-.04.58-.18.6-.43a1.4 1.4 0 0 0-.23-.8l-.3-.52a2.6 2.6 0 0 0-.71-.76c-.3-.22-.64-.3-1.03-.26-.4.03-.6.18-.62.43-.03.25.05.52.22.81Zm4.04 7.94 1.9-10.5 1.25-.12-1.9 10.5-1.25.12Zm111.77-12.44-3.46.36-5.82-9.68 3.62-.38a7.9 7.9 0 0 1 5.92 1.76 9.31 9.31 0 0 1 2.18 2.51c.6 1.01.9 1.9.93 2.68.02.76-.25 1.38-.8 1.86-.58.47-1.43.77-2.57.9Zm-2.73-.82 2.02-.2c.93-.1 1.6-.35 2.03-.7.42-.39.62-.88.57-1.48a4.9 4.9 0 0 0-.77-2.09 7.77 7.77 0 0 0-1.66-1.97 6.07 6.07 0 0 0-4.58-1.4l-2.18.24 4.57 7.6Zm13.8-.19c-.8.1-1.6 0-2.37-.24a6.69 6.69 0 0 1-2.13-1.16 7.22 7.22 0 0 1-1.65-1.9 4.4 4.4 0 0 1-.71-2.03c-.02-.6.15-1.09.52-1.47.38-.38.95-.6 1.7-.69a5.38 5.38 0 0 1 2.96.54 6.53 6.53 0 0 1 2.85 2.72l.29.47-6.5.7-.58-.98 5.18-.54a3.98 3.98 0 0 0-2.2-1.74 3.3 3.3 0 0 0-1.4-.16c-.5.06-.9.21-1.13.47-.24.26-.35.57-.34.94.1.38.2.76.4 1.16l.4.64a4.41 4.41 0 0 0 2.6 2.13c.58.16 1.1.2 1.6.15.36-.03.65-.1.87-.22.23-.1.39-.25.5-.44.1-.2.12-.42.08-.69l1.43.18c.09.38.06.72-.1 1.03-.13.3-.4.56-.75.76a4 4 0 0 1-1.4.4Zm.86-10.54 5.8 9.68-1.28.14-5.82-9.68 1.3-.14Zm7.49 1.8.56.93-4.36.46-.57-.94 4.37-.46Zm-4.14-1.43 1.3-.13 4.15 6.92c.2.31.38.54.59.7.2.13.4.22.6.26a2.21 2.21 0 0 0 .93-.03l.2-.06.86.97a2.68 2.68 0 0 1-.9.23 3.95 3.95 0 0 1-2.43-.62c-.38-.24-.7-.58-.96-1l-4.34-7.23Zm13.03 8.38a4.77 4.77 0 0 1-3.1-.76c-.46-.3-.83-.7-1.12-1.17-.25-.4-.35-.76-.32-1.04a1 1 0 0 1 .4-.7c.22-.17.5-.32.85-.43a24.19 24.19 0 0 1 2.23-.56c.3-.07.5-.15.6-.23.1-.1.1-.23 0-.4l-.02-.05a2.67 2.67 0 0 0-1.1-1.03 2.75 2.75 0 0 0-1.56-.25c-.62.06-1.04.23-1.25.5-.2.27-.3.55-.3.82l-1.44-.25c-.05-.46.04-.83.25-1.12a2 2 0 0 1 .9-.64 4.62 4.62 0 0 1 2.19-.3 4.27 4.27 0 0 1 3.68 2.26l2.87 4.78-1.3.13-.6-.98h-.05c0 .17-.04.36-.14.56-.1.2-.28.38-.54.54-.26.16-.64.27-1.13.32Zm-.4-1.02c.5-.05.89-.19 1.13-.4.25-.2.38-.46.4-.75.02-.3-.07-.6-.25-.9l-.61-1.02c-.02.07-.11.13-.27.2a23.23 23.23 0 0 1-1.72.46c-.31.07-.6.16-.83.28a.9.9 0 0 0-.48.45c-.07.18-.03.41.14.7.23.38.58.66 1.03.82.45.16.94.21 1.45.16Zm15.48-2.67-.3-.5a2.05 2.05 0 0 1-.34-1c0-.32.1-.59.32-.8a1.7 1.7 0 0 1 1.03-.4c.48-.04.93 0 1.36.15a3.64 3.64 0 0 1 1.99 1.58l.3.5c.22.36.33.7.34 1a1 1 0 0 1-.31.8c-.22.2-.56.33-1.03.38-.47.05-.93 0-1.36-.13a3.78 3.78 0 0 1-2-1.58Zm.8-.63.32.5c.17.3.4.56.7.77.3.22.66.3 1.05.26.39-.04.59-.18.6-.43.03-.25-.05-.52-.23-.8l-.3-.52a2.6 2.6 0 0 0-.7-.76 1.5 1.5 0 0 0-1.04-.27c-.38.04-.6.2-.62.44-.02.25.05.52.23.8Zm-9.73-4.33-.3-.5a2.06 2.06 0 0 1-.33-1c0-.32.1-.58.32-.79a1.7 1.7 0 0 1 1.03-.4c.48-.04.93 0 1.36.15a3.6 3.6 0 0 1 1.98 1.57l.3.52a2 2 0 0 1 .34 1 1 1 0 0 1-.3.78c-.22.21-.56.34-1.03.4-.48.04-.93 0-1.36-.15a3.77 3.77 0 0 1-2-1.58Zm.82-.62.3.5c.18.3.42.55.72.77.3.21.64.3 1.04.26.38-.04.58-.19.6-.43.02-.25-.05-.52-.23-.82l-.3-.5a2.6 2.6 0 0 0-.7-.77c-.3-.22-.65-.3-1.04-.26-.4.04-.6.2-.62.44-.03.24.05.51.23.8Zm4.02 7.94 1.9-10.5 1.26-.13-1.9 10.5-1.26.13Z" fill="#AFB4BC"/>
      <path d="M163.109 351.761L903.782 273.913" stroke="#D4D7DC" stroke-width="1.0926" />
      <path d="M0-.55h276.26" stroke="#D4D7DC" stroke-width="1.09" transform="matrix(.51504 .85717 -.99452 .10453 386.45 328.44)"/>
      <path d="M0-.55h276.26" stroke="#D4D7DC" stroke-width="1.09" transform="matrix(.51504 .85717 -.99452 .10453 456.32 321.1)"/>
      <path d="M0-.55h276.26" stroke="#D4D7DC" stroke-width="1.09" transform="matrix(.51504 .85717 -.99452 .10453 526.2 313.75)"/>
      <path d="M0-.55h276.26" stroke="#959BA3" stroke-width="1.09" transform="matrix(.51504 .85717 -.99452 .10453 596.06 306.42)"/>
      <path d="M0-.55h276.26" stroke="#D4D7DC" stroke-width="1.09" transform="matrix(.51504 .85717 -.99452 .10453 665.91 299.07)"/>
      <path d="M0-.55h276.26" stroke="#D4D7DC" stroke-width="1.09" transform="matrix(.51504 .85717 -.99452 .10453 735.78 291.73)"/>
      <path d="M0-.55h276.26" stroke="#D4D7DC" stroke-width="1.09" transform="matrix(.51504 .85717 -.99452 .10453 805.65 284.38)"/>
    </g>

    
    <rect fill="url(#e)" width="155.88" height="16.27" rx="8.14" transform="matrix(.99452 -.10453 .51504 .85717 180.65 385.29)"/>
    <rect fill="#FFD7D3" width="79.03" height="19.78" x=".42" y=".21" stroke="#F44336" stroke-dasharray="3.33 3.33" stroke-width=".56" rx="9.89" transform="matrix(.99452 -.10453 .51504 .85717 453.23 354.85)"/>
    <rect fill="#EB7C73" width="50.22" height="20.34" rx="10.17" transform="matrix(.99452 -.10453 .51504 .85717 468.35 353.2)"/>
    <path d="M0-2.22h20.34" stroke="#1F2328" stroke-width="4.44" transform="matrix(.51504 .85717 -.99452 .10453 491.52 350.76)"/>
    <path d="m217.98 439.52-8.9-9.36 1.4-.14 7.08 7.64.1-.02-2.34-8.13 1.53-.16 7.14 7.63.1-.01-2.4-8.13 1.4-.15 2.74 10-1.4.15-7.12-7.45h-.1l2.17 7.98-1.4.15Zm15.28-1.44c-.81.08-1.6 0-2.38-.25a6.7 6.7 0 0 1-2.14-1.16 7.2 7.2 0 0 1-1.64-1.9 4.39 4.39 0 0 1-.7-2.02c-.04-.6.14-1.1.51-1.48.38-.38.95-.6 1.7-.69a5.33 5.33 0 0 1 3.07.55 6.1 6.1 0 0 1 1.51 1.02 7 7 0 0 1 1.35 1.68l.28.48-6.49.68-.57-.97 5.18-.54a3.92 3.92 0 0 0-2.2-1.74c-.47-.15-.93-.2-1.4-.16-.5.06-.9.22-1.15.48-.24.25-.36.57-.35.94.01.37.14.75.38 1.15l.4.65a4.49 4.49 0 0 0 2.6 2.12c.53.16 1.05.2 1.57.15.35-.03.63-.1.86-.22.22-.11.4-.26.5-.45.1-.2.12-.42.07-.68l1.45.17c.08.27.06.62-.09.92-.15.32-.4.57-.76.78-.38.2-.85.34-1.4.4Zm9-.95c-.82.09-1.61 0-2.39-.24a6.69 6.69 0 0 1-2.14-1.16 7.18 7.18 0 0 1-1.64-1.91 4.4 4.4 0 0 1-.72-2.02c-.02-.6.16-1.1.53-1.47a2.8 2.8 0 0 1 1.7-.7 5.38 5.38 0 0 1 2.96.55 7.05 7.05 0 0 1 2.85 2.7l.28.48-6.5.68-.57-.96 5.18-.54a3.92 3.92 0 0 0-2.2-1.75 3.3 3.3 0 0 0-1.39-.15c-.52.06-.9.21-1.14.47-.24.26-.36.57-.35.94 0 .37.13.76.38 1.16l.38.64c.33.55.72 1 1.17 1.36.45.36.93.61 1.45.77.5.15 1.03.2 1.55.15.34-.04.62-.11.85-.22.22-.1.4-.2.5-.4.1-.2.12-.4.07-.7l1.44.2c.08.4.06.76-.09 1.07-.14.3-.4.56-.76.76a4 4 0 0 1-1.4.4Zm4.97-3.5-.85-1.38.27-.02 1.74-3.62 1.5-.17-1.87 3.83-.1.01-.78 1.35Zm.39 2.78-5.82-9.6 1.3-.12 5.81 9.67-1.3.14Zm5.35-.5-5.45-3.21.46-.88 6.64 3.95-1.65.17Zm-1.47-10.1 5.8 9.68-1.3.13-5.8-9.68 1.3-.12Zm10.65 12.06a3.58 3.58 0 0 1-1.02-.03l-.26-1.02c.36.04.65.03.88 0 .23-.05.39-.17.47-.36.1-.17.1-.45.04-.84l-.1-.6-7.5-6.96 1.4-.15 5.8 5.52h.1l-1.15-6.05 1.4-.15 1.42 8.7c.07.4.05.72-.04 1-.08.27-.25.48-.5.63-.23.15-.55.25-.94.3Zm10.65-4-5.82-9.7 3.8-.41a6.7 6.7 0 0 1 2.4.17 5.3 5.3 0 0 1 3.2 2.4 3 3 0 0 1 .5 1.56c0 .47-.2.86-.62 1.17-.4.3-1.05.5-1.91.6l-3.08.3-.63-1.05 3.03-.32a2.9 2.9 0 0 0 1.3-.38c.28-.19.42-.43.42-.72a3.6 3.6 0 0 0-.46-1.03 3.65 3.65 0 0 0-.85-1 3.17 3.17 0 0 0-1.2-.59 4.5 4.5 0 0 0-1.61-.09l-2.4.25 5.18 8.65-1.36.14Zm2.67-4.91 5.38 4.06-1.58.17-5.33-4.07 1.53-.17Zm10.57 3.68a6 6 0 0 1-2.38-.24 6.7 6.7 0 0 1-2.14-1.17 7.2 7.2 0 0 1-1.65-1.9 4.4 4.4 0 0 1-.7-2.02c-.03-.6.14-1.1.52-1.47.38-.37.94-.6 1.7-.7a5.38 5.38 0 0 1 2.96.56 6.1 6.1 0 0 1 1.5 1.02c.5.45.94 1 1.35 1.69l.28.47-6.5.68-.57-.96 5.17-.56a3.92 3.92 0 0 0-2.2-1.74 3.3 3.3 0 0 0-1.38-.15c-.52.04-.9.2-1.14.46-.25.27-.36.58-.35.95 0 .37.13.76.37 1.16l.39.64c.33.55.72 1 1.17 1.36a3.94 3.94 0 0 0 3 .92c.33-.05.62-.1.84-.23a1 1 0 0 0 .5-.45c.1-.19.12-.42.08-.68l1.43.17c.09.37.06.72-.08 1.03-.15.3-.4.56-.77.76-.37.2-.83.33-1.4.4Zm4.66-8.37.57.94-4.36.46-.5-.93 4.39-.46Zm-4.13-1.42 1.29-.13 4.16 6.92c.2.3.38.54.58.7.2.13.4.22.6.26a2.25 2.25 0 0 0 .94-.04l.2-.06.86.98-.32.1a3.67 3.67 0 0 1-1.77.03 4.31 4.31 0 0 1-1.23-.54c-.4-.25-.72-.6-.98-1.01l-4.33-7.23Zm13.98 8.26c-.82.09-1.6 0-2.38-.24a6.7 6.7 0 0 1-2.14-1.16 7.22 7.22 0 0 1-1.65-1.9 4.39 4.39 0 0 1-.7-2.01c-.03-.6.14-1.1.52-1.48.38-.38.94-.6 1.7-.7a5.37 5.37 0 0 1 2.96.55 6.79 6.79 0 0 1 2.84 2.7l.29.47-6.5.69-.57-.97 5.17-.54a3.92 3.92 0 0 0-2.2-1.74c-.5-.15-1-.2-1.4-.15a2 2 0 0 0-1.2.48c-.27.23-.38.54-.37.92 0 .37.13.75.37 1.15l.4.65a4.41 4.41 0 0 0 2.61 2.1 4 4 0 0 0 1.54.15c.33-.03.62-.1.84-.22a1 1 0 0 0 .5-.44c.1-.2.12-.42.08-.68l1.43.17c.1.38.06.72-.08 1.03-.15.3-.4.58-.77.78-.37.2-.83.33-1.4.4Zm4.03-5.23 2.63 4.37-1.3.14-4.3-7.26 1.29-.14.67 1.13h.1c-.03-.4.09-.73.36-1 .26-.26.71-.43 1.35-.5a4.38 4.38 0 0 1 3.22.95c.47.38.9.88 1.27 1.5l2.8 4.6-1.3.13-2.73-4.53a3.3 3.3 0 0 0-1.31-1.3c-.53-.27-1.1-.4-1.7-.32a1.8 1.8 0 0 0-.98.35.96.96 0 0 0-.35.76c0 .3.12.68.37 1.1Zm9.67-4.1.57.96-4.37.46-.57-.94 4.37-.46Zm-4.14-1.4 1.3-.14 4.15 6.92c.2.3.39.54.59.69.2.14.4.23.6.26a2.2 2.2 0 0 0 .93-.03l.2-.06.86.97-.31.1a3.64 3.64 0 0 1-1.77.03c-.43-.1-.84-.26-1.24-.51-.4-.27-.72-.61-.97-1.03l-4.34-7.22Zm10.45 8.47-4.37-7.26 1.3-.14 4.36 7.26-1.3.14Zm-4.43-8.54c-.26.03-.52-.02-.8-.15a1.54 1.54 0 0 1-.58-.51c-.13-.24-.14-.42-.05-.6.1-.16.26-.26.52-.3.25-.01.5.04.78.17.27.12.47.29.6.49.12.2.13.4.04.57-.09.18-.26.27-.51.3Zm11.6 7.95c-.75.08-1.52 0-2.28-.26a6.86 6.86 0 0 1-3.78-3.1 4.34 4.34 0 0 1-.7-2.02 1.8 1.8 0 0 1 .54-1.45c.38-.37.95-.6 1.72-.68a5.2 5.2 0 0 1 2.27.26 7.21 7.21 0 0 1 3.8 3.1c.45.75.7 1.42.7 2.02a1.8 1.8 0 0 1-.55 1.46c-.38.37-.95.6-1.7.68Zm-.6-1c.58-.07.98-.24 1.2-.54.22-.28.3-.65.22-1.08-.07-.44-.25-.9-.54-1.38a6.1 6.1 0 0 0-1.08-1.33 4.9 4.9 0 0 0-1.44-.94 3.35 3.35 0 0 0-1.66-.23c-.58.06-.98.24-1.2.54-.21.3-.28.67-.21 1.1.07.43.25.89.54 1.38.3.48.66.92 1.1 1.32.41.4.9.7 1.42.92.52.22 1.08.3 1.65.23Zm4.98-4.27 2.62 4.36-1.3.14-4.35-7.25 1.25-.14.68 1.13.1-.01c-.02-.4.1-.72.37-1s.72-.42 1.36-.5a4.38 4.38 0 0 1 3.22.96c.48.38.9.87 1.28 1.5l2.77 4.6-1.2.14-2.73-4.53c-.34-.58-.77-1.01-1.31-1.3s-1.1-.4-1.7-.33a1.8 1.8 0 0 0-.98.35.96.96 0 0 0-.35.74c0 .32.12.69.37 1.1Z" fill="#414141" opacity=".5"/>
    <rect fill="#CBF0D3" width="161.43" height="19.78" x=".42" y=".21" stroke="#5AC16F" stroke-dasharray="3.33 3.33" stroke-width=".56" rx="9.89" transform="matrix(.99452 -.10453 .51504 .85717 672.18 377.16)"/>
    <rect fill="#5AC16F" width="105.18" height="20.34" rx="10.17" transform="matrix(.99452 -.10453 .51504 .85717 700.77 374.1)"/>
    <path d="M0-2.22h20.34" stroke="#1F2328" stroke-width="4.44" transform="matrix(.51504 .85717 -.99452 .10453 750.48 368.87)"/>
    <rect fill="url(#f)" width="104.61" height="16.27" rx="8.14" transform="matrix(.99452 -.10453 .51504 .85717 235.35 472)"/>
    <rect fill="#F1F3F5" width="127.77" height="19.78" x=".42" y=".21" stroke="#C5C8CF" stroke-dasharray="3.33 3.33" stroke-width=".56" rx="9.89" transform="matrix(.99452 -.10453 .51504 .85717 571.34 435.65)"/>
    <rect fill="#C5C8CF" width="74.5" height="20.34" rx="10.17" transform="matrix(.99452 -.10453 .51504 .85717 598.2 432.76)"/>
    <path d="M0-2.22h20.34" stroke="#1F2328" stroke-width="4.44" transform="matrix(.51504 .85717 -.99452 .10453 633.6 429.04)"/>
    <rect fill="url(#g)" width="139" height="16.27" rx="8.14" transform="matrix(.99452 -.10453 .51504 .85717 262.12 512.07)"/>
    <rect fill="#F1F3F5" width="177.9" height="19.78" x=".42" y=".21" stroke="#C5C8CF" stroke-dasharray="3.33 3.33" stroke-width=".56" rx="9.89" transform="matrix(.99452 -.10453 .51504 .85717 627.05 473.92)"/>
    <rect fill="#C5C8CF" width="103.6" height="20.34" rx="10.17" transform="matrix(.99452 -.10453 .51504 .85717 664.38 469.93)"/>
    <path d="M0-2.22h20.34" stroke="#1F2328" stroke-width="4.44" transform="matrix(.51504 .85717 -.99452 .10453 713.6 464.76)"/>
  </g>
  
  <g id="plate-1" opacity="0" filter="url(#blur2)" class="plate-1">
    <style>
      .plate-1 {
        animation: 1.25s cubic-bezier(0.39, 0.83, 0.34, 0.85) 1s 1 forwards plate-1;
      }

      @keyframes plate-1 {
        0% {
          opacity: 0;
          transform: translate(100px, -100px);
          filter: blur(5px);
        }
        100% {
          opacity: 1;
          transform: translate(0, 0);
          filter: blur(0);
        }
      }
    </style>
    <rect fill="url(#h)" width="42.87" height="20.34" rx="10.17" transform="matrix(.99452 -.10453 .51504 .85717 866.23 309.76)"/>
    <rect fill="url(#i)" width="42.87" height="16.27" rx="8.14" transform="matrix(.99452 -.10453 .51504 .85717 895.85 354.22)"/>
    <rect fill="url(#j)" width="42.87" height="16.27" rx="8.14" transform="matrix(.99452 -.10453 .51504 .85717 922.34 398.17)"/>
    <rect fill="url(#k)" width="42.87" height="16.27" rx="8.14" transform="matrix(.99452 -.10453 .51504 .85717 949.1 440.24)"/>
    
    <path d="M622.24 439.95c-13.95 1.46-31.1-7.1-38.33-19.11L390.38 98.75c-7.22-12.01-1.77-22.94 12.18-24.41L1028.9 8.5c13.94-1.47 31.1 7.09 38.32 19.1l193.53 322.1c7.22 12.01 1.77 22.94-12.18 24.4l-626.33 65.85Z" fill="url(#l)" filter="url(#m)"/>
    <path d="m466.64 173.49 1.65-.18 8.8 7.78.03-.02-1.02-8.6 1.64-.16 5.92 9.85-1.3.14-4.5-7.5-.1.02.93 7.87-1.25.13-8.07-7.11-.12.1 4.5 7.5-1.3.12-5.91-9.85Zm23.42 8.18a6 6 0 0 1-2.42-.25 6.81 6.81 0 0 1-2.18-1.18 7.35 7.35 0 0 1-1.68-1.95 4.46 4.46 0 0 1-.72-2.1c-.02-.6.15-1.1.54-1.5.38-.4.96-.67 1.73-.7a5.44 5.44 0 0 1 3 .5c.54.25 1.05.6 1.54 1.05.5.45.95 1.02 1.37 1.7l.29.5-6.6.7-.6-1 5.27-.55a4.06 4.06 0 0 0-2.24-1.78c-.47-.15-.94-.2-1.41-.15-.53.05-.91.21-1.16.48a1.3 1.3 0 0 0-.36.96c0 .37.14.77.38 1.17l.4.67a5 5 0 0 0 1.18 1.38 4.31 4.31 0 0 0 3.06.94c.34-.03.63-.11.86-.22.23-.12.4-.28.5-.47.1-.21.13-.44.09-.71l1.46.18c.08.4.06.72-.1 1.03-.14.3-.4.57-.77.78-.37.2-.85.33-1.43.4Zm4.75-8.53.58.97-4.44.57-.58-.96 4.44-.45Zm-4.21-1.44 1.32-.13 4.23 7.04c.2.43.4.67.6.82.2.13.4.22.61.26a2.29 2.29 0 0 0 .94-.04l.2-.06.9 1-.33.12a3.72 3.72 0 0 1-1.8.02 4 4 0 0 1-1.26-.54 3.1 3.1 0 0 1-1-1.03l-4.4-7.35Zm10.64 8.63-4.45-7.4 1.28-.13.67 1.12h.09c-.07-.39.04-.72.31-.99a1.9 1.9 0 0 1 1.18-.49 16.18 16.18 0 0 1 .7-.05l.7 1.15a5.76 5.76 0 0 0-.85.01 1.9 1.9 0 0 0-.98.34 1 1 0 0 0-.4.62c-.03.26.05.57.25.9l2.8 4.68-1.3.14Zm5.85-.62-4.5-7.4 1.3-.13 4.41 7.4-1.3.13Zm-4.6-8.7c-.27.03-.54-.02-.8-.15-.29-.13-.49-.3-.6-.51-.13-.22-.15-.4-.06-.58.1-.17.27-.27.53-.3.27-.02.53.03.8.16.28.14.48.3.6.52.14.21.15.4.06.57-.1.17-.28.27-.54.3Zm11.8 8.1c-.8.2-1.6.1-2.37-.16a7.4 7.4 0 0 1-3.8-3.14 4.4 4.4 0 0 1-.72-2.05c-.01-.6.17-1.1.55-1.5.4-.39.97-.62 1.74-.7a5.77 5.77 0 0 1 3.48.8c.52.3.95.7 1.3 1.14l-1.3.14c-.3-.32-.72-.59-1.22-.8a3.08 3.08 0 0 0-1.62-.26c-.5.05-.9.21-1.14.48-.24.27-.35.63-.3 1.07.03.44.22.94.55 1.51a6 6 0 0 0 1.2 1.46c.48.4.97.7 1.5.9.53.2 1.05.25 1.57.2.35-.02.63-.1.84-.23a1 1 0 0 0 .45-.53c.07-.2.07-.46 0-.74l1.3-.13a2 2 0 0 1 .17 1.24c-.1.38-.3.7-.66.95a3.2 3.2 0 0 1-1.5.48Zm7.84-6.98-1 .41a3.87 3.87 0 0 0-.64-.46 2.94 2.94 0 0 0-1.86-.4c-.52.07-.9.2-1.12.46-.23.24-.24.52-.05.84.17.27.42.5.76.62.33.14.8.24 1.36.3l1.44.11a6 6 0 0 1 2.15.56c.58.28 1.03.7 1.34 1.2.25.43.34.82.25 1.18-.07.37-.3.67-.7.92-.37.24-.89.4-1.56.47-.88.1-1.7 0-2.47-.26a4.48 4.48 0 0 1-1.95-1.32l1.12-.4a3.08 3.08 0 0 0 2.7.98c.61-.06 1.03-.23 1.25-.5.23-.26.25-.55.06-.87a1.62 1.62 0 0 0-.7-.6 3.38 3.38 0 0 0-1.2-.3l-1.6-.14a5.83 5.83 0 0 1-2.18-.57c-.57-.3-1-.7-1.32-1.22-.25-.42-.33-.8-.25-1.15.08-.35.3-.64.67-.88a4.76 4.76 0 0 1 3.74-.17c.68.27 1.28.66 1.8 1.16Zm-4.46 86.51-5.92-9.86 6.86-.75.64 1.05-5.47.58 2 3.33 4.96-.52.62 1.06-4.96.52 2.65 4.4-1.38.16Zm9.06-.96-4.44-7.4 1.3-.16 4.47 7.4-1.32.13Zm-4.51-8.7a1.5 1.5 0 0 1-.8-.18c-.28-.13-.48-.3-.6-.52-.13-.18-.15-.38-.06-.55.1-.17.25-.27.51-.3.26-.02.52.03.8.16.28.14.48.3.6.52.14.21.15.4.06.57-.1.17-.27.27-.52.3Zm3.63-1.7 5.93 9.84-1.32.14-5.92-9.86 1.3-.14Zm7.63 1.8.58.97-4.45.46-.58-.96 4.45-.47Zm-4.21-1.44 1.3-.14 4.26 7.05c.2.32.39.56.6.7.2.16.4.25.6.3a2.29 2.29 0 0 0 .95-.05l.2-.06.88 1-.32.13a3.7 3.7 0 0 1-1.8.02 4 4 0 0 1-1.26-.55c-.4-.26-.73-.6-1-1.03l-4.4-7.36Zm14.23 8.41a6 6 0 0 1-2.42-.24 6.81 6.81 0 0 1-2.18-1.19 7.31 7.31 0 0 1-1.68-1.94 4.47 4.47 0 0 1-.75-2.05c-.03-.62.15-1.12.54-1.5.38-.39.96-.63 1.73-.7a5.48 5.48 0 0 1 3 .54c.54.25 1.05.6 1.54 1.04.5.45.96 1.02 1.37 1.71l.3.48-6.62.7-.6-.98 5.28-.58a4.05 4.05 0 0 0-2.24-1.77c-.47-.16-.94-.2-1.41-.16-.53.04-.92.2-1.16.46a1.3 1.3 0 0 0-.37.96c0 .38.14.77.38 1.18l.4.66c.34.55.74 1.02 1.19 1.38.45.36.94.62 1.47.78.51.16 1.03.2 1.57.15.34-.03.63-.1.86-.22.23-.12.4-.27.5-.46.1-.2.13-.43.1-.7l1.45.18c.1.38.04.73-.1 1.05-.15.31-.4.57-.78.78-.37.2-.85.33-1.43.4Zm5.46-.74-4.44-7.39 1.27-.14.68 1.12h.09c-.07-.4.04-.73.3-1a1.9 1.9 0 0 1 1.19-.5 17.2 17.2 0 0 1 .7-.05l.7 1.16a4.93 4.93 0 0 0-.86 0c-.42.05-.75.17-1 .35a1 1 0 0 0-.4.7c-.01.28.07.58.27.92l2.8 4.68-1.31.13Zm-5.53 32.27a6.93 6.93 0 0 0-2.12-1.4 5.1 5.1 0 0 0-2.4-.35 2.6 2.6 0 0 0-1.58.65 1.9 1.9 0 0 0-.52 1.48c.02.62.3 1.36.8 2.21a7.88 7.88 0 0 0 1.8 2.12c.69.55 1.4.95 2.15 1.2.75.23 1.47.32 2.18.24a2.78 2.78 0 0 0 1.52-.54c.35-.3.54-.68.55-1.15a3.04 3.04 0 0 0-.52-1.62l.47.04-3.46.37-.64-1.06 4.36-.45.63 1.06c.5.8.72 1.53.67 2.18-.03.64-.3 1.16-.81 1.57-.5.4-1.21.64-2.12.74-1.01.1-2.02 0-3.04-.34a8.9 8.9 0 0 1-2.84-1.56 9.91 9.91 0 0 1-2.25-2.63 6.94 6.94 0 0 1-.9-2.14c-.13-.66-.1-1.23.07-1.7.19-.5.5-.89.98-1.19.47-.3 1.08-.5 1.8-.57a7.82 7.82 0 0 1 5.27 1.48c.52.36.97.78 1.36 1.25l-1.43.14Zm7.76 6.4-4.44-7.39 1.27-.13.67 1.11h.1c-.06-.39.04-.7.3-.99a1.9 1.9 0 0 1 1.2-.48 17.83 17.83 0 0 1 .7-.06l.7 1.16a6.8 6.8 0 0 0-.86 0c-.41.05-.74.16-.98.35a.99.99 0 0 0-.4.7c-.03.28.06.58.26.92l2.8 4.67-1.31.13Zm9.17-.79a5.5 5.5 0 0 1-2.32-.26 7.31 7.31 0 0 1-3.83-3.14 4.43 4.43 0 0 1-.72-2.07c-.02-.6.17-1.1.56-1.48a3 3 0 0 1 1.77-.69c.77-.08 1.54 0 2.32.26a7.35 7.35 0 0 1 3.87 3.16c.45.78.7 1.46.7 2.07.03.6-.16 1.1-.55 1.47-.4.38-.98.61-1.75.7Zm-.61-1.02c.58-.06.99-.24 1.2-.54.24-.3.3-.67.24-1.1a4.02 4.02 0 0 0-.55-1.4 6.2 6.2 0 0 0-1.1-1.38c-.45-.4-.93-.72-1.47-.95a3.4 3.4 0 0 0-1.7-.24c-.6.06-1 .25-1.21.55-.21.3-.3.68-.21 1.12.08.45.26.92.56 1.41.3.5.66.94 1.1 1.34.44.4.92.72 1.46.94.54.22 1.1.3 1.69.23Zm10-3.34-2.62-4.37 1.32-.13 4.44 7.4-1.32.13-.74-1.25h-.1c.03.4-.1.76-.35 1.07-.27.3-.73.5-1.38.56-.53.05-1.07 0-1.6-.16a4.6 4.6 0 0 1-1.55-.82c-.5-.39-.93-.9-1.3-1.52l-2.83-4.7 1.32-.14 2.78 4.62c.32.54.75.95 1.3 1.23.54.3 1.1.4 1.64.34.32-.03.62-.14.87-.32s.4-.43.46-.75c.05-.33-.06-.72-.34-1.18Zm7.22 5.4-6.11-10.16 1.27-.14.7 1.18.16-.02c0-.14.05-.3.1-.53.06-.22.2-.43.43-.62.23-.19.62-.3 1.18-.37.73-.08 1.46.01 2.2.27a6.9 6.9 0 0 1 2.09 1.18c.65.54 1.2 1.2 1.68 1.98.48.74.73 1.44.76 2.04.04.6-.12 1.1-.48 1.46-.36.38-.9.61-1.61.68a3.83 3.83 0 0 1-2.56-.57c-.3-.19-.55-.34-.73-.47l-.11.02 2.35 3.91-1.33.14Zm-2.6-6.6a6.4 6.4 0 0 0 1.18 1.45c.45.4.93.7 1.44.9.5.2 1.03.27 1.55.22.55-.07.94-.24 1.16-.53.23-.3.3-.67.23-1.1a4.11 4.11 0 0 0-.57-1.48 6.13 6.13 0 0 0-1.13-1.38c-.43-.4-.9-.7-1.43-.9a3.32 3.32 0 0 0-1.61-.23c-.54.05-.92.22-1.14.5-.23.26-.3.6-.24 1.05.06.42.25.92.59 1.47Zm15.12 2.34-5.93-9.85 4-.41c.8-.08 1.53-.03 2.19.15a5.1 5.1 0 0 1 1.71.83c.5.38.88.8 1.17 1.28.3.44.4.79.4 1.09 0 .3-.1.53-.29.72-.2.2-.43.35-.7.46l.06.1c.38-.01.79.05 1.26.2a4.65 4.65 0 0 1 2.53 2.03c.3.49.44.95.42 1.37-.03.42-.25.78-.68 1.07a4.2 4.2 0 0 1-1.98.58l-4.13.44Zm.75-1.19 2.74-.3c.9-.1 1.46-.3 1.66-.64.2-.34.2-.73-.06-1.17a3 3 0 0 0-.85-.9 3.99 3.99 0 0 0-2.71-.7l-2.81.3 2.05 3.42Zm-2.7-4.47 2.59-.27c.42-.05.75-.16 1-.33a1 1 0 0 0 .45-.68c.04-.28-.04-.6-.25-.94a2.79 2.79 0 0 0-1.18-1.05 3.45 3.45 0 0 0-1.94-.28l-2.62.27 1.97 3.27Zm14.5 7.3a3.6 3.6 0 0 1-1.02-.04l-.27-1.03c.36.03.66.03.9-.02.26-.04.4-.16.5-.35.1-.2.1-.48.05-.87l-.1-.6-7.63-7.1 1.43-.15 5.9 5.64h.1l-1.17-6.15 1.43-.16 1.45 8.86c.06.4.05.73-.04 1-.1.3-.26.5-.5.66-.25.16-.57.25-.97.3Z" fill="#727882"/>
    <path d="M481.87 200.84c-1.25-2.08-.31-3.97 2.1-4.22l205.77-21.84a7.51 7.51 0 0 1 6.64 3.3l12.36 20.58c1.25 2.08.3 3.97-2.1 4.22l-205.77 21.84a7.52 7.52 0 0 1-6.64-3.3l-12.36-20.58Z" stroke="#DFE1E5" stroke-width=".59"/>
    
    <path d="M670.85 157.64L682.71 156.4" stroke="#727882" stroke-width="1.75" />
    <path d="M673.71 151.91L679.85 162.13" stroke="#727882" stroke-width="1.75" />
    <path d="M716.04 232.85L727.9 231.6" stroke="#727882" stroke-width="1.75" />
    <path d="M718.9 227.11L725.04 237.33" stroke="#727882" stroke-width="1.75" />
    <path d="M738.05 269.41L749.91 268.16" stroke="#727882" stroke-width="1.75" />
    <path d="M740.90 263.67L747.04 273.90" stroke="#727882" stroke-width="1.75" />

    <circle fill="#E2E6ED" cx="7.73" cy="7.73" r="7.73" transform="matrix(.99452 -.10453 .51504 .85717 493.33 203.46)"/>
    <path d="m505.02 212.3-1.73.18-1.32-6.87 2.08-.1 6.6 6.3-1.73.2-4.97-4.9h-.06l1.13 5.3Zm-1.66-2.58 4.09-.43.65 1.09-4.1.43-.64-1.1Z" fill="#535963"/>
    <path d="M524.55 210.63a3.65 3.65 0 0 1-2.37-.58 2.8 2.8 0 0 1-.85-.9c-.2-.3-.27-.57-.25-.8a.82.82 0 0 1 .3-.52c.18-.14.4-.25.66-.33.26-.1.53-.17.8-.23l.9-.2c.23-.05.38-.1.46-.18.08-.06.08-.17 0-.3l-.02-.03a2 2 0 0 0-.83-.8 2.1 2.1 0 0 0-1.2-.2c-.47.06-.8.19-.95.4a.93.93 0 0 0-.22.63l-1.11-.2c-.04-.46.03-.74.2-.96.16-.21.39-.37.68-.5a3.55 3.55 0 0 1 1.67-.21 3.61 3.61 0 0 1 1.92.7c.32.24.62.58.88 1.02l2.2 3.65-1 .1-.44-.74h-.05a.9.9 0 0 1-.1.42c-.08.16-.22.3-.42.42-.2.13-.5.2-.86.25Zm-.3-.78c.38-.04.67-.14.86-.3.19-.16.3-.35.3-.58.02-.22-.05-.45-.18-.68l-.47-.78c-.02.05-.09.1-.2.15a23.44 23.44 0 0 1-1.31.35 3.3 3.3 0 0 0-.65.2c-.18.2-.3.3-.36.4-.06.19-.02.3.1.58.18.3.44.5.79.63.35.12.72.16 1.11.12Zm7.47.01a3.75 3.75 0 0 1-1.63-.2 5.5 5.5 0 0 1-2.82-2.38 3.5 3.5 0 0 1-.57-1.56c-.02-.45.1-.81.37-1.1.27-.27.68-.43 1.22-.5a2.8 2.8 0 0 1 1.1.09c.3.09.5.2.8.34l.43.34.09-.1-1.65-2.74 1-.1 4.43 7.4-.95.1-.51-.87h-.1l-.1.43a.92.92 0 0 1-.32.48c-.18.15-.48.24-.9.28Zm-.32-.78c.4-.04.67-.16.84-.37.17-.2.22-.48.18-.81a4.66 4.66 0 0 0-1.32-2.2c-.33-.3-.68-.52-1.06-.66-.38-.15-.77-.2-1.17-.16-.42.05-.71.18-.88.4-.16.2-.22.47-.17.8.05.33.19.69.42 1.08.24.4.53.75.86 1.05.33.3.7.54 1.09.7.39.16.8.22 1.2.17Zm7.65 0a3.75 3.75 0 0 1-1.63-.2 5.33 5.33 0 0 1-2.83-2.4 3.5 3.5 0 0 1-.56-1.53c-.03-.46.1-.82.37-1.1.27-.28.68-.44 1.22-.5a2.8 2.8 0 0 1 1.1.08c.32.09.58.2.8.34l.53.34.1-.01-1.65-2.73.98-.1 4.45 7.4-.96.1-.5-.86h-.13c0 .12-.04.26-.08.42a.93.93 0 0 1-.33.47c-.17.15-.47.24-.88.28Zm-.33-.77c.4-.04.68-.16.85-.37.16-.2.22-.48.17-.81-.05-.34-.2-.71-.45-1.13a4.66 4.66 0 0 0-.86-1.07c-.33-.3-.68-.52-1.06-.66-.38-.15-.77-.2-1.17-.16-.42.05-.72.18-.88.4-.17.2-.23.47-.18.8.05.33.2.69.43 1.08.24.3.52.7.85 1 .34.3.7.5 1.1.7.38.12.79.2 1.2.13Zm10-.35.47.79-5.36.56-.48-.8 5.37-.55Zm.36-5.94.43.72-3.34.35-.43-.72 3.34-.35Zm-3.17-1.08 1-.1 3.17 5.28c.14.24.3.42.45.53.15.1.3.18.46.2a1.7 1.7 0 0 0 .7-.02l.16-.05.66.75-.25.1a2.82 2.82 0 0 1-1.35 0 3 3 0 0 1-.94-.4 2.4 2.4 0 0 1-.74-.77l-3.32-5.52Zm10.6 6.32c-.58.06-1.16 0-1.75-.2a5.22 5.22 0 0 1-2.88-2.35 3.32 3.32 0 0 1-.55-1.56c-.01-.45.13-.82.42-1.1.3-.3.73-.46 1.31-.52a4 4 0 0 1 1.74.2 5.5 5.5 0 0 1 2.9 2.37c.35.57.53 1.08.54 1.53 0 .46-.13.83-.42 1.1-.3.29-.73.47-1.31.53Zm-.46-.77c.44-.04.74-.18.91-.4.17-.23.22-.5.17-.84a3 3 0 0 0-.41-1.05c-.23-.37-.5-.71-.83-1.02-.33-.3-.7-.54-1.1-.7-.4-.17-.83-.23-1.27-.2-.44.06-.74.2-.9.42-.17.23-.23.5-.17.84.05.34.19.7.4 1.06a4.7 4.7 0 0 0 1.94 1.73c.3.16.8.22 1.2.17Zm9.25-.28.48.8-5.36.56-.48-.8 5.36-.56Zm3.58-.25c-.6.06-1.2 0-1.78-.2a5.58 5.58 0 0 1-2.85-2.35 3.3 3.3 0 0 1-.54-1.53c-.02-.46.12-.84.4-1.12.3-.3.73-.47 1.3-.53a4.04 4.04 0 0 1 2.62.6c.38.23.7.52.97.86h-.99a2.73 2.73 0 0 0-.9-.61 2.3 2.3 0 0 0-1.22-.2c-.38.05-.67.17-.86.38a1 1 0 0 0-.23.8c.02.32.16.7.42 1.1a4.08 4.08 0 0 0 2.02 1.78c.4.14.79.2 1.18.15.25-.02.46-.1.63-.2.16-.1.27-.21.33-.37a.87.87 0 0 0 0-.55l.99-.1c.14.32.17.63.1.92-.05.27-.21.5-.5.7-.25.19-.62.3-1.1.36Zm5.87-.6a3.63 3.63 0 0 1-2.37-.58 2.8 2.8 0 0 1-.85-.9c-.19-.31-.27-.58-.24-.8.02-.2.12-.38.3-.52.17-.14.4-.25.65-.34.26-.1.53-.17.8-.23l.9-.2c.23-.16.39-.22.47-.28.08-.06.08-.16 0-.3l-.02-.03c-.22-.36-.5-.62-.84-.8a2.1 2.1 0 0 0-1.2-.18c-.47.06-.78.18-.95.39a.93.93 0 0 0-.22.64l-1.1-.2c-.04-.34.02-.63.19-.85.17-.22.4-.38.68-.5a3.56 3.56 0 0 1 1.67-.22 3.6 3.6 0 0 1 1.92.7c.33.25.62.59.89 1.03l2.2 3.66-1 .1-.45-.75h-.05a.9.9 0 0 1-.1.43 1 1 0 0 1-.41.4c-.2.15-.5.23-.87.27Zm-.3-.8c.38-.03.67-.13.86-.3.2-.15.3-.34.3-.56a.96.96 0 0 0-.1-.7l-.45-.77c-.01.05-.08.1-.2.15a23.44 23.44 0 0 1-1.31.35c-.25.06-.46.13-.64.22a.7.7 0 0 0-.37.34c-.06.14-.02.32.1.53.2.3.45.5.8.63.34.13.7.17 1.1.13Zm4.98.17-3.33-5.55.95-.1.5.84h.07a.8.8 0 0 1 .24-.74c.2-.2.5-.33.88-.37l.28-.02.25-.02.52.87a4.94 4.94 0 0 0-.64 0c-.3.04-.56.12-.73.26a.74.74 0 0 0-.3.52c-.03.2.04.44.2.7l2.1 3.5-.99.1Zm4.25-6.34.44.72-3.34.4-.43-.7 3.33-.33Zm-3.15-1.08.98-.1 3.18 5.3c.14.3.3.4.44.6.16.1.31.18.47.2a1.74 1.74 0 0 0 .7 0l.16-.06.66.75a2 2 0 0 1-.68.18 3 3 0 0 1-1.86-.47 2.4 2.4 0 0 1-.74-.78l-3.32-5.51Z" fill="#727882"/>
    <rect fill="url(#n)" width="81.16" height="9.38" rx="4.69" transform="matrix(.99452 -.10453 .51504 .85717 608.75 194.28)"/>
    <path d="M549.14 312.52c-1.25-2.08-.3-3.97 2.1-4.22l205.78-21.84a7.51 7.51 0 0 1 6.64 3.3l12.36 20.57c1.24 2.08.3 3.98-2.1 4.23L568.13 336.4a7.51 7.51 0 0 1-6.64-3.3l-12.36-20.58Z" stroke="#DFE1E5" stroke-width=".59"/>
    <rect fill="url(#o)" width="81.16" height="9.38" rx="4.69" transform="matrix(.99452 -.10453 .51504 .85717 676.02 305.96)"/>
    
    <path d="M1070.56 78.73 706.13 117.1M672 120.8l-183.94 19.02-45.03 4.66m204.21-95.8L867 414.21" stroke="#DFE1E5" stroke-linecap="round" stroke-width=".85"/>
    <path d="M443.211 144.451L491.192 139.49" stroke="#1B63D2" stroke-width="2.03625" stroke-linecap="round" />
    <rect width="215.9" height="32.79" x=".44" y=".22" stroke="#DFE1E5" stroke-width=".59" rx="4.4" transform="matrix(.99452 -.10453 .51504 .85717 546.2 308.62)"/>
    <path d="m592.59 322.27-2.65.28-4.44-7.4 2.76-.28a6.02 6.02 0 0 1 4.53 1.34c.64.52 1.2 1.16 1.65 1.92.47.77.7 1.45.72 2.04.01.59-.2 1.06-.62 1.43-.43.36-1.08.58-1.95.67Zm-2.1-.62 1.55-.16a2.84 2.84 0 0 0 1.55-.54c.33-.3.47-.66.44-1.12-.03-.46-.23-1-.6-1.6a5.62 5.62 0 0 0-1.26-1.5 4.63 4.63 0 0 0-3.5-1.06l-1.66.17 3.5 5.8Zm10.56-.14a4.4 4.4 0 0 1-1.82-.19 5.11 5.11 0 0 1-2.9-2.34 3.35 3.35 0 0 1-.53-1.54c-.02-.46.11-.84.4-1.13.29-.29.72-.46 1.3-.52a4.06 4.06 0 0 1 2.26.4 5.62 5.62 0 0 1 2.18 2.07l.2.37-4.95.52-.44-.74 3.95-.4a3.06 3.06 0 0 0-1.68-1.3 2.4 2.4 0 0 0-1.06-.1c-.4.08-.68.2-.87.4a.97.97 0 0 0-.26.72c0 .27.1.57.28.87l.3.49c.25.4.55.75.89 1.02a3 3 0 0 0 2.29.7c.26-.02.47-.07.64-.16a.8.8 0 0 0 .38-.33c.08-.15.1-.32.07-.52l1.09.13c.07.3.05.57-.06.8-.12.24-.31.44-.6.59a2.9 2.9 0 0 1-1.06.3Zm5.83-6.63.95 5.8-1 .1-5.71-5.3 1.07-.11 4.43 4.23h.06l-.87-4.61 1.07-.11Zm4.63 5.4-3.33-5.54 1-.1 3.32 5.54-.99.1Zm-3.38-6.52c-.2.02-.4-.02-.6-.12a1 1 0 0 1-.45-.38c-.1-.16-.1-.3-.04-.43.07-.13.2-.2.4-.22.19 0 .39.1.6.2.2.1.35.24.45.4.1.16.1.3.03.43s-.2.19-.39.2Zm8.87 6.07c-.6.06-1.2 0-1.78-.2a5.58 5.58 0 0 1-2.85-2.35 3.32 3.32 0 0 1-.54-1.53c-.02-.46.12-.83.4-1.12.29-.3.72-.47 1.3-.53a4.33 4.33 0 0 1 2.61.6c.4.24.72.52.98.87l-.99.1a2.73 2.73 0 0 0-.9-.62 2.3 2.3 0 0 0-1.22-.19c-.38.04-.67.17-.86.37a1 1 0 0 0-.23.8c.02.32.16.7.41 1.12a3.84 3.84 0 0 0 2.03 1.76 2.22 2.22 0 0 0 1.8.04.68.68 0 0 0 .34-.39.88.88 0 0 0 0-.55l.99-.1c.14.34.17.64.1.93a1.1 1.1 0 0 1-.5.71c-.25.2-.62.3-1.1.36Zm6.67-.7c-.62.06-1.23 0-1.82-.19a5.11 5.11 0 0 1-2.9-2.34 3.36 3.36 0 0 1-.53-1.54 1.4 1.4 0 0 1 .4-1.12c.29-.3.72-.47 1.3-.53a4.1 4.1 0 0 1 2.26.41 5.42 5.42 0 0 1 2.17 2.07l.22.36-4.96.52-.44-.73 3.95-.42a3.04 3.04 0 0 0-1.68-1.33 2.4 2.4 0 0 0-1.06-.12c-.4.04-.68.16-.87.36a.97.97 0 0 0-.26.72c0 .3.1.58.28.88l.3.5c.25.41.55.76.89 1.03.34.27.7.47 1.1.59a2.84 2.84 0 0 0 1.83-.05c.18-.1.3-.2.38-.35.08-.15.1-.32.07-.52l1.09.13c.07.29.04.55-.06.79-.12.23-.31.43-.59.58-.28.15-.64.25-1.07.3Z" fill="#727882"/>
    <path d="m568.5 324.44-4.3-7.17c-.1-.17-.02-.33.18-.35l3.56-.38c.1 0 .2 0 .3.06l1.9.9c.1.06.2.08.3.07l5.5-.58c.2-.02.46.1.57.28l3.57 5.95c.1.18.03.34-.18.36l-10.83 1.14a.64.64 0 0 1-.56-.28Z" stroke="#727882" stroke-width=".75"/>
    <path d="m574.24 322.29-1.82-3.03c-.1-.18-.02-.34.18-.36l1.4-.15a.6.6 0 0 1 .35.08l1.44.77c.1.05.1.13.2.2l1.3 2.16c.1.18 0 .34-.2.36l-2.37.25a.64.64 0 0 1-.6-.28Z" stroke="#727882" stroke-width=".75"/>
    <path d="m989.89 54.73-3.43.36-5.25-8.73 3.5-.37a7.46 7.46 0 0 1 5.48 1.57 8.11 8.11 0 0 1 1.98 2.28c.55.9.82 1.7.82 2.4s-.25 1.26-.78 1.68c-.52.43-1.3.7-2.32.8Zm-2.42-1.2 1.5-.16a3 3 0 0 0 1.57-.52c.34-.28.5-.65.46-1.11a4.01 4.01 0 0 0-.64-1.71A6.37 6.37 0 0 0 989 48.4a4.48 4.48 0 0 0-1.65-.88 4.96 4.96 0 0 0-1.92-.15l-1.56.16 3.6 6Zm11.26.4a3.93 3.93 0 0 1-2.74-.65 3.3 3.3 0 0 1-.98-1.05 1.75 1.75 0 0 1-.32-.94.92.92 0 0 1 .3-.64c.19-.18.43-.32.73-.43.3-.11.62-.2.97-.28l1.02-.22c.26-.06.43-.13.5-.22.1-.08.1-.2 0-.34l-.01-.03c-.2-.32-.45-.56-.78-.71-.32-.15-.7-.2-1.11-.16-.44.04-.74.16-.9.35-.15.2-.2.4-.16.64l-1.8-.03c-.1-.41-.08-.77.06-1.06.14-.3.4-.55.75-.73.36-.18.8-.3 1.33-.35a6.03 6.03 0 0 1 2.37.25 3.96 3.96 0 0 1 2.07 1.67l2.63 4.38-1.72.18-.54-.9-.06.01a1.12 1.12 0 0 1-.65 1.02c-.25.1-.56.2-.96.2Zm-.22-1.18c.36-.03.64-.13.83-.28a.74.74 0 0 0 .3-.56c.03-.22-.03-.45-.17-.7l-.47-.7c-.03.08-.1.1-.22.17a12.41 12.41 0 0 1-1.23.35 2.6 2.6 0 0 0-.62.23.63.63 0 0 0-.32.36c0 .14 0 .3.2.5.17.3.4.5.74.6.33.12.68.16 1.05.12Zm5.95.44-3.93-6.54 1.8-.2 3.92 6.56-1.79.18Zm-3.6-7.57c-.27.03-.57-.02-.87-.16-.3-.15-.52-.33-.66-.56-.14-.23-.16-.44-.05-.63.1-.18.3-.3.58-.32.3-.03.58.03.88.17.3.14.53.33.67.56.13.23.15.44.04.62-.1.19-.3.3-.58.32Zm3.78-1.72 5.24 8.72-1.79.2-5.24-8.74 1.79-.18Zm9.67 10.87a4.51 4.51 0 0 1-1.27-.04l-.3-1.25c.3.04.55.05.75.02a.6.6 0 0 0 .44-.22c.1-.12.12-.31.08-.57l-.06-.37-6.77-6.4 1.9-.2 4.72 4.77.08-.01-1.2-5.13 1.9-.2 1.36 7.66c.07.36.06.68-.03.95-.08.27-.25.5-.52.66-.25.17-.6.28-1.08.33Z" fill="#D4D7DC"/>
    <path d="m948.81 39.97-29.28 3.02c-1.26.13-2.2.69-2.63 1.54-.42.86-.3 1.94.37 3.02l11.17 18.3a7.68 7.68 0 0 0 3.14 2.72 7.7 7.7 0 0 0 4.09.84l29.27-3.02c1.26-.13 2.2-.69 2.63-1.54.43-.86.3-1.94-.36-3.02L955.96 43.4a7.82 7.82 0 0 0-3.15-2.63 7.67 7.67 0 0 0-4-.8Z" stroke="#EAECEE" stroke-width=".85"/>
    <path d="M822.598 254.646L1153.51 219.577" stroke="#DFE1E5" stroke-width="0.85" stroke-linecap="round" />
    <path d="M760.254 150.047L1090.96 115.288" stroke="#DFE1E5" stroke-width="0.85" stroke-linecap="round" />
    <path d="M886.352 361.7L1217.26 326.5" stroke="#DFE1E5" stroke-width="0.85" stroke-linecap="round" />
    <mask id="p" width="37" height="23" x="924" y="43" maskUnits="userSpaceOnUse" style="mask-type:luminance">
      <path d="m947.8 43.38-23.35 2.4 12.3 20.07 23.35-2.41-12.3-20.06Z" fill="#fff"/>
    </mask>
    <g mask="url(#p)">
      <path d="m937.23 60.9 2.76-5.62 6.04 2.99 3.22-8.99-1.93-.95-2.8 7.5-6.02-3-3.44 7 2.4 1.2-.23-.13Z" fill="#D4D7DC"/>
    </g>
    <path d="m1034.99 31.67-67.22 6.95c-1.18.12-2.05.66-2.42 1.51-.37.85-.2 1.94.45 3.02l11.2 18.3a7.87 7.87 0 0 0 3.06 2.75c1.3.67 2.7.99 3.88.86l67.2-6.95c1.19-.12 2.06-.66 2.43-1.51.37-.85.21-1.94-.45-3.02l-11.27-18.44a7.95 7.95 0 0 0-3.06-2.65 7.03 7.03 0 0 0-3.79-.82Z" stroke="#EAECEE" stroke-width=".85"/>
    <mask id="q" width="28" height="18" x="1017" y="37" maskUnits="userSpaceOnUse" style="mask-type:luminance">
      <path d="m1035.15 37.7-17.36 1.8 9.1 14.9 17.31-1.79-9.14-14.9Z" fill="#fff"/>
    </mask>
    <g mask="url(#q)">
      <path d="m1026.22 43.95 4.83 2.4 1.8-3.08 1.61.7-2.1 4.26-6.75-3.35.61-.93Z" fill="#D4D7DC"/>
    </g>
    <g clip-path="url(#r)">
      <path d="M458.83 112.26a3.28 3.28 0 0 0-.5-2.08 7.54 7.54 0 0 0-6.66-3.36c-2.43.24-3.4 2.14-2.14 4.24a7.53 7.53 0 0 0 6.64 3.35 3.26 3.26 0 0 0 1.98-.82l4.62 2.33.67-1.34-4.6-2.32Zm-3.65.46c-1.35.14-3-.7-3.7-1.86-.69-1.16-.16-2.22 1.2-2.35 1.34-.14 3 .7 3.69 1.86.69 1.17.16 2.22-1.2 2.35Zm-4.61-7.13a5 5 0 0 0-1.83.58l-.95-.64-.62 5.58-4.7-2.67-.63 5.25-2.18-.82.87-7.24 4.7 2.66.63-5.88 4.7 3.18Zm2.78.17a8.31 8.31 0 0 0-2.25-.22l.94-7.32 2.18.83-.87 6.7Z" fill="#1B63D2"/>
    </g>
    <g fill="#D4D7DC" clip-path="url(#s)">
      <path d="m486.1 98.38 9.76-.98-1.73 5.8-8.04-4.82Zm-2.89-.06 9.32 5.68 3.01 5.06c.28.46.94.8 1.48.74l1.95-.2c.54-.05.75-.47.48-.93l-3-5.07 1.9-6.8c.16-.6-.78-1.36-1.59-1.27l-13.58 1.36c-.8.08-.8.93.03 1.43Z" stroke="#D4D7DC" stroke-miterlimit="10" stroke-width=".29"/>
    </g>
    <g clip-path="url(#t)">
      <path d="m549.5 97.66-4-2.01a1.12 1.12 0 0 0-.49-.13c-.1 0-.24.11-.29.2l-1.28 2.55-1.71 3.39c-.2.37-.63.68-1.11.73a3.55 3.55 0 0 1-2.3-.4c-1.04-.51-1.69-1.25-1.85-2.04-.1-.35-.1-.7.04-1l1.7-3.38 1.3-2.54c.09-.2-.11-.52-.46-.76l-3.99-2.01c-.3-.15-.68-.11-.88.09l-1.33 2.63-1.7 3.4a4.39 4.39 0 0 0-.26 2.88c.57 2.35 2.66 4.64 5.62 6.14a11.75 11.75 0 0 0 6.27 1.33l.59-.05c1.7-.27 2.96-1.1 3.58-2.33l1.7-3.4 1.3-2.53c.04-.27-.16-.6-.46-.76Zm-14.23-6.17 2.57 1.35-.86 1.7-2.56-1.36.86-1.7Zm10.35 12.19c-.52 1.03-1.59 1.68-3 1.9a9.7 9.7 0 0 1-5.69-1.03c-2.36-1.2-4.15-3.16-4.67-5.07a3.5 3.5 0 0 1 .21-2.44l1.52-3 2.66 1.33-1.52 3c-.19.39-.28.94-.17 1.46.26 1.14 1.4 2.36 2.83 3.03a5.7 5.7 0 0 0 3.4.63 2.4 2.4 0 0 0 1.7-1.15l1.5-3.02 1.33.68 1.32.67-1.52 3Zm1.95-3.86-1.33-.67-1.33-.67.86-1.7 2.65 1.35-.85 1.7Z" fill="#D4D7DC" stroke="#D4D7DC" stroke-miterlimit="10" stroke-width=".59"/>
    </g>
    <g clip-path="url(#u)">
      <path d="m587.26 102.55-5.91-2.99 1.9-3.76 2.1 1.04-.77 1.5 8.15-.8-2.34-1.2.67-1.32 5.9 2.98-1.9 3.77-2.08-1.05.76-1.5-8.16.81 2.34 1.2-.66 1.32Zm-7.94-8.14-5.02-8.44 1.96-.2 5 8.44-1.94.2Zm5.85-.6-5-8.43 1.95-.2 5 8.44-1.95.2Zm5.86-.58-5-8.43 1.94-.2 5.01 8.44-1.95.2Z" fill="#D4D7DC"/>
    </g>
    <g clip-path="url(#v)">
      <path d="m636.28 97.64-2-3.37-4.89.49-4.43-2.24 1.43-2.82 4.88-.5-1-1.68-6.84.69-3-5.07 6.83-.68-1-1.7 1.95-.2 1 1.7 4.88-.5 4.43 2.25-1.42 2.84-4.88.49 1 1.68 6.83-.68 3.01 5.06-6.83.68 2 3.38-1.95.2Zm-11.9-11.32 10.91-1.1.48-.93-1.48-.75-10.91 1.1 1 1.68ZM629.2 93l10.9-1.1-1-1.68-10.9 1.1-.48.94 1.48.75Z" fill="#D4D7DC"/>
    </g>
    <path d="m882.94 372.95 3.85 6.34-1.2.1-3.27-5.4h-.05l-1.17 1.12-.55-.9 1.2-1.24 1.1-.11Zm5.95 6.12-.5-.7 1.12-2.48c.12-.26.2-.5.27-.7.07-.2.1-.39.08-.56a1.24 1.24 0 0 0-.2-.54 1.89 1.89 0 0 0-1.17-.83c-.26-.07-.5-.09-.75-.06-.27.02-.47.1-.6.2a.55.55 0 0 0-.22.45c0 .18.07.38.2.6l-1.05.12a1.72 1.72 0 0 1-.3-1.05 1 1 0 0 1 .42-.75c.26-.2.62-.33 1.08-.37a3.91 3.91 0 0 1 2.6.67c.35.24.64.54.85.88.12.24.21.47.24.7.04.24.01.51-.07.81-.09.3-.23.67-.44 1.11l-.67 1.47.02.05 3.32-.4.5.8-4.85.5Zm7.4-4.57.5.8-3.3.34-.5-.8 3.21-.34Zm6.3 3.25a3.66 3.66 0 0 1-1.7-.23 5.09 5.09 0 0 1-1.6-1.02 7.88 7.88 0 0 1-1.4-1.74 5.23 5.23 0 0 1-.79-1.8c-.08-.5 0-.9.25-1.2.25-.3.66-.48 1.22-.54a3.5 3.5 0 0 1 1.68.24c.56.21 1.1.55 1.6 1.02a7.69 7.69 0 0 1 2.15 3.52c.08.5 0 .92-.24 1.22-.25.3-.66.47-1.22.53Zm-.5-.82c.5-.06.71-.3.73-.75.03-.45-.2-1.07-.68-1.87a6.98 6.98 0 0 0-1-1.3c-.35-.36-.7-.62-1.06-.78a1.9 1.9 0 0 0-1.02-.2c-.5.05-.76.3-.78.76-.04.45.2 1.07.66 1.86.32.53.66.97 1 1.32.36.35.7.6 1.06.77a2 2 0 0 0 1.02.19Zm4.5.3-.46-.7 1.14-2.48c.12-.27.21-.5.28-.7a1.24 1.24 0 0 0-.12-1.1c-.13-.22-.3-.4-.5-.54a2.12 2.12 0 0 0-1.44-.36c-.26.03-.47.1-.6.2a.55.55 0 0 0-.22.45c0 .18.07.39.2.6l-1.06.12a1.73 1.73 0 0 1-.3-1.04.99.99 0 0 1 .43-.76c.26-.2.62-.32 1.08-.37a3.9 3.9 0 0 1 2.6.67c.35.25.63.54.84.88.14.24.23.47.27.7.03.25 0 .5-.08.82-.07.3-.22.67-.43 1.1l-.66 1.48.03.04 3.31-.34.5.82-4.85.5ZM800.8 259.57l-.1-5.8-.04-.05-3.7.4-.5-.82 4.86-.5.5.84.14 5.82-1.16.13Zm8.1-.75a3.9 3.9 0 0 1-3.47-1.48l1.08-.12a2.18 2.18 0 0 0 1.9.8c.28-.03.5-.1.65-.25a.7.7 0 0 0 .24-.52c0-.2-.07-.44-.23-.7a2.68 2.68 0 0 0-1.44-1.1 2.2 2.2 0 0 0-.88-.08c-.22.02-.43.08-.6.17a.89.89 0 0 0-.4.31l-1.1-.02-1.52-3.24 4.05-.42.5.82-3.11.33.84 1.8h.05c.07-.14.2-.26.38-.37.2-.1.43-.17.7-.2.45-.05.9 0 1.37.15a4.04 4.04 0 0 1 2.27 1.72c.26.42.38.8.35 1.14-.02.34-.16.63-.43.85a2.1 2.1 0 0 1-1.15.41Zm4-.5-3.85-6.34 1.11-.12 1.84 3.03.1-.11 1.24-3.35 1.4-.15-1.24 3.17 5.1 3.17-1.33.14-4.1-2.58-.35.95 1.2 1.97-1.12.1Zm64.9 105.48a3.65 3.65 0 0 1-1.7-.23 5.07 5.07 0 0 1-1.6-1.02 7.86 7.86 0 0 1-1.4-1.74 5.24 5.24 0 0 1-.73-1.8c-.08-.5 0-.9.25-1.2.25-.3.65-.48 1.22-.54.56-.06 1.12.02 1.68.24.56.21 1.1.55 1.6 1.02a7.7 7.7 0 0 1 2.15 3.52c.08.5 0 .92-.25 1.22-.24.3-.65.47-1.2.53Zm-.5-.82c.5-.06.75-.3.78-.75.03-.45-.2-1.07-.68-1.87a6.96 6.96 0 0 0-1-1.3 3.8 3.8 0 0 0-1.06-.78c-.35-.17-.7-.23-1.02-.2-.5.04-.76.3-.79.74-.02.46.2 1.08.68 1.87.37.53.7.97 1.05 1.32.36.35.7.6 1.06.77a2 2 0 0 0 1.02.2Zm-145.86-213 3.85 6.34-1.17.11-3.27-5.38h-.04l-1.16 1.18-.56-.9 1.21-1.24 1.1-.1Zm8.43 5.95a3.9 3.9 0 0 1-3.47-1.48l1.08-.12a2.18 2.18 0 0 0 1.9.8c.28-.03.5-.1.65-.24a.7.7 0 0 0 .24-.53c0-.2-.07-.44-.23-.7a2.68 2.68 0 0 0-1.44-1.1c-.3-.08-.6-.1-.87-.08-.22.02-.43.08-.61.17a.89.89 0 0 0-.4.31l-1.1-.02-1.51-3.24 4.05-.4.5.8-3.13.34.84 1.8h.04c.08-.14.2-.26.4-.37.19-.1.42-.17.7-.2.44-.05.9 0 1.36.15a4.24 4.24 0 0 1 2.25 1.72c.25.42.37.8.34 1.14-.02.34-.16.63-.44.85a2.1 2.1 0 0 1-1.14.41Zm6.53-.65a3.65 3.65 0 0 1-1.7-.24 5.07 5.07 0 0 1-1.6-1.02 7.86 7.86 0 0 1-1.4-1.74 5.24 5.24 0 0 1-.73-1.8c-.08-.5 0-.9.25-1.2.25-.3.66-.5 1.22-.55.57-.06 1.13.02 1.69.24.56.2 1.1.55 1.6 1.02a7.7 7.7 0 0 1 2.15 3.53c.08.5 0 .9-.25 1.2-.25.3-.65.5-1.22.55Zm-.5-.83c.5-.05.76-.3.8-.75 0-.45-.2-1.07-.7-1.86a6.96 6.96 0 0 0-1-1.32 3.9 3.9 0 0 0-1.04-.77c-.36-.16-.7-.23-1.02-.2-.5.06-.76.3-.8.76-.02.45.2 1.07.7 1.86.3.53.64.97 1 1.32.34.35.7.6 1.04.77.35.16.7.22 1.03.2Zm4.62.3-3.85-6.35 1.1-.12 1.83 3.03h.1l1.24-3.36 1.4-.15-1.24 3.17 5.1 3.17-1.34.14-4.1-2.58-.35.96 1.2 1.97-1.1.12ZM957.7 365.16l3.85 6.34-1.12.12-3.26-5.38h-.05L956 367.4l-.56-.91 1.21-1.23 1.1-.11Zm5.95 6.12-.42-.7 1.14-2.48c.12-.27.2-.5.27-.7a1.23 1.23 0 0 0-.12-1.1 1.7 1.7 0 0 0-.5-.54 2.13 2.13 0 0 0-1.44-.36c-.24.03-.44.1-.6.2a.55.55 0 0 0-.2.45c0 .18.07.38.2.6l-1.06.12a1.72 1.72 0 0 1-.3-1.04c.03-.31.18-.57.44-.76.26-.2.62-.32 1.08-.37a3.9 3.9 0 0 1 2.6.67c.35.25.64.54.85.88.14.24.23.47.26.7.03.24.01.5-.07.8-.09.3-.24.7-.44 1.13l-.67 1.47.03.04 3.34-.34.5.82-4.85.5Zm7.41-4.57.5.8-3.27.35-.5-.8 3.27-.35Zm6.33 3.25a3.65 3.65 0 0 1-1.7-.23 5.08 5.08 0 0 1-1.6-1.02 7.86 7.86 0 0 1-1.4-1.74 5.25 5.25 0 0 1-.72-1.8c-.08-.5 0-.9.25-1.2.25-.3.65-.48 1.22-.54.56-.06 1.12.02 1.68.24.56.2 1.1.55 1.6 1.02a7.74 7.74 0 0 1 2.15 3.53c.08.5 0 .9-.24 1.2-.25.3-.66.49-1.22.55Zm-.5-.82c.5-.05.75-.3.78-.75.03-.45-.2-1.07-.68-1.86a6.98 6.98 0 0 0-1-1.32 3.8 3.8 0 0 0-1.06-.77c-.35-.16-.7-.23-1.02-.2-.5.06-.76.3-.79.76-.02.45.2 1.07.68 1.86.32.53.66.97 1 1.32.36.35.7.6 1.06.77a2 2 0 0 0 1.02.2Zm7.13.12a4.07 4.07 0 0 1-2.22-.46c-.4-.2-.8-.5-1.2-.87a7.99 7.99 0 0 1-1.1-1.44 6.63 6.63 0 0 1-.7-1.5 2.41 2.41 0 0 1-.1-1.14c.07-.32.2-.58.48-.77.25-.2.59-.3 1.01-.36.44-.04.88 0 1.3.1a4.1 4.1 0 0 1 2.16 1.4l-1.1.1a2.52 2.52 0 0 0-.83-.6 2 2 0 0 0-1.01-.16c-.54.05-.84.3-.9.74-.06.43.13 1 .57 1.73h.05a.9.9 0 0 1 .2-.5 1 1 0 0 1 .44-.37c.19-.1.4-.16.67-.18.42-.05.87 0 1.32.14.46.15.88.36 1.28.66.4.3.72.64.96 1.04s.35.78.34 1.13c-.01.35-.15.64-.42.88-.27.23-.66.37-1.18.41Zm-.49-.8c.3-.04.5-.12.65-.27a.75.75 0 0 0 .26-.54c0-.2-.07-.44-.22-.7a2.73 2.73 0 0 0-1.4-1.07c-.3-.09-.58-.12-.86-.1a1.5 1.5 0 0 0-.53.17.79.79 0 0 0-.3.35.88.88 0 0 0-.06.46c.02.16.08.34.2.51.11.24.3.45.55.64.26.28.53.44.83.54.3.11.6.13.87.11Zm57.98-11.9 3.85 6.33-1.12.12-3.26-5.38h-.05l-1.16 1.17-.56-.9 1.21-1.24 1.09-.1Zm5.95 6.11-.42-.7 1.14-2.47c.12-.27.21-.5.27-.7.06-.2.09-.4.07-.57a.93.93 0 0 0-.2-.54 1.58 1.58 0 0 0-.5-.53 2.12 2.12 0 0 0-1.43-.36c-.24.02-.44.1-.6.2a.58.58 0 0 0-.2.45c0 .18.02.38.2.61l-1.1.11a1.7 1.7 0 0 1-.3-1.04 1 1 0 0 1 .43-.76c.26-.2.62-.32 1.08-.37a3.84 3.84 0 0 1 2.6.67 3 3 0 0 1 .86.88c.18.24.27.47.3.7.04.24 0 .51-.07.81-.1.3-.24.68-.45 1.11l-.67 1.47.03.05 3.32-.34.5.82-4.85.5Zm7.41-4.57.5.8-3.27.35-.5-.8 3.27-.35Zm2.64-3.22 3.85 6.35-1.1.11-3.28-5.38h-.04l-1.16 1.18-.56-.92 1.21-1.22 1.08-.12Zm8.58 5.97a3.65 3.65 0 0 1-1.69-.24 5.08 5.08 0 0 1-1.6-1.02 7.88 7.88 0 0 1-1.39-1.8 5.12 5.12 0 0 1-.7-1.8c-.07-.5 0-.9.26-1.2.25-.3.66-.5 1.22-.57.56-.06 1.13.02 1.69.24.55.21 1.1.55 1.6 1.02.5.46.97 1.04 1.39 1.72.42.7.67 1.3.75 1.8.1.51 0 .91-.24 1.21-.25.3-.66.48-1.22.54Zm-.5-.83c.5-.05.76-.3.78-.75.03-.45-.2-1.07-.68-1.86a7.2 7.2 0 0 0-1-1.22 3.9 3.9 0 0 0-1.05-.77c-.36-.17-.7-.24-1.03-.2-.5.05-.75.3-.78.75-.03.46.2 1.08.67 1.87.33.53.66.97 1 1.32.36.35.71.6 1.06.77.35.18.7.24 1.03.22Zm57.86-12.89 3.85 6.34-1.12.12-3.26-5.4h-.05l-1.16 1.11-.51-.92 1.21-1.22 1.1-.1Zm5.95 6.13-.42-.7 1.14-2.48c.12-.27.2-.5.27-.7.06-.2.09-.4.07-.57a.98.98 0 0 0-.2-.54 1.57 1.57 0 0 0-.5-.52 2.12 2.12 0 0 0-1.43-.37c-.26.03-.46.1-.6.21a.58.58 0 0 0-.22.44c0 .18.07.4.21.61l-1.06.11a1.7 1.7 0 0 1-.3-1.04c.02-.3.17-.56.43-.76.26-.2.62-.32 1.08-.37a3.84 3.84 0 0 1 2.6.67c.35.25.64.54.84.88a1.72 1.72 0 0 1 .2 1.52c-.09.3-.23.67-.45 1.1l-.66 1.48.04.05 3.32-.35.5.82-4.85.5Zm7.4-4.57.5.8-3.26.34-.5-.8 3.27-.34Zm2.65-3.22 3.85 6.34-1.1.12-3.28-5.39h-.04l-1.16 1.18-.56-.9 1.21-1.24 1.08-.1Zm5.04 4.9-.47-.77.56-4.66.71-.08.7 1.14-.46.05-.39 3.34.03.05 4.36-.46.5.81-5.54.58Zm4.25.87-.9-1.47-.2-.35-2.75-4.52 1.06-.1 3.85 6.33-1.06.1Zm57.8-12.64 3.86 6.34-1.11.11-3.3-5.38h-.07l-1.16 1.18-.56-.92 1.21-1.22 1.1-.1Zm5.95 6.12-.42-.7 1.15-2.48a6 6 0 0 0 .27-.7c.06-.2.1-.39.07-.56a.98.98 0 0 0-.19-.54 1.8 1.8 0 0 0-.5-.53 2.1 2.1 0 0 0-.7-.3 2.3 2.3 0 0 0-.74.04c-.26.02-.46.11-.6.21a.55.55 0 0 0-.22.45c0 .18.07.38.2.6l-1.06.12a1.74 1.74 0 0 1-.3-1.05c.03-.3.18-.56.44-.75.26-.2.62-.33 1.08-.38a3.96 3.96 0 0 1 2.6.66c.35.25.64.55.84.9.2.24.28.47.3.7.05.24 0 .51-.05.81-.1.3-.24.67-.45 1.11l-.66 1.47.03.04 3.3-.35.5.84-4.84.5Zm7.42-4.57.5.8-3.28.35-.48-.8 3.26-.35Zm2.64-3.22 3.85 6.34-1.09.12-3.28-5.38h-.05l-1.16 1.18-.55-.92 1.21-1.22 1.08-.12Zm8.5 5.95c-.53.06-1.03.03-1.52-.08a4.1 4.1 0 0 1-1.3-.54 2.6 2.6 0 0 1-.9-.88 1.53 1.53 0 0 1-.25-.76c0-.24.06-.45.2-.62.12-.18.32-.3.57-.37l-.02-.04a2.7 2.7 0 0 1-1.19-.42 2.7 2.7 0 0 1-.88-.87c-.2-.32-.27-.62-.23-.9.05-.27.21-.5.48-.68.26-.2.62-.3 1.07-.35a3.97 3.97 0 0 1 2.55.6c.35.25.63.52.83.85.2.34.27.65.21.94-.06.28-.25.48-.56.6l.02.03c.3 0 .6.08.92.2.32.15.61.32.88.53.27.22.5.46.65.72.2.35.27.66.21.96-.06.3-.24.53-.54.72-.3.2-.7.32-1.22.37Zm-.5-.78c.32-.03.56-.1.73-.2a.62.62 0 0 0 .3-.44.83.83 0 0 0-.16-.58 1.9 1.9 0 0 0-.56-.57 2.48 2.48 0 0 0-1.62-.4c-.29.01-.52.1-.7.21a.7.7 0 0 0-.28.46.9.9 0 0 0 .17.6c.12.22.3.4.5.55a2.67 2.67 0 0 0 1.62.36Zm-1.78-2.95c.25-.03.44-.1.58-.2a.6.6 0 0 0 .23-.4.88.88 0 0 0-.15-.54 1.9 1.9 0 0 0-1.14-.8 2.01 2.01 0 0 0-.73-.06c-.25.03-.45.1-.59.2a.55.55 0 0 0-.24.4c0 .15.04.32.16.52s.28.38.48.52a2.1 2.1 0 0 0 1.4.36Z" fill="#535963"/>
  </g>
  <style>
    .gray-chart {
      animation: 1s ease-out 1.6s 1 forwards chart-animation;
    }
    .green-chart {
      animation: 1s ease-out 1.75s 1 forwards chart-animation;
    }
    .blue-chart {
      animation: 1s ease-out 1.9s 1 forwards chart-animation;
    }
    @keyframes chart-animation {
      0% {
        opacity: 0;
        transform: translate(80px, -80px);
        filter: blur(5px);
      }
      100% {
        opacity: 1;
        transform: translate(0, 0);
        filter: blur(0);
      }
    }
  </style>

  <g id="gray-chart" opacity="0" class="gray-chart">
    <path d="m857.65 268.66-15.3 19.54 43.68 73.25 331.08-34.99-92.4-152.8 8.6 76.8-4.4 13.22-98.83-80.07-26.66-4.87-25.64.36 16.52 70.2-5.18 32.48-60.4-57.5-37.25-21.2-31.06-9.3-23.84.16 21.17 74.72Z" fill="url(#w)" style="mix-blend-mode:multiply"/>
    <path d="m842.17 288.43 15.5-19.67-21.19-74.82 23.83-.16 31.06 9.29 37.24 21.2 60.4 57.5 5.2-32.46-16.53-70.2 25.64-.3 26.66 4.9 98.86 80.07 4.4-13.23-8.53-76.81" stroke="#535963"/>
  </g>
  
  <g id="green-chart" opacity="0" class="green-chart">
    <path d="m862.06 279.44-17.58 13.13 40.76 68.2 331.07-35.01-74-123.24.23 42.12-5.59 30.52-38.05-20.61-42.42-27.26-29.5-6.8-18.05 11.7-2.95 32.02-10.98 28-89.35-64.9-29.24-8.23-13.2 21.4-1.1 38.86Z" fill="url(#x)"/>
    <path d="m844.48 292.57 17.58-13.13 1.15-38.86 13.2-21.4 29.35 8.2 89.34 64.9 10.9-27.98 2.95-32.02 18.06-11.7 29.5 6.7 42.42 27.26 38.05 20.6 5.58-30.51-.22-42.12" stroke="#5AC16F"/>
  </g>
  <g id="blue-chart" opacity="0" class="blue-chart">
    <path d="m877.78 304.34-16.31 15.55 24.1 40.88 330.9-35.28-53.27-88.19-5.96 29.58-14.46 20.25-70.52-34.52-31.59-12.4-17.22 14.4-.97 36.3-19.27 14.18-41.7-26.7-59.52-17.8-21.73 6.55-2.48 37.29Z" fill="url(#y)"/>
    <path d="m861.47 319.89 16.31-15.55 2.48-37.3L902 260.5l59.51 17.8 41.71 26.69 19.27-14.16.97-36.28 17.22-14.37 31.59 12.43 70.52 34.52 14.46-20.25 5.96-29.58" stroke="#367EED"/>
  </g>

  <defs>
    <linearGradient id="b" x1="445.61" x2="63.42" y1="322.53" y2="419.75" gradientUnits="userSpaceOnUse">
      <stop stop-color="#fff"/>
      <stop offset="1" stop-color="#FAFAFA"/>
    </linearGradient>
    <linearGradient id="e" x1="0" x2="155.88" y1="8.14" y2="8.14" gradientUnits="userSpaceOnUse">
      <stop stop-color="#F1F3F5"/>
      <stop offset="1" stop-color="#F7F8F9" stop-opacity=".5"/>
    </linearGradient>
    <linearGradient id="f" x1="0" x2="104.61" y1="8.14" y2="8.14" gradientUnits="userSpaceOnUse">
      <stop stop-color="#F1F3F5"/>
      <stop offset="1" stop-color="#F7F8F9" stop-opacity=".5"/>
    </linearGradient>
    <linearGradient id="g" x1="0" x2="139" y1="8.14" y2="8.14" gradientUnits="userSpaceOnUse">
      <stop stop-color="#F1F3F5"/>
      <stop offset="1" stop-color="#F7F8F9" stop-opacity=".5"/>
    </linearGradient>
    <linearGradient id="h" x1="0" x2="42.87" y1="10.17" y2="10.17" gradientUnits="userSpaceOnUse">
      <stop stop-color="#F1F3F5"/>
      <stop offset="1" stop-color="#F7F8F9" stop-opacity=".5"/>
    </linearGradient>
    <linearGradient id="i" x1="0" x2="42.87" y1="8.14" y2="8.14" gradientUnits="userSpaceOnUse">
      <stop stop-color="#F1F3F5"/>
      <stop offset="1" stop-color="#F7F8F9" stop-opacity=".5"/>
    </linearGradient>
    <linearGradient id="j" x1="0" x2="42.87" y1="8.14" y2="8.14" gradientUnits="userSpaceOnUse">
      <stop stop-color="#F1F3F5"/>
      <stop offset="1" stop-color="#F7F8F9" stop-opacity=".5"/>
    </linearGradient>
    <linearGradient id="k" x1="0" x2="42.87" y1="8.14" y2="8.14" gradientUnits="userSpaceOnUse">
      <stop stop-color="#F1F3F5"/>
      <stop offset="1" stop-color="#F7F8F9" stop-opacity=".5"/>
    </linearGradient>
    <linearGradient id="l" x1="858.68" x2="635.77" y1="224.23" y2="351.19" gradientUnits="userSpaceOnUse">
      <stop stop-color="#fff"/>
      <stop offset="1" stop-color="#FAFAFA"/>
    </linearGradient>
    <linearGradient id="n" x1="0" x2="81.16" y1="4.69" y2="4.69" gradientUnits="userSpaceOnUse">
      <stop stop-color="#F1F3F5"/>
      <stop offset="1" stop-color="#F7F8F9"/>
    </linearGradient>
    <linearGradient id="o" x1="0" x2="81.16" y1="4.69" y2="4.69" gradientUnits="userSpaceOnUse">
      <stop stop-color="#F1F3F5"/>
      <stop offset="1" stop-color="#F7F8F9"/>
    </linearGradient>
    <linearGradient id="w" x1="918.41" x2="906.96" y1="28.47" y2="338.71" gradientUnits="userSpaceOnUse">
      <stop stop-color="#D4D7DC"/>
      <stop offset=".87" stop-color="#fff"/>
    </linearGradient>
    <linearGradient id="x" x1="957.71" x2="954.25" y1="134.58" y2="341.75" gradientUnits="userSpaceOnUse">
      <stop stop-color="#BBEAC5"/>
      <stop offset="1" stop-color="#F9FFFA"/>
    </linearGradient>
    <linearGradient id="y" x1="1062.28" x2="1076.39" y1="349.42" y2="87.5" gradientUnits="userSpaceOnUse">
      <stop offset=".11" stop-color="#EEF6FF"/>
      <stop offset="1" stop-color="#67A3FF"/>
    </linearGradient>
    <clipPath id="c">
      <path d="m191.85 261.46 18.42-1.94 9.54 15.88-18.42 1.93z" fill="#fff"/>
    </clipPath>
    <clipPath id="d">
      <path d="m382.85 242.15 18.42-1.94 9.54 15.88-18.4 1.9z" fill="#fff"/>
    </clipPath>
    <clipPath id="r">
      <path d="m430.16 98.62 23.43-2.35 12 20.25-23.49 2.35z" fill="#fff"/>
    </clipPath>
    <clipPath id="s">
      <path d="m476.25 94 23.43-2.35 12.03 20.25-23.43 2.35z" fill="#fff"/>
    </clipPath>
    <clipPath id="t">
      <path d="m522.34 89.39 23.43-2.35 12.03 20.25-23.43 2.35z" fill="#fff"/>
    </clipPath>
    <clipPath id="u">
      <path d="m568.43 84.77 23.43-2.35 12.03 20.25-23.43 2.35z" fill="#fff"/>
    </clipPath>
    <clipPath id="v">
      <path d="m614.51 80.16 23.43-2.35 12.03 20.25-23.43 2.35z" fill="#fff"/>
    </clipPath>
    <filter id="a" width="1148.17" height="569.83" x=".1" y="98.15" color-interpolation-filters="sRGB" filterUnits="userSpaceOnUse">
      <feFlood flood-opacity="0" result="BackgroundImageFix"/>
      <feColorMatrix in="SourceAlpha" result="hardAlpha" type="matrix" values="0 0 0 0 0 0 0 0 0 0 0 0 0 0 0 0 0 0 127 0"/>
      <feOffset/>
      <feGaussianBlur stdDeviation="22.92"/>
      <feComposite in2="hardAlpha" operator="out"/>
      <feColorMatrix type="matrix" values="0 0 0 0 0 0 0 0 0 0 0 0 0 0 0 0 0 0 0.08 0"/>
      <feBlend in2="BackgroundImageFix" mode="normal" result="effect1_dropShadow_9379_914"/>
      <feBlend in="SourceGraphic" in2="effect1_dropShadow_9379_914" mode="normal" result="shape"/>
    </filter>
    <filter id="m" width="924.74" height="479.76" x="363.19" y=".35" color-interpolation-filters="sRGB" filterUnits="userSpaceOnUse">
      <feFlood flood-opacity="0" result="BackgroundImageFix"/>
      <feColorMatrix in="SourceAlpha" result="hardAlpha" type="matrix" values="0 0 0 0 0 0 0 0 0 0 0 0 0 0 0 0 0 0 127 0"/>
      <feOffset dy="16"/>
      <feGaussianBlur stdDeviation="12"/>
      <feComposite in2="hardAlpha" operator="out"/>
      <feColorMatrix type="matrix" values="0 0 0 0 0 0 0 0 0 0 0 0 0 0 0 0 0 0 0.04 0"/>
      <feBlend in2="BackgroundImageFix" mode="normal" result="effect1_dropShadow_9379_914"/>
      <feBlend in="SourceGraphic" in2="effect1_dropShadow_9379_914" mode="normal" result="shape"/>
    </filter>
  </defs>
</svg>
