<svg width="883" height="632" viewBox="0 0 883 632" fill="none" xmlns="http://www.w3.org/2000/svg">
<g clip-path="url(#clip0_2316_21223)">
<path fill-rule="evenodd" clip-rule="evenodd" d="M958.359 -14.3536H928.301V-190H927.926V-14.3536H897.869V-190H897.493V-14.3536H867.436V-190H867.06V-14.3536H837.003V-190H836.627V-14.3536H806.57V-190H806.194V-14.3536H776.137V-190H775.761V-14.3536H745.704V-190H745.329V-14.3536H715.271V-190H714.896V-14.3536H684.839V-190H684.463V-14.3536H654.406V-190H654.03V-14.3536H623.973V-190H623.597V-14.3536H593.54V-190H593.164V-14.3536H563.107V-190H562.731V-14.3536H532.674V-190H532.299V-14.3536H502.241V-190H501.866V-14.3536H471.809V-190H471.433V-14.3536H441.376V-190H441V-14.3536H410.943V-190H410.567V-14.3536H380.51V-190H380.134V-14.3536H350.077V-190H349.701V-14.3536H319.644V-190H319.269V-14.3536H289.211V-190H288.836V-14.3536H258.779V-190H258.403V-14.3536H228.346V-190H227.97V-14.3536H197.913V-190H197.537V-14.3536H167.48V-190H167.104V-14.3536H137.047V-190H136.671V-14.3536H106.614V-190H106.239V-14.3536H76.1814V-190H75.8057V-14.3536H45.7486V-190H45.3728V-14.3536H15.3157V-190H14.94V-14.3536H-15.1171V-190H-15.4929V-14.3536H-45.55V-190H-45.9257V-14.3536H-75.9829V-190H-76.3586V-14.3536H-85V-13.9779H-76.3586V16.0793H-85V16.455H-76.3586V46.5121H-85V46.8878H-76.3586V76.945H-85V77.3207H-76.3586V107.378H-85V107.754H-76.3586V137.811H-85V138.186H-76.3586V168.244H-85V168.619H-76.3586V198.676H-85V199.052H-76.3586V229.109H-85V229.485H-76.3586V259.542H-85V259.918H-76.3586V289.975H-85V290.351H-76.3586V320.408H-85V320.784H-76.3586V350.841H-85V351.216H-76.3586V381.274H-85V381.649H-76.3586V411.706H-85V412.082H-76.3586V442.139H-85V442.515H-76.3586V472.572H-85V472.948H-76.3586V503.005H-85V503.381H-76.3586V533.438H-85V533.814H-76.3586V563.871H-85V564.246H-76.3586V594.304H-85V594.679H-76.3586V624.736H-85V625.112H-76.3586V655.169H-85V655.545H-76.3586V685.602H-85V685.978H-76.3586V862H-75.9829V685.978H-45.9257V862H-45.55V685.978H-15.4929V862H-15.1171V685.978H14.94V862H15.3157V685.978H45.3728V862H45.7486V685.978H75.8057V862H76.1814V685.978H106.239V862H106.614V685.978H136.671V862H137.047V685.978H167.104V862H167.48V685.978H197.537V862H197.913V685.978H227.97V862H228.346V685.978H258.403V862H258.779V685.978H288.836V862H289.211V685.978H319.269V862H319.644V685.978H349.701V862H350.077V685.978H380.134V862H380.51V685.978H410.567V862H410.943V685.978H441V862H441.376V685.978H471.433V862H471.809V685.978H501.866V862H502.241V685.978H532.299V862H532.674V685.978H562.731V862H563.107V685.978H593.164V862H593.54V685.978H623.597V862H623.973V685.978H654.03V862H654.406V685.978H684.463V862H684.839V685.978H714.896V862H715.271V685.978H745.329V862H745.704V685.978H775.761V862H776.137V685.978H806.194V862H806.57V685.978H836.627V862H837.003V685.978H867.06V862H867.436V685.978H897.493V862H897.869V685.978H927.926V862H928.301V685.978H958.359V862H958.734V685.978H967V685.602H958.734V655.545H967V655.169H958.734V625.112H967V624.736H958.734V594.679H967V594.304H958.734V564.246H967V563.871H958.734V533.814H967V533.438H958.734V503.381H967V503.005H958.734V472.948H967V472.572H958.734V442.515H967V442.139H958.734V412.082H967V411.706H958.734V381.649H967V381.274H958.734V351.216H967V350.841H958.734V320.784H967V320.408H958.734V290.351H967V289.975H958.734V259.918H967V259.542H958.734V229.485H967V229.109H958.734V199.052H967V198.676H958.734V168.619H967V168.244H958.734V138.186H967V137.811H958.734V107.754H967V107.378H958.734V77.3207H967V76.945H958.734V46.8878H967V46.5121H958.734V16.455H967V16.0793H958.734V-13.9779H967V-14.3536H958.734V-190H958.359V-14.3536ZM958.359 685.602H928.301V655.545H958.359V685.602ZM927.926 685.602H897.869V655.545H927.926V685.602ZM897.493 685.602H867.436V655.545H897.493V685.602ZM867.06 685.602H837.003V655.545H867.06V685.602ZM836.627 685.602H806.57V655.545H836.627V685.602ZM806.194 685.602H776.137V655.545H806.194V685.602ZM775.761 685.602H745.704V655.545H775.761V685.602ZM745.329 685.602H715.271V655.545H745.329V685.602ZM714.896 685.602H684.839V655.545H714.896V685.602ZM684.463 685.602H654.406V655.545H684.463V685.602ZM654.03 685.602H623.973V655.545H654.03V685.602ZM623.597 685.602H593.54V655.545H623.597V685.602ZM593.164 685.602H563.107V655.545H593.164V685.602ZM562.731 685.602H532.674V655.545H562.731V685.602ZM532.299 685.602H502.241V655.545H532.299V685.602ZM501.866 685.602H471.809V655.545H501.866V685.602ZM471.433 685.602H441.376V655.545H471.433V685.602ZM441 685.602H410.943V655.545H441V685.602ZM410.567 685.602H380.51V655.545H410.567V685.602ZM380.134 685.602H350.077V655.545H380.134V685.602ZM349.701 685.602H319.644V655.545H349.701V685.602ZM319.269 685.602H289.211V655.545H319.269V685.602ZM288.836 685.602H258.779V655.545H288.836V685.602ZM258.403 685.602H228.346V655.545H258.403V685.602ZM227.97 685.602H197.913V655.545H227.97V685.602ZM197.537 685.602H167.48V655.545H197.537V685.602ZM167.104 685.602H137.047V655.545H167.104V685.602ZM136.671 685.602H106.614V655.545H136.671V685.602ZM106.239 685.602H76.1814V655.545H106.239V685.602ZM75.8057 685.602H45.7486V655.545H75.8057V685.602ZM45.3728 685.602H15.3157V655.545H45.3728V685.602ZM14.94 685.602H-15.1171V655.545H14.94V685.602ZM-15.4929 685.602H-45.55V655.545H-15.4929V685.602ZM-45.9257 685.602H-75.9829V655.545H-45.9257V685.602ZM958.359 655.169H928.301V625.112H958.359V655.169ZM927.926 655.169H897.869V625.112H927.926V655.169ZM897.493 655.169H867.436V625.112H897.493V655.169ZM867.06 655.169H837.003V625.112H867.06V655.169ZM836.627 655.169H806.57V625.112H836.627V655.169ZM806.194 655.169H776.137V625.112H806.194V655.169ZM775.761 655.169H745.704V625.112H775.761V655.169ZM745.329 655.169H715.271V625.112H745.329V655.169ZM714.896 655.169H684.839V625.112H714.896V655.169ZM684.463 655.169H654.406V625.112H684.463V655.169ZM654.03 655.169H623.973V625.112H654.03V655.169ZM623.597 655.169H593.54V625.112H623.597V655.169ZM593.164 655.169H563.107V625.112H593.164V655.169ZM562.731 655.169H532.674V625.112H562.731V655.169ZM532.299 655.169H502.241V625.112H532.299V655.169ZM501.866 655.169H471.809V625.112H501.866V655.169ZM471.433 655.169H441.376V625.112H471.433V655.169ZM441 655.169H410.943V625.112H441V655.169ZM410.567 655.169H380.51V625.112H410.567V655.169ZM380.134 655.169H350.077V625.112H380.134V655.169ZM349.701 655.169H319.644V625.112H349.701V655.169ZM319.269 655.169H289.211V625.112H319.269V655.169ZM288.836 655.169H258.779V625.112H288.836V655.169ZM258.403 655.169H228.346V625.112H258.403V655.169ZM227.97 655.169H197.913V625.112H227.97V655.169ZM197.537 655.169H167.48V625.112H197.537V655.169ZM167.104 655.169H137.047V625.112H167.104V655.169ZM136.671 655.169H106.614V625.112H136.671V655.169ZM106.239 655.169H76.1814V625.112H106.239V655.169ZM75.8057 655.169H45.7486V625.112H75.8057V655.169ZM45.3728 655.169H15.3157V625.112H45.3728V655.169ZM14.94 655.169H-15.1171V625.112H14.94V655.169ZM-15.4929 655.169H-45.55V625.112H-15.4929V655.169ZM-45.9257 655.169H-75.9829V625.112H-45.9257V655.169ZM958.359 624.736H928.301V594.679H958.359V624.736ZM927.926 624.736H897.869V594.679H927.926V624.736ZM897.493 624.736H867.436V594.679H897.493V624.736ZM867.06 624.736H837.003V594.679H867.06V624.736ZM836.627 624.736H806.57V594.679H836.627V624.736ZM806.194 624.736H776.137V594.679H806.194V624.736ZM775.761 624.736H745.704V594.679H775.761V624.736ZM745.329 624.736H715.271V594.679H745.329V624.736ZM714.896 624.736H684.839V594.679H714.896V624.736ZM684.463 624.736H654.406V594.679H684.463V624.736ZM654.03 624.736H623.973V594.679H654.03V624.736ZM623.597 624.736H593.54V594.679H623.597V624.736ZM593.164 624.736H563.107V594.679H593.164V624.736ZM562.731 624.736H532.674V594.679H562.731V624.736ZM532.299 624.736H502.241V594.679H532.299V624.736ZM501.866 624.736H471.809V594.679H501.866V624.736ZM471.433 624.736H441.376V594.679H471.433V624.736ZM441 624.736H410.943V594.679H441V624.736ZM410.567 624.736H380.51V594.679H410.567V624.736ZM380.134 624.736H350.077V594.679H380.134V624.736ZM349.701 624.736H319.644V594.679H349.701V624.736ZM319.269 624.736H289.211V594.679H319.269V624.736ZM288.836 624.736H258.779V594.679H288.836V624.736ZM258.403 624.736H228.346V594.679H258.403V624.736ZM227.97 624.736H197.913V594.679H227.97V624.736ZM197.537 624.736H167.48V594.679H197.537V624.736ZM167.104 624.736H137.047V594.679H167.104V624.736ZM136.671 624.736H106.614V594.679H136.671V624.736ZM106.239 624.736H76.1814V594.679H106.239V624.736ZM75.8057 624.736H45.7486V594.679H75.8057V624.736ZM45.3728 624.736H15.3157V594.679H45.3728V624.736ZM14.94 624.736H-15.1171V594.679H14.94V624.736ZM-15.4929 624.736H-45.55V594.679H-15.4929V624.736ZM-45.9257 624.736H-75.9829V594.679H-45.9257V624.736ZM958.359 594.304H928.301V564.246H958.359V594.304ZM927.926 594.304H897.869V564.246H927.926V594.304ZM897.493 594.304H867.436V564.246H897.493V594.304ZM867.06 594.304H837.003V564.246H867.06V594.304ZM836.627 594.304H806.57V564.246H836.627V594.304ZM806.194 594.304H776.137V564.246H806.194V594.304ZM775.761 594.304H745.704V564.246H775.761V594.304ZM745.329 594.304H715.271V564.246H745.329V594.304ZM714.896 594.304H684.839V564.246H714.896V594.304ZM684.463 594.304H654.406V564.246H684.463V594.304ZM654.03 594.304H623.973V564.246H654.03V594.304ZM623.597 594.304H593.54V564.246H623.597V594.304ZM593.164 594.304H563.107V564.246H593.164V594.304ZM562.731 594.304H532.674V564.246H562.731V594.304ZM532.299 594.304H502.241V564.246H532.299V594.304ZM501.866 594.304H471.809V564.246H501.866V594.304ZM471.433 594.304H441.376V564.246H471.433V594.304ZM441 594.304H410.943V564.246H441V594.304ZM410.567 594.304H380.51V564.246H410.567V594.304ZM380.134 594.304H350.077V564.246H380.134V594.304ZM349.701 594.304H319.644V564.246H349.701V594.304ZM319.269 594.304H289.211V564.246H319.269V594.304ZM288.836 594.304H258.779V564.246H288.836V594.304ZM258.403 594.304H228.346V564.246H258.403V594.304ZM227.97 594.304H197.913V564.246H227.97V594.304ZM197.537 594.304H167.48V564.246H197.537V594.304ZM167.104 594.304H137.047V564.246H167.104V594.304ZM136.671 594.304H106.614V564.246H136.671V594.304ZM106.239 594.304H76.1814V564.246H106.239V594.304ZM75.8057 594.304H45.7486V564.246H75.8057V594.304ZM45.3728 594.304H15.3157V564.246H45.3728V594.304ZM14.94 594.304H-15.1171V564.246H14.94V594.304ZM-15.4929 594.304H-45.55V564.246H-15.4929V594.304ZM-45.9257 594.304H-75.9829V564.246H-45.9257V594.304ZM958.359 563.871H928.301V533.814H958.359V563.871ZM927.926 563.871H897.869V533.814H927.926V563.871ZM897.493 563.871H867.436V533.814H897.493V563.871ZM867.06 563.871H837.003V533.814H867.06V563.871ZM836.627 563.871H806.57V533.814H836.627V563.871ZM806.194 563.871H776.137V533.814H806.194V563.871ZM775.761 563.871H745.704V533.814H775.761V563.871ZM745.329 563.871H715.271V533.814H745.329V563.871ZM714.896 563.871H684.839V533.814H714.896V563.871ZM684.463 563.871H654.406V533.814H684.463V563.871ZM654.03 563.871H623.973V533.814H654.03V563.871ZM623.597 563.871H593.54V533.814H623.597V563.871ZM593.164 563.871H563.107V533.814H593.164V563.871ZM562.731 563.871H532.674V533.814H562.731V563.871ZM532.299 563.871H502.241V533.814H532.299V563.871ZM501.866 563.871H471.809V533.814H501.866V563.871ZM471.433 563.871H441.376V533.814H471.433V563.871ZM441 563.871H410.943V533.814H441V563.871ZM410.567 563.871H380.51V533.814H410.567V563.871ZM380.134 563.871H350.077V533.814H380.134V563.871ZM349.701 563.871H319.644V533.814H349.701V563.871ZM319.269 563.871H289.211V533.814H319.269V563.871ZM288.836 563.871H258.779V533.814H288.836V563.871ZM258.403 563.871H228.346V533.814H258.403V563.871ZM227.97 563.871H197.913V533.814H227.97V563.871ZM197.537 563.871H167.48V533.814H197.537V563.871ZM167.104 563.871H137.047V533.814H167.104V563.871ZM136.671 563.871H106.614V533.814H136.671V563.871ZM106.239 563.871H76.1814V533.814H106.239V563.871ZM75.8057 563.871H45.7486V533.814H75.8057V563.871ZM45.3728 563.871H15.3157V533.814H45.3728V563.871ZM14.94 563.871H-15.1171V533.814H14.94V563.871ZM-15.4929 563.871H-45.55V533.814H-15.4929V563.871ZM-45.9257 563.871H-75.9829V533.814H-45.9257V563.871ZM958.359 533.438H928.301V503.381H958.359V533.438ZM927.926 533.438H897.869V503.381H927.926V533.438ZM897.493 533.438H867.436V503.381H897.493V533.438ZM867.06 533.438H837.003V503.381H867.06V533.438ZM836.627 533.438H806.57V503.381H836.627V533.438ZM806.194 533.438H776.137V503.381H806.194V533.438ZM775.761 533.438H745.704V503.381H775.761V533.438ZM745.329 533.438H715.271V503.381H745.329V533.438ZM714.896 533.438H684.839V503.381H714.896V533.438ZM684.463 533.438H654.406V503.381H684.463V533.438ZM654.03 533.438H623.973V503.381H654.03V533.438ZM623.597 533.438H593.54V503.381H623.597V533.438ZM593.164 533.438H563.107V503.381H593.164V533.438ZM562.731 533.438H532.674V503.381H562.731V533.438ZM532.299 533.438H502.241V503.381H532.299V533.438ZM501.866 533.438H471.809V503.381H501.866V533.438ZM471.433 533.438H441.376V503.381H471.433V533.438ZM441 533.438H410.943V503.381H441V533.438ZM410.567 533.438H380.51V503.381H410.567V533.438ZM380.134 533.438H350.077V503.381H380.134V533.438ZM349.701 533.438H319.644V503.381H349.701V533.438ZM319.269 533.438H289.211V503.381H319.269V533.438ZM288.836 533.438H258.779V503.381H288.836V533.438ZM258.403 533.438H228.346V503.381H258.403V533.438ZM227.97 533.438H197.913V503.381H227.97V533.438ZM197.537 533.438H167.48V503.381H197.537V533.438ZM167.104 533.438H137.047V503.381H167.104V533.438ZM136.671 533.438H106.614V503.381H136.671V533.438ZM106.239 533.438H76.1814V503.381H106.239V533.438ZM75.8057 533.438H45.7486V503.381H75.8057V533.438ZM45.3728 533.438H15.3157V503.381H45.3728V533.438ZM14.94 533.438H-15.1171V503.381H14.94V533.438ZM-15.4929 533.438H-45.55V503.381H-15.4929V533.438ZM-45.9257 533.438H-75.9829V503.381H-45.9257V533.438ZM958.359 503.005H928.301V472.948H958.359V503.005ZM927.926 503.005H897.869V472.948H927.926V503.005ZM897.493 503.005H867.436V472.948H897.493V503.005ZM867.06 503.005H837.003V472.948H867.06V503.005ZM836.627 503.005H806.57V472.948H836.627V503.005ZM806.194 503.005H776.137V472.948H806.194V503.005ZM775.761 503.005H745.704V472.948H775.761V503.005ZM745.329 503.005H715.271V472.948H745.329V503.005ZM714.896 503.005H684.839V472.948H714.896V503.005ZM684.463 503.005H654.406V472.948H684.463V503.005ZM654.03 503.005H623.973V472.948H654.03V503.005ZM623.597 503.005H593.54V472.948H623.597V503.005ZM593.164 503.005H563.107V472.948H593.164V503.005ZM562.731 503.005H532.674V472.948H562.731V503.005ZM532.299 503.005H502.241V472.948H532.299V503.005ZM501.866 503.005H471.809V472.948H501.866V503.005ZM471.433 503.005H441.376V472.948H471.433V503.005ZM441 503.005H410.943V472.948H441V503.005ZM410.567 503.005H380.51V472.948H410.567V503.005ZM380.134 503.005H350.077V472.948H380.134V503.005ZM349.701 503.005H319.644V472.948H349.701V503.005ZM319.269 503.005H289.211V472.948H319.269V503.005ZM288.836 503.005H258.779V472.948H288.836V503.005ZM258.403 503.005H228.346V472.948H258.403V503.005ZM227.97 503.005H197.913V472.948H227.97V503.005ZM197.537 503.005H167.48V472.948H197.537V503.005ZM167.104 503.005H137.047V472.948H167.104V503.005ZM136.671 503.005H106.614V472.948H136.671V503.005ZM106.239 503.005H76.1814V472.948H106.239V503.005ZM75.8057 503.005H45.7486V472.948H75.8057V503.005ZM45.3728 503.005H15.3157V472.948H45.3728V503.005ZM14.94 503.005H-15.1171V472.948H14.94V503.005ZM-15.4929 503.005H-45.55V472.948H-15.4929V503.005ZM-45.9257 503.005H-75.9829V472.948H-45.9257V503.005ZM958.359 472.572H928.301V442.515H958.359V472.572ZM927.926 472.572H897.869V442.515H927.926V472.572ZM897.493 472.572H867.436V442.515H897.493V472.572ZM867.06 472.572H837.003V442.515H867.06V472.572ZM836.627 472.572H806.57V442.515H836.627V472.572ZM806.194 472.572H776.137V442.515H806.194V472.572ZM775.761 472.572H745.704V442.515H775.761V472.572ZM745.329 472.572H715.271V442.515H745.329V472.572ZM714.896 472.572H684.839V442.515H714.896V472.572ZM684.463 472.572H654.406V442.515H684.463V472.572ZM654.03 472.572H623.973V442.515H654.03V472.572ZM623.597 472.572H593.54V442.515H623.597V472.572ZM593.164 472.572H563.107V442.515H593.164V472.572ZM562.731 472.572H532.674V442.515H562.731V472.572ZM532.299 472.572H502.241V442.515H532.299V472.572ZM501.866 472.572H471.809V442.515H501.866V472.572ZM471.433 472.572H441.376V442.515H471.433V472.572ZM441 472.572H410.943V442.515H441V472.572ZM410.567 472.572H380.51V442.515H410.567V472.572ZM380.134 472.572H350.077V442.515H380.134V472.572ZM349.701 472.572H319.644V442.515H349.701V472.572ZM319.269 472.572H289.211V442.515H319.269V472.572ZM288.836 472.572H258.779V442.515H288.836V472.572ZM258.403 472.572H228.346V442.515H258.403V472.572ZM227.97 472.572H197.913V442.515H227.97V472.572ZM197.537 472.572H167.48V442.515H197.537V472.572ZM167.104 472.572H137.047V442.515H167.104V472.572ZM136.671 472.572H106.614V442.515H136.671V472.572ZM106.239 472.572H76.1814V442.515H106.239V472.572ZM75.8057 472.572H45.7486V442.515H75.8057V472.572ZM45.3728 472.572H15.3157V442.515H45.3728V472.572ZM14.94 472.572H-15.1171V442.515H14.94V472.572ZM-15.4929 472.572H-45.55V442.515H-15.4929V472.572ZM-45.9257 472.572H-75.9829V442.515H-45.9257V472.572ZM958.359 442.139H928.301V412.082H958.359V442.139ZM927.926 442.139H897.869V412.082H927.926V442.139ZM897.493 442.139H867.436V412.082H897.493V442.139ZM867.06 442.139H837.003V412.082H867.06V442.139ZM836.627 442.139H806.57V412.082H836.627V442.139ZM806.194 442.139H776.137V412.082H806.194V442.139ZM775.761 442.139H745.704V412.082H775.761V442.139ZM745.329 442.139H715.271V412.082H745.329V442.139ZM714.896 442.139H684.839V412.082H714.896V442.139ZM684.463 442.139H654.406V412.082H684.463V442.139ZM654.03 442.139H623.973V412.082H654.03V442.139ZM623.597 442.139H593.54V412.082H623.597V442.139ZM593.164 442.139H563.107V412.082H593.164V442.139ZM562.731 442.139H532.674V412.082H562.731V442.139ZM532.299 442.139H502.241V412.082H532.299V442.139ZM501.866 442.139H471.809V412.082H501.866V442.139ZM471.433 442.139H441.376V412.082H471.433V442.139ZM441 442.139H410.943V412.082H441V442.139ZM410.567 442.139H380.51V412.082H410.567V442.139ZM380.134 442.139H350.077V412.082H380.134V442.139ZM349.701 442.139H319.644V412.082H349.701V442.139ZM319.269 442.139H289.211V412.082H319.269V442.139ZM288.836 442.139H258.779V412.082H288.836V442.139ZM258.403 442.139H228.346V412.082H258.403V442.139ZM227.97 442.139H197.913V412.082H227.97V442.139ZM197.537 442.139H167.48V412.082H197.537V442.139ZM167.104 442.139H137.047V412.082H167.104V442.139ZM136.671 442.139H106.614V412.082H136.671V442.139ZM106.239 442.139H76.1814V412.082H106.239V442.139ZM75.8057 442.139H45.7486V412.082H75.8057V442.139ZM45.3728 442.139H15.3157V412.082H45.3728V442.139ZM14.94 442.139H-15.1171V412.082H14.94V442.139ZM-15.4929 442.139H-45.55V412.082H-15.4929V442.139ZM-45.9257 442.139H-75.9829V412.082H-45.9257V442.139ZM958.359 411.706H928.301V381.649H958.359V411.706ZM927.926 411.706H897.869V381.649H927.926V411.706ZM897.493 411.706H867.436V381.649H897.493V411.706ZM867.06 411.706H837.003V381.649H867.06V411.706ZM836.627 411.706H806.57V381.649H836.627V411.706ZM806.194 411.706H776.137V381.649H806.194V411.706ZM775.761 411.706H745.704V381.649H775.761V411.706ZM745.329 411.706H715.271V381.649H745.329V411.706ZM714.896 411.706H684.839V381.649H714.896V411.706ZM684.463 411.706H654.406V381.649H684.463V411.706ZM654.03 411.706H623.973V381.649H654.03V411.706ZM623.597 411.706H593.54V381.649H623.597V411.706ZM593.164 411.706H563.107V381.649H593.164V411.706ZM562.731 411.706H532.674V381.649H562.731V411.706ZM532.299 411.706H502.241V381.649H532.299V411.706ZM501.866 411.706H471.809V381.649H501.866V411.706ZM471.433 411.706H441.376V381.649H471.433V411.706ZM441 411.706H410.943V381.649H441V411.706ZM410.567 411.706H380.51V381.649H410.567V411.706ZM380.134 411.706H350.077V381.649H380.134V411.706ZM349.701 411.706H319.644V381.649H349.701V411.706ZM319.269 411.706H289.211V381.649H319.269V411.706ZM288.836 411.706H258.779V381.649H288.836V411.706ZM258.403 411.706H228.346V381.649H258.403V411.706ZM227.97 411.706H197.913V381.649H227.97V411.706ZM197.537 411.706H167.48V381.649H197.537V411.706ZM167.104 411.706H137.047V381.649H167.104V411.706ZM136.671 411.706H106.614V381.649H136.671V411.706ZM106.239 411.706H76.1814V381.649H106.239V411.706ZM75.8057 411.706H45.7486V381.649H75.8057V411.706ZM45.3728 411.706H15.3157V381.649H45.3728V411.706ZM14.94 411.706H-15.1171V381.649H14.94V411.706ZM-15.4929 411.706H-45.55V381.649H-15.4929V411.706ZM-45.9257 411.706H-75.9829V381.649H-45.9257V411.706ZM958.359 381.274H928.301V351.216H958.359V381.274ZM927.926 381.274H897.869V351.216H927.926V381.274ZM897.493 381.274H867.436V351.216H897.493V381.274ZM867.06 381.274H837.003V351.216H867.06V381.274ZM836.627 381.274H806.57V351.216H836.627V381.274ZM806.194 381.274H776.137V351.216H806.194V381.274ZM775.761 381.274H745.704V351.216H775.761V381.274ZM745.329 381.274H715.271V351.216H745.329V381.274ZM714.896 381.274H684.839V351.216H714.896V381.274ZM684.463 381.274H654.406V351.216H684.463V381.274ZM654.03 381.274H623.973V351.216H654.03V381.274ZM623.597 381.274H593.54V351.216H623.597V381.274ZM593.164 381.274H563.107V351.216H593.164V381.274ZM562.731 381.274H532.674V351.216H562.731V381.274ZM532.299 381.274H502.241V351.216H532.299V381.274ZM501.866 289.975H499.611V290.351H501.866V320.408H499.611V320.784H501.866V350.841H499.611V351.216H501.866V381.274H471.809V379.583H471.433V381.274H441.376V379.583H441V381.274H410.943V379.583H410.567V381.274H380.51V351.216H382.389V350.841H380.51V320.784H382.389V320.408H380.51V290.351H382.389V289.975H380.51V259.918H410.567V261.609H410.943V259.918H441V261.609H441.376V259.918H471.433V261.609H471.809V259.918H501.866V289.975ZM380.134 381.274H350.077V351.216H380.134V381.274ZM349.701 381.274H319.644V351.216H349.701V381.274ZM319.269 381.274H289.211V351.216H319.269V381.274ZM288.836 381.274H258.779V351.216H288.836V381.274ZM258.403 381.274H228.346V351.216H258.403V381.274ZM227.97 381.274H197.913V351.216H227.97V381.274ZM197.537 381.274H167.48V351.216H197.537V381.274ZM167.104 381.274H137.047V351.216H167.104V381.274ZM136.671 381.274H106.614V351.216H136.671V381.274ZM106.239 381.274H76.1814V351.216H106.239V381.274ZM75.8057 381.274H45.7486V351.216H75.8057V381.274ZM45.3728 381.274H15.3157V351.216H45.3728V381.274ZM14.94 381.274H-15.1171V351.216H14.94V381.274ZM-15.4929 381.274H-45.55V351.216H-15.4929V381.274ZM-45.9257 381.274H-75.9829V351.216H-45.9257V381.274ZM958.359 350.841H928.301V320.784H958.359V350.841ZM927.926 350.841H897.869V320.784H927.926V350.841ZM897.493 350.841H867.436V320.784H897.493V350.841ZM867.06 350.841H837.003V320.784H867.06V350.841ZM836.627 350.841H806.57V320.784H836.627V350.841ZM806.194 350.841H776.137V320.784H806.194V350.841ZM775.761 350.841H745.704V320.784H775.761V350.841ZM745.329 350.841H715.271V320.784H745.329V350.841ZM714.896 350.841H684.839V320.784H714.896V350.841ZM684.463 350.841H654.406V320.784H684.463V350.841ZM654.03 350.841H623.973V320.784H654.03V350.841ZM623.597 350.841H593.54V320.784H623.597V350.841ZM593.164 350.841H563.107V320.784H593.164V350.841ZM562.731 350.841H532.674V320.784H562.731V350.841ZM532.299 350.841H502.241V320.784H532.299V350.841ZM380.134 350.841H350.077V320.784H380.134V350.841ZM349.701 350.841H319.644V320.784H349.701V350.841ZM319.269 350.841H289.211V320.784H319.269V350.841ZM288.836 350.841H258.779V320.784H288.836V350.841ZM258.403 350.841H228.346V320.784H258.403V350.841ZM227.97 350.841H197.913V320.784H227.97V350.841ZM197.537 350.841H167.48V320.784H197.537V350.841ZM167.104 350.841H137.047V320.784H167.104V350.841ZM136.671 350.841H106.614V320.784H136.671V350.841ZM106.239 350.841H76.1814V320.784H106.239V350.841ZM75.8057 350.841H45.7486V320.784H75.8057V350.841ZM45.3728 350.841H15.3157V320.784H45.3728V350.841ZM14.94 350.841H-15.1171V320.784H14.94V350.841ZM-15.4929 350.841H-45.55V320.784H-15.4929V350.841ZM-45.9257 350.841H-75.9829V320.784H-45.9257V350.841ZM958.359 320.408H928.301V290.351H958.359V320.408ZM927.926 320.408H897.869V290.351H927.926V320.408ZM897.493 320.408H867.436V290.351H897.493V320.408ZM867.06 320.408H837.003V290.351H867.06V320.408ZM836.627 320.408H806.57V290.351H836.627V320.408ZM806.194 320.408H776.137V290.351H806.194V320.408ZM775.761 320.408H745.704V290.351H775.761V320.408ZM745.329 320.408H715.271V290.351H745.329V320.408ZM714.896 320.408H684.839V290.351H714.896V320.408ZM684.463 320.408H654.406V290.351H684.463V320.408ZM654.03 320.408H623.973V290.351H654.03V320.408ZM623.597 320.408H593.54V290.351H623.597V320.408ZM593.164 320.408H563.107V290.351H593.164V320.408ZM562.731 320.408H532.674V290.351H562.731V320.408ZM532.299 320.408H502.241V290.351H532.299V320.408ZM380.134 320.408H350.077V290.351H380.134V320.408ZM349.701 320.408H319.644V290.351H349.701V320.408ZM319.269 320.408H289.211V290.351H319.269V320.408ZM288.836 320.408H258.779V290.351H288.836V320.408ZM258.403 320.408H228.346V290.351H258.403V320.408ZM227.97 320.408H197.913V290.351H227.97V320.408ZM197.537 320.408H167.48V290.351H197.537V320.408ZM167.104 320.408H137.047V290.351H167.104V320.408ZM136.671 320.408H106.614V290.351H136.671V320.408ZM106.239 320.408H76.1814V290.351H106.239V320.408ZM75.8057 320.408H45.7486V290.351H75.8057V320.408ZM45.3728 320.408H15.3157V290.351H45.3728V320.408ZM14.94 320.408H-15.1171V290.351H14.94V320.408ZM-15.4929 320.408H-45.55V290.351H-15.4929V320.408ZM-45.9257 320.408H-75.9829V290.351H-45.9257V320.408ZM958.359 289.975H928.301V259.918H958.359V289.975ZM927.926 289.975H897.869V259.918H927.926V289.975ZM897.493 289.975H867.436V259.918H897.493V289.975ZM867.06 289.975H837.003V259.918H867.06V289.975ZM836.627 289.975H806.57V259.918H836.627V289.975ZM806.194 289.975H776.137V259.918H806.194V289.975ZM775.761 289.975H745.704V259.918H775.761V289.975ZM745.329 289.975H715.271V259.918H745.329V289.975ZM714.896 289.975H684.839V259.918H714.896V289.975ZM684.463 289.975H654.406V259.918H684.463V289.975ZM654.03 289.975H623.973V259.918H654.03V289.975ZM623.597 289.975H593.54V259.918H623.597V289.975ZM593.164 289.975H563.107V259.918H593.164V289.975ZM562.731 289.975H532.674V259.918H562.731V289.975ZM532.299 289.975H502.241V259.918H532.299V289.975ZM380.134 289.975H350.077V259.918H380.134V289.975ZM349.701 289.975H319.644V259.918H349.701V289.975ZM319.269 289.975H289.211V259.918H319.269V289.975ZM288.836 289.975H258.779V259.918H288.836V289.975ZM258.403 289.975H228.346V259.918H258.403V289.975ZM227.97 289.975H197.913V259.918H227.97V289.975ZM197.537 289.975H167.48V259.918H197.537V289.975ZM167.104 289.975H137.047V259.918H167.104V289.975ZM136.671 289.975H106.614V259.918H136.671V289.975ZM106.239 289.975H76.1814V259.918H106.239V289.975ZM75.8057 289.975H45.7486V259.918H75.8057V289.975ZM45.3728 289.975H15.3157V259.918H45.3728V289.975ZM14.94 289.975H-15.1171V259.918H14.94V289.975ZM-15.4929 289.975H-45.55V259.918H-15.4929V289.975ZM-45.9257 289.975H-75.9829V259.918H-45.9257V289.975ZM958.359 259.542H928.301V229.485H958.359V259.542ZM927.926 259.542H897.869V229.485H927.926V259.542ZM897.493 259.542H867.436V229.485H897.493V259.542ZM867.06 259.542H837.003V229.485H867.06V259.542ZM836.627 259.542H806.57V229.485H836.627V259.542ZM806.194 259.542H776.137V229.485H806.194V259.542ZM775.761 259.542H745.704V229.485H775.761V259.542ZM745.329 259.542H715.271V229.485H745.329V259.542ZM714.896 259.542H684.839V229.485H714.896V259.542ZM684.463 259.542H654.406V229.485H684.463V259.542ZM654.03 259.542H623.973V229.485H654.03V259.542ZM623.597 259.542H593.54V229.485H623.597V259.542ZM593.164 259.542H563.107V229.485H593.164V259.542ZM562.731 259.542H532.674V229.485H562.731V259.542ZM532.299 259.542H502.241V229.485H532.299V259.542ZM501.866 259.542H471.809V229.485H501.866V259.542ZM471.433 259.542H441.376V229.485H471.433V259.542ZM441 259.542H410.943V229.485H441V259.542ZM410.567 259.542H380.51V229.485H410.567V259.542ZM380.134 259.542H350.077V229.485H380.134V259.542ZM349.701 259.542H319.644V229.485H349.701V259.542ZM319.269 259.542H289.211V229.485H319.269V259.542ZM288.836 259.542H258.779V229.485H288.836V259.542ZM258.403 259.542H228.346V229.485H258.403V259.542ZM227.97 259.542H197.913V229.485H227.97V259.542ZM197.537 259.542H167.48V229.485H197.537V259.542ZM167.104 259.542H137.047V229.485H167.104V259.542ZM136.671 259.542H106.614V229.485H136.671V259.542ZM106.239 259.542H76.1814V229.485H106.239V259.542ZM75.8057 259.542H45.7486V229.485H75.8057V259.542ZM45.3728 259.542H15.3157V229.485H45.3728V259.542ZM14.94 259.542H-15.1171V229.485H14.94V259.542ZM-15.4929 259.542H-45.55V229.485H-15.4929V259.542ZM-45.9257 259.542H-75.9829V229.485H-45.9257V259.542ZM958.359 229.109H928.301V199.052H958.359V229.109ZM927.926 229.109H897.869V199.052H927.926V229.109ZM897.493 229.109H867.436V199.052H897.493V229.109ZM867.06 229.109H837.003V199.052H867.06V229.109ZM836.627 229.109H806.57V199.052H836.627V229.109ZM806.194 229.109H776.137V199.052H806.194V229.109ZM775.761 229.109H745.704V199.052H775.761V229.109ZM745.329 229.109H715.271V199.052H745.329V229.109ZM714.896 229.109H684.839V199.052H714.896V229.109ZM684.463 229.109H654.406V199.052H684.463V229.109ZM654.03 229.109H623.973V199.052H654.03V229.109ZM623.597 229.109H593.54V199.052H623.597V229.109ZM593.164 229.109H563.107V199.052H593.164V229.109ZM562.731 229.109H532.674V199.052H562.731V229.109ZM532.299 229.109H502.241V199.052H532.299V229.109ZM501.866 229.109H471.809V199.052H501.866V229.109ZM471.433 229.109H441.376V199.052H471.433V229.109ZM441 229.109H410.943V199.052H441V229.109ZM410.567 229.109H380.51V199.052H410.567V229.109ZM380.134 229.109H350.077V199.052H380.134V229.109ZM349.701 229.109H319.644V199.052H349.701V229.109ZM319.269 229.109H289.211V199.052H319.269V229.109ZM288.836 229.109H258.779V199.052H288.836V229.109ZM258.403 229.109H228.346V199.052H258.403V229.109ZM227.97 229.109H197.913V199.052H227.97V229.109ZM197.537 229.109H167.48V199.052H197.537V229.109ZM167.104 229.109H137.047V199.052H167.104V229.109ZM136.671 229.109H106.614V199.052H136.671V229.109ZM106.239 229.109H76.1814V199.052H106.239V229.109ZM75.8057 229.109H45.7486V199.052H75.8057V229.109ZM45.3728 229.109H15.3157V199.052H45.3728V229.109ZM14.94 229.109H-15.1171V199.052H14.94V229.109ZM-15.4929 229.109H-45.55V199.052H-15.4929V229.109ZM-45.9257 229.109H-75.9829V199.052H-45.9257V229.109ZM958.359 198.676H928.301V168.619H958.359V198.676ZM927.926 198.676H897.869V168.619H927.926V198.676ZM897.493 198.676H867.436V168.619H897.493V198.676ZM867.06 198.676H837.003V168.619H867.06V198.676ZM836.627 198.676H806.57V168.619H836.627V198.676ZM806.194 198.676H776.137V168.619H806.194V198.676ZM775.761 198.676H745.704V168.619H775.761V198.676ZM745.329 198.676H715.271V168.619H745.329V198.676ZM714.896 198.676H684.839V168.619H714.896V198.676ZM684.463 198.676H654.406V168.619H684.463V198.676ZM654.03 198.676H623.973V168.619H654.03V198.676ZM623.597 198.676H593.54V168.619H623.597V198.676ZM593.164 198.676H563.107V168.619H593.164V198.676ZM562.731 198.676H532.674V168.619H562.731V198.676ZM532.299 198.676H502.241V168.619H532.299V198.676ZM501.866 198.676H471.809V168.619H501.866V198.676ZM471.433 198.676H441.376V168.619H471.433V198.676ZM441 198.676H410.943V168.619H441V198.676ZM410.567 198.676H380.51V168.619H410.567V198.676ZM380.134 198.676H350.077V168.619H380.134V198.676ZM349.701 198.676H319.644V168.619H349.701V198.676ZM319.269 198.676H289.211V168.619H319.269V198.676ZM288.836 198.676H258.779V168.619H288.836V198.676ZM258.403 198.676H228.346V168.619H258.403V198.676ZM227.97 198.676H197.913V168.619H227.97V198.676ZM197.537 198.676H167.48V168.619H197.537V198.676ZM167.104 198.676H137.047V168.619H167.104V198.676ZM136.671 198.676H106.614V168.619H136.671V198.676ZM106.239 198.676H76.1814V168.619H106.239V198.676ZM75.8057 198.676H45.7486V168.619H75.8057V198.676ZM45.3728 198.676H15.3157V168.619H45.3728V198.676ZM14.94 198.676H-15.1171V168.619H14.94V198.676ZM-15.4929 198.676H-45.55V168.619H-15.4929V198.676ZM-45.9257 198.676H-75.9829V168.619H-45.9257V198.676ZM958.359 168.244H928.301V138.186H958.359V168.244ZM927.926 168.244H897.869V138.186H927.926V168.244ZM897.493 168.244H867.436V138.186H897.493V168.244ZM867.06 168.244H837.003V138.186H867.06V168.244ZM836.627 168.244H806.57V138.186H836.627V168.244ZM806.194 168.244H776.137V138.186H806.194V168.244ZM775.761 168.244H745.704V138.186H775.761V168.244ZM745.329 168.244H715.271V138.186H745.329V168.244ZM714.896 168.244H684.839V138.186H714.896V168.244ZM684.463 168.244H654.406V138.186H684.463V168.244ZM654.03 168.244H623.973V138.186H654.03V168.244ZM623.597 168.244H593.54V138.186H623.597V168.244ZM593.164 168.244H563.107V138.186H593.164V168.244ZM562.731 168.244H532.674V138.186H562.731V168.244ZM532.299 168.244H502.241V138.186H532.299V168.244ZM501.866 168.244H471.809V138.186H501.866V168.244ZM471.433 168.244H441.376V138.186H471.433V168.244ZM441 168.244H410.943V138.186H441V168.244ZM410.567 168.244H380.51V138.186H410.567V168.244ZM380.134 168.244H350.077V138.186H380.134V168.244ZM349.701 168.244H319.644V138.186H349.701V168.244ZM319.269 168.244H289.211V138.186H319.269V168.244ZM288.836 168.244H258.779V138.186H288.836V168.244ZM258.403 168.244H228.346V138.186H258.403V168.244ZM227.97 168.244H197.913V138.186H227.97V168.244ZM197.537 168.244H167.48V138.186H197.537V168.244ZM167.104 168.244H137.047V138.186H167.104V168.244ZM136.671 168.244H106.614V138.186H136.671V168.244ZM106.239 168.244H76.1814V138.186H106.239V168.244ZM75.8057 168.244H45.7486V138.186H75.8057V168.244ZM45.3728 168.244H15.3157V138.186H45.3728V168.244ZM14.94 168.244H-15.1171V138.186H14.94V168.244ZM-15.4929 168.244H-45.55V138.186H-15.4929V168.244ZM-45.9257 168.244H-75.9829V138.186H-45.9257V168.244ZM958.359 137.811H928.301V107.754H958.359V137.811ZM927.926 137.811H897.869V107.754H927.926V137.811ZM897.493 137.811H867.436V107.754H897.493V137.811ZM867.06 137.811H837.003V107.754H867.06V137.811ZM836.627 137.811H806.57V107.754H836.627V137.811ZM806.194 137.811H776.137V107.754H806.194V137.811ZM775.761 137.811H745.704V107.754H775.761V137.811ZM745.329 137.811H715.271V107.754H745.329V137.811ZM714.896 137.811H684.839V107.754H714.896V137.811ZM684.463 137.811H654.406V107.754H684.463V137.811ZM654.03 137.811H623.973V107.754H654.03V137.811ZM623.597 137.811H593.54V107.754H623.597V137.811ZM593.164 137.811H563.107V107.754H593.164V137.811ZM562.731 137.811H532.674V107.754H562.731V137.811ZM532.299 137.811H502.241V107.754H532.299V137.811ZM501.866 137.811H471.809V107.754H501.866V137.811ZM471.433 137.811H441.376V107.754H471.433V137.811ZM441 137.811H410.943V107.754H441V137.811ZM410.567 137.811H380.51V107.754H410.567V137.811ZM380.134 137.811H350.077V107.754H380.134V137.811ZM349.701 137.811H319.644V107.754H349.701V137.811ZM319.269 137.811H289.211V107.754H319.269V137.811ZM288.836 137.811H258.779V107.754H288.836V137.811ZM258.403 137.811H228.346V107.754H258.403V137.811ZM227.97 137.811H197.913V107.754H227.97V137.811ZM197.537 137.811H167.48V107.754H197.537V137.811ZM167.104 137.811H137.047V107.754H167.104V137.811ZM136.671 137.811H106.614V107.754H136.671V137.811ZM106.239 137.811H76.1814V107.754H106.239V137.811ZM75.8057 137.811H45.7486V107.754H75.8057V137.811ZM45.3728 137.811H15.3157V107.754H45.3728V137.811ZM14.94 137.811H-15.1171V107.754H14.94V137.811ZM-15.4929 137.811H-45.55V107.754H-15.4929V137.811ZM-45.9257 137.811H-75.9829V107.754H-45.9257V137.811ZM958.359 107.378H928.301V77.3207H958.359V107.378ZM927.926 107.378H897.869V77.3207H927.926V107.378ZM897.493 107.378H867.436V77.3207H897.493V107.378ZM867.06 107.378H837.003V77.3207H867.06V107.378ZM836.627 107.378H806.57V77.3207H836.627V107.378ZM806.194 107.378H776.137V77.3207H806.194V107.378ZM775.761 107.378H745.704V77.3207H775.761V107.378ZM745.329 107.378H715.271V77.3207H745.329V107.378ZM714.896 107.378H684.839V77.3207H714.896V107.378ZM684.463 107.378H654.406V77.3207H684.463V107.378ZM654.03 107.378H623.973V77.3207H654.03V107.378ZM623.597 107.378H593.54V77.3207H623.597V107.378ZM593.164 107.378H563.107V77.3207H593.164V107.378ZM562.731 107.378H532.674V77.3207H562.731V107.378ZM532.299 107.378H502.241V77.3207H532.299V107.378ZM501.866 107.378H471.809V77.3207H501.866V107.378ZM471.433 107.378H441.376V77.3207H471.433V107.378ZM441 107.378H410.943V77.3207H441V107.378ZM410.567 107.378H380.51V77.3207H410.567V107.378ZM380.134 107.378H350.077V77.3207H380.134V107.378ZM349.701 107.378H319.644V77.3207H349.701V107.378ZM319.269 107.378H289.211V77.3207H319.269V107.378ZM288.836 107.378H258.779V77.3207H288.836V107.378ZM258.403 107.378H228.346V77.3207H258.403V107.378ZM227.97 107.378H197.913V77.3207H227.97V107.378ZM197.537 107.378H167.48V77.3207H197.537V107.378ZM167.104 107.378H137.047V77.3207H167.104V107.378ZM136.671 107.378H106.614V77.3207H136.671V107.378ZM106.239 107.378H76.1814V77.3207H106.239V107.378ZM75.8057 107.378H45.7486V77.3207H75.8057V107.378ZM45.3728 107.378H15.3157V77.3207H45.3728V107.378ZM14.94 107.378H-15.1171V77.3207H14.94V107.378ZM-15.4929 107.378H-45.55V77.3207H-15.4929V107.378ZM-45.9257 107.378H-75.9829V77.3207H-45.9257V107.378ZM958.359 76.945H928.301V46.8878H958.359V76.945ZM927.926 76.945H897.869V46.8878H927.926V76.945ZM897.493 76.945H867.436V46.8878H897.493V76.945ZM867.06 76.945H837.003V46.8878H867.06V76.945ZM836.627 76.945H806.57V46.8878H836.627V76.945ZM806.194 76.945H776.137V46.8878H806.194V76.945ZM775.761 76.945H745.704V46.8878H775.761V76.945ZM745.329 76.945H715.271V46.8878H745.329V76.945ZM714.896 76.945H684.839V46.8878H714.896V76.945ZM684.463 76.945H654.406V46.8878H684.463V76.945ZM654.03 76.945H623.973V46.8878H654.03V76.945ZM623.597 76.945H593.54V46.8878H623.597V76.945ZM593.164 76.945H563.107V46.8878H593.164V76.945ZM562.731 76.945H532.674V46.8878H562.731V76.945ZM532.299 76.945H502.241V46.8878H532.299V76.945ZM501.866 76.945H471.809V46.8878H501.866V76.945ZM471.433 76.945H441.376V46.8878H471.433V76.945ZM441 76.945H410.943V46.8878H441V76.945ZM410.567 76.945H380.51V46.8878H410.567V76.945ZM380.134 76.945H350.077V46.8878H380.134V76.945ZM349.701 76.945H319.644V46.8878H349.701V76.945ZM319.269 76.945H289.211V46.8878H319.269V76.945ZM288.836 76.945H258.779V46.8878H288.836V76.945ZM258.403 76.945H228.346V46.8878H258.403V76.945ZM227.97 76.945H197.913V46.8878H227.97V76.945ZM197.537 76.945H167.48V46.8878H197.537V76.945ZM167.104 76.945H137.047V46.8878H167.104V76.945ZM136.671 76.945H106.614V46.8878H136.671V76.945ZM106.239 76.945H76.1814V46.8878H106.239V76.945ZM75.8057 76.945H45.7486V46.8878H75.8057V76.945ZM45.3728 76.945H15.3157V46.8878H45.3728V76.945ZM14.94 76.945H-15.1171V46.8878H14.94V76.945ZM-15.4929 76.945H-45.55V46.8878H-15.4929V76.945ZM-45.9257 76.945H-75.9829V46.8878H-45.9257V76.945ZM958.359 46.5121H928.301V16.455H958.359V46.5121ZM927.926 46.5121H897.869V16.455H927.926V46.5121ZM897.493 46.5121H867.436V16.455H897.493V46.5121ZM867.06 46.5121H837.003V16.455H867.06V46.5121ZM836.627 46.5121H806.57V16.455H836.627V46.5121ZM806.194 46.5121H776.137V16.455H806.194V46.5121ZM775.761 46.5121H745.704V16.455H775.761V46.5121ZM745.329 46.5121H715.271V16.455H745.329V46.5121ZM714.896 46.5121H684.839V16.455H714.896V46.5121ZM684.463 46.5121H654.406V16.455H684.463V46.5121ZM654.03 46.5121H623.973V16.455H654.03V46.5121ZM623.597 46.5121H593.54V16.455H623.597V46.5121ZM593.164 46.5121H563.107V16.455H593.164V46.5121ZM562.731 46.5121H532.674V16.455H562.731V46.5121ZM532.299 46.5121H502.241V16.455H532.299V46.5121ZM501.866 46.5121H471.809V16.455H501.866V46.5121ZM471.433 46.5121H441.376V16.455H471.433V46.5121ZM441 46.5121H410.943V16.455H441V46.5121ZM410.567 46.5121H380.51V16.455H410.567V46.5121ZM380.134 46.5121H350.077V16.455H380.134V46.5121ZM349.701 46.5121H319.644V16.455H349.701V46.5121ZM319.269 46.5121H289.211V16.455H319.269V46.5121ZM288.836 46.5121H258.779V16.455H288.836V46.5121ZM258.403 46.5121H228.346V16.455H258.403V46.5121ZM227.97 46.5121H197.913V16.455H227.97V46.5121ZM197.537 46.5121H167.48V16.455H197.537V46.5121ZM167.104 46.5121H137.047V16.455H167.104V46.5121ZM136.671 46.5121H106.614V16.455H136.671V46.5121ZM106.239 46.5121H76.1814V16.455H106.239V46.5121ZM75.8057 46.5121H45.7486V16.455H75.8057V46.5121ZM45.3728 46.5121H15.3157V16.455H45.3728V46.5121ZM14.94 46.5121H-15.1171V16.455H14.94V46.5121ZM-15.4929 46.5121H-45.55V16.455H-15.4929V46.5121ZM-45.9257 46.5121H-75.9829V16.455H-45.9257V46.5121ZM958.359 16.0793H928.301V-13.9779H958.359V16.0793ZM927.926 16.0793H897.869V-13.9779H927.926V16.0793ZM897.493 16.0793H867.436V-13.9779H897.493V16.0793ZM867.06 16.0793H837.003V-13.9779H867.06V16.0793ZM836.627 16.0793H806.57V-13.9779H836.627V16.0793ZM806.194 16.0793H776.137V-13.9779H806.194V16.0793ZM775.761 16.0793H745.704V-13.9779H775.761V16.0793ZM745.329 16.0793H715.271V-13.9779H745.329V16.0793ZM714.896 16.0793H684.839V-13.9779H714.896V16.0793ZM684.463 16.0793H654.406V-13.9779H684.463V16.0793ZM654.03 16.0793H623.973V-13.9779H654.03V16.0793ZM623.597 16.0793H593.54V-13.9779H623.597V16.0793ZM593.164 16.0793H563.107V-13.9779H593.164V16.0793ZM562.731 16.0793H532.674V-13.9779H562.731V16.0793ZM532.299 16.0793H502.241V-13.9779H532.299V16.0793ZM501.866 16.0793H471.809V-13.9779H501.866V16.0793ZM471.433 16.0793H441.376V-13.9779H471.433V16.0793ZM441 16.0793H410.943V-13.9779H441V16.0793ZM410.567 16.0793H380.51V-13.9779H410.567V16.0793ZM380.134 16.0793H350.077V-13.9779H380.134V16.0793ZM349.701 16.0793H319.644V-13.9779H349.701V16.0793ZM319.269 16.0793H289.211V-13.9779H319.269V16.0793ZM288.836 16.0793H258.779V-13.9779H288.836V16.0793ZM258.403 16.0793H228.346V-13.9779H258.403V16.0793ZM227.97 16.0793H197.913V-13.9779H227.97V16.0793ZM197.537 16.0793H167.48V-13.9779H197.537V16.0793ZM167.104 16.0793H137.047V-13.9779H167.104V16.0793ZM136.671 16.0793H106.614V-13.9779H136.671V16.0793ZM106.239 16.0793H76.1814V-13.9779H106.239V16.0793ZM75.8057 16.0793H45.7486V-13.9779H75.8057V16.0793ZM45.3728 16.0793H15.3157V-13.9779H45.3728V16.0793ZM14.94 16.0793H-15.1171V-13.9779H14.94V16.0793ZM-15.4929 16.0793H-45.55V-13.9779H-15.4929V16.0793ZM-45.9257 16.0793H-75.9829V-13.9779H-45.9257V16.0793Z" fill="url(#paint0_radial_2316_21223)"/>
<path d="M496.606 379.207V379.583H385.394V379.207H496.606ZM499.236 376.577V264.614C499.236 263.162 498.058 261.984 496.606 261.984H385.394C383.942 261.984 382.764 263.162 382.764 264.614V376.577C382.764 378.03 383.942 379.207 385.394 379.207V379.583L385.239 379.579C383.651 379.499 382.389 378.185 382.389 376.577V264.614C382.389 262.954 383.734 261.609 385.394 261.609H496.606C498.266 261.609 499.611 262.954 499.611 264.614V376.577C499.611 378.237 498.266 379.583 496.606 379.583V379.207C498.058 379.207 499.236 378.03 499.236 376.577Z" fill="url(#paint1_radial_2316_21223)"/>
<path d="M447.732 359.419L441.093 366.057L434.455 359.419L441.093 352.78L447.732 359.419Z" fill="url(#paint2_radial_2316_21223)"/>
<path d="M435.319 352.149L426.645 355.742L423.052 347.068L431.726 343.475L435.319 352.149Z" fill="url(#paint3_radial_2316_21223)"/>
<path d="M459.028 347.038L455.435 355.712L446.761 352.119L450.354 343.445L459.028 347.038Z" fill="url(#paint4_radial_2316_21223)"/>
<path d="M418.575 352.918H409.186V343.529H418.575V352.918Z" fill="url(#paint5_radial_2316_21223)"/>
<path d="M472.947 352.787H463.559V343.399H472.947V352.787Z" fill="url(#paint6_radial_2316_21223)"/>
<path d="M447.732 340.69L441.094 347.328L434.455 340.69L441.094 334.051L447.732 340.69Z" fill="url(#paint7_radial_2316_21223)"/>
<path d="M431.815 339.674H422.426V330.286H431.815V339.674Z" fill="url(#paint8_radial_2316_21223)"/>
<path d="M459.704 339.544H450.315V330.156H459.704V339.544Z" fill="url(#paint9_radial_2316_21223)"/>
<path d="M418.527 330.326L414.934 339L406.26 335.407L409.853 326.734L418.527 330.326Z" fill="url(#paint10_radial_2316_21223)"/>
<path d="M475.772 335.325L467.098 338.918L463.505 330.245L472.179 326.651L475.772 335.325Z" fill="url(#paint11_radial_2316_21223)"/>
<path d="M427.919 321.06L421.281 327.699L414.642 321.06L421.281 314.422L427.919 321.06Z" fill="url(#paint12_radial_2316_21223)"/>
<path d="M409.192 321.06L402.553 327.699L395.914 321.06L402.553 314.422L409.192 321.06Z" fill="url(#paint13_radial_2316_21223)"/>
<path d="M486.086 320.88L479.447 327.519L472.809 320.88L479.447 314.242L486.086 320.88Z" fill="url(#paint14_radial_2316_21223)"/>
<path d="M467.357 320.878L460.718 327.516L454.08 320.878L460.718 314.239L467.357 320.878Z" fill="url(#paint15_radial_2316_21223)"/>
<path d="M418.495 311.696L409.821 315.289L406.228 306.615L414.902 303.022L418.495 311.696Z" fill="url(#paint16_radial_2316_21223)"/>
<path d="M475.74 306.532L472.148 315.205L463.474 311.613L467.067 302.939L475.74 306.532Z" fill="url(#paint17_radial_2316_21223)"/>
<path d="M431.685 311.784H422.296V302.396H431.685V311.784Z" fill="url(#paint18_radial_2316_21223)"/>
<path d="M459.574 311.654H450.185V302.266H459.574V311.654Z" fill="url(#paint19_radial_2316_21223)"/>
<path d="M447.546 301.252L440.907 307.891L434.268 301.252L440.907 294.614L447.546 301.252Z" fill="url(#paint20_radial_2316_21223)"/>
<path d="M418.441 298.541H409.053V289.152H418.441V298.541Z" fill="url(#paint21_radial_2316_21223)"/>
<path d="M435.238 289.822L431.645 298.496L422.972 294.903L426.564 286.229L435.238 289.822Z" fill="url(#paint22_radial_2316_21223)"/>
<path d="M458.948 294.871L450.274 298.464L446.682 289.79L455.356 286.198L458.948 294.871Z" fill="url(#paint23_radial_2316_21223)"/>
<path d="M472.817 298.414H463.429V289.026H472.817V298.414Z" fill="url(#paint24_radial_2316_21223)"/>
<path d="M447.548 282.524L440.91 289.163L434.271 282.524L440.91 275.886L447.548 282.524Z" fill="url(#paint25_radial_2316_21223)"/>
</g>
<defs>
<radialGradient id="paint0_radial_2316_21223" cx="0" cy="0" r="1" gradientUnits="userSpaceOnUse" gradientTransform="translate(441 321.723) rotate(90) scale(297.277 447.461)">
<stop stop-color="#D9D9D9"/>
<stop offset="1" stop-color="#FAFAFA"/>
</radialGradient>
<radialGradient id="paint1_radial_2316_21223" cx="0" cy="0" r="1" gradientUnits="userSpaceOnUse" gradientTransform="translate(441 321.723) rotate(90) scale(297.277 447.461)">
<stop stop-color="#D9D9D9"/>
<stop offset="1" stop-color="#FAFAFA"/>
</radialGradient>
<radialGradient id="paint2_radial_2316_21223" cx="0" cy="0" r="1" gradientUnits="userSpaceOnUse" gradientTransform="translate(441 321.723) rotate(90) scale(297.277 447.461)">
<stop stop-color="#D9D9D9"/>
<stop offset="1" stop-color="#FAFAFA"/>
</radialGradient>
<radialGradient id="paint3_radial_2316_21223" cx="0" cy="0" r="1" gradientUnits="userSpaceOnUse" gradientTransform="translate(441 321.723) rotate(90) scale(297.277 447.461)">
<stop stop-color="#D9D9D9"/>
<stop offset="1" stop-color="#FAFAFA"/>
</radialGradient>
<radialGradient id="paint4_radial_2316_21223" cx="0" cy="0" r="1" gradientUnits="userSpaceOnUse" gradientTransform="translate(441 321.723) rotate(90) scale(297.277 447.461)">
<stop stop-color="#D9D9D9"/>
<stop offset="1" stop-color="#FAFAFA"/>
</radialGradient>
<radialGradient id="paint5_radial_2316_21223" cx="0" cy="0" r="1" gradientUnits="userSpaceOnUse" gradientTransform="translate(441 321.723) rotate(90) scale(297.277 447.461)">
<stop stop-color="#D9D9D9"/>
<stop offset="1" stop-color="#FAFAFA"/>
</radialGradient>
<radialGradient id="paint6_radial_2316_21223" cx="0" cy="0" r="1" gradientUnits="userSpaceOnUse" gradientTransform="translate(441 321.723) rotate(90) scale(297.277 447.461)">
<stop stop-color="#D9D9D9"/>
<stop offset="1" stop-color="#FAFAFA"/>
</radialGradient>
<radialGradient id="paint7_radial_2316_21223" cx="0" cy="0" r="1" gradientUnits="userSpaceOnUse" gradientTransform="translate(441 321.723) rotate(90) scale(297.277 447.461)">
<stop stop-color="#D9D9D9"/>
<stop offset="1" stop-color="#FAFAFA"/>
</radialGradient>
<radialGradient id="paint8_radial_2316_21223" cx="0" cy="0" r="1" gradientUnits="userSpaceOnUse" gradientTransform="translate(441 321.723) rotate(90) scale(297.277 447.461)">
<stop stop-color="#D9D9D9"/>
<stop offset="1" stop-color="#FAFAFA"/>
</radialGradient>
<radialGradient id="paint9_radial_2316_21223" cx="0" cy="0" r="1" gradientUnits="userSpaceOnUse" gradientTransform="translate(441 321.723) rotate(90) scale(297.277 447.461)">
<stop stop-color="#D9D9D9"/>
<stop offset="1" stop-color="#FAFAFA"/>
</radialGradient>
<radialGradient id="paint10_radial_2316_21223" cx="0" cy="0" r="1" gradientUnits="userSpaceOnUse" gradientTransform="translate(441 321.723) rotate(90) scale(297.277 447.461)">
<stop stop-color="#D9D9D9"/>
<stop offset="1" stop-color="#FAFAFA"/>
</radialGradient>
<radialGradient id="paint11_radial_2316_21223" cx="0" cy="0" r="1" gradientUnits="userSpaceOnUse" gradientTransform="translate(441 321.723) rotate(90) scale(297.277 447.461)">
<stop stop-color="#D9D9D9"/>
<stop offset="1" stop-color="#FAFAFA"/>
</radialGradient>
<radialGradient id="paint12_radial_2316_21223" cx="0" cy="0" r="1" gradientUnits="userSpaceOnUse" gradientTransform="translate(441 321.723) rotate(90) scale(297.277 447.461)">
<stop stop-color="#D9D9D9"/>
<stop offset="1" stop-color="#FAFAFA"/>
</radialGradient>
<radialGradient id="paint13_radial_2316_21223" cx="0" cy="0" r="1" gradientUnits="userSpaceOnUse" gradientTransform="translate(441 321.723) rotate(90) scale(297.277 447.461)">
<stop stop-color="#D9D9D9"/>
<stop offset="1" stop-color="#FAFAFA"/>
</radialGradient>
<radialGradient id="paint14_radial_2316_21223" cx="0" cy="0" r="1" gradientUnits="userSpaceOnUse" gradientTransform="translate(441 321.723) rotate(90) scale(297.277 447.461)">
<stop stop-color="#D9D9D9"/>
<stop offset="1" stop-color="#FAFAFA"/>
</radialGradient>
<radialGradient id="paint15_radial_2316_21223" cx="0" cy="0" r="1" gradientUnits="userSpaceOnUse" gradientTransform="translate(441 321.723) rotate(90) scale(297.277 447.461)">
<stop stop-color="#D9D9D9"/>
<stop offset="1" stop-color="#FAFAFA"/>
</radialGradient>
<radialGradient id="paint16_radial_2316_21223" cx="0" cy="0" r="1" gradientUnits="userSpaceOnUse" gradientTransform="translate(441 321.723) rotate(90) scale(297.277 447.461)">
<stop stop-color="#D9D9D9"/>
<stop offset="1" stop-color="#FAFAFA"/>
</radialGradient>
<radialGradient id="paint17_radial_2316_21223" cx="0" cy="0" r="1" gradientUnits="userSpaceOnUse" gradientTransform="translate(441 321.723) rotate(90) scale(297.277 447.461)">
<stop stop-color="#D9D9D9"/>
<stop offset="1" stop-color="#FAFAFA"/>
</radialGradient>
<radialGradient id="paint18_radial_2316_21223" cx="0" cy="0" r="1" gradientUnits="userSpaceOnUse" gradientTransform="translate(441 321.723) rotate(90) scale(297.277 447.461)">
<stop stop-color="#D9D9D9"/>
<stop offset="1" stop-color="#FAFAFA"/>
</radialGradient>
<radialGradient id="paint19_radial_2316_21223" cx="0" cy="0" r="1" gradientUnits="userSpaceOnUse" gradientTransform="translate(441 321.723) rotate(90) scale(297.277 447.461)">
<stop stop-color="#D9D9D9"/>
<stop offset="1" stop-color="#FAFAFA"/>
</radialGradient>
<radialGradient id="paint20_radial_2316_21223" cx="0" cy="0" r="1" gradientUnits="userSpaceOnUse" gradientTransform="translate(441 321.723) rotate(90) scale(297.277 447.461)">
<stop stop-color="#D9D9D9"/>
<stop offset="1" stop-color="#FAFAFA"/>
</radialGradient>
<radialGradient id="paint21_radial_2316_21223" cx="0" cy="0" r="1" gradientUnits="userSpaceOnUse" gradientTransform="translate(441 321.723) rotate(90) scale(297.277 447.461)">
<stop stop-color="#D9D9D9"/>
<stop offset="1" stop-color="#FAFAFA"/>
</radialGradient>
<radialGradient id="paint22_radial_2316_21223" cx="0" cy="0" r="1" gradientUnits="userSpaceOnUse" gradientTransform="translate(441 321.723) rotate(90) scale(297.277 447.461)">
<stop stop-color="#D9D9D9"/>
<stop offset="1" stop-color="#FAFAFA"/>
</radialGradient>
<radialGradient id="paint23_radial_2316_21223" cx="0" cy="0" r="1" gradientUnits="userSpaceOnUse" gradientTransform="translate(441 321.723) rotate(90) scale(297.277 447.461)">
<stop stop-color="#D9D9D9"/>
<stop offset="1" stop-color="#FAFAFA"/>
</radialGradient>
<radialGradient id="paint24_radial_2316_21223" cx="0" cy="0" r="1" gradientUnits="userSpaceOnUse" gradientTransform="translate(441 321.723) rotate(90) scale(297.277 447.461)">
<stop stop-color="#D9D9D9"/>
<stop offset="1" stop-color="#FAFAFA"/>
</radialGradient>
<radialGradient id="paint25_radial_2316_21223" cx="0" cy="0" r="1" gradientUnits="userSpaceOnUse" gradientTransform="translate(441 321.723) rotate(90) scale(297.277 447.461)">
<stop stop-color="#D9D9D9"/>
<stop offset="1" stop-color="#FAFAFA"/>
</radialGradient>
<clipPath id="clip0_2316_21223">
<rect width="883" height="632" fill="white" transform="matrix(-1 0 0 1 883 0)"/>
</clipPath>
</defs>
</svg>
