<svg xmlns="http://www.w3.org/2000/svg" width="24" height="24" viewBox="0 0 24 24" fill="none"><g id="Group 626"><path id="Vector" d="M12 24C18.6272 24 24 18.6274 24 12.0009C24.002 5.37283 18.629 0 12 0C5.37283 0 0 5.3726 0 11.9991C0 18.6272 5.37283 24 12 24Z" fill="#499557"></path><path id="Vector_2" fill-rule="evenodd" clip-rule="evenodd" d="M14.5561 2.91739C13.7437 3.78275 12.3837 6.0589 11.8638 7.9189C11.636 7.76788 11.377 7.36192 11.5477 6.57286C11.5518 6.56109 11.5636 6.55135 11.5754 6.5552L11.8912 6.58282C11.9148 6.58463 11.9265 6.5552 11.9089 6.53958L11.6263 6.26878C11.6204 6.2629 11.6163 6.25701 11.6163 6.25112C11.6281 5.96063 11.6831 5.38577 11.8108 5.23678C11.8185 5.22682 11.8323 5.22682 11.8421 5.23271L12.2562 5.50939C12.2777 5.52524 12.3053 5.49761 12.2895 5.4761L11.9757 5.01105C11.9677 5.00516 11.9677 4.99746 11.9716 4.9875C12.1541 4.61663 12.5308 3.8826 12.6841 3.7395C12.6939 3.72977 12.7056 3.73361 12.7154 3.7395L13.0138 3.98675C13.0353 4.0026 13.0627 3.9829 13.0529 3.95935L12.839 3.41958C12.8372 3.41369 12.8372 3.40395 12.8428 3.39807C13.1021 3.02131 13.7143 2.27165 14.1773 2.17769C14.1873 2.17361 14.1991 2.1795 14.2049 2.18924L14.3698 2.47769C14.3815 2.50124 14.4187 2.48946 14.4148 2.46207L14.3718 2.00878C14.3718 2.00086 14.3736 1.99112 14.3834 1.98524C14.6424 1.84984 15.3529 1.61233 16.2574 1.65558C16.2751 1.65173 16.285 1.66735 16.2809 1.68297L15.6728 3.53731C15.6708 3.54909 15.659 3.55497 15.6492 3.55497L15.196 3.51784C15.1683 3.51377 15.1586 3.55112 15.1801 3.5629L15.5786 3.80629C15.5922 3.81218 15.5942 3.8278 15.5883 3.83958L15.1978 4.50682C15.196 4.51271 15.186 4.5186 15.1801 4.5186L14.6326 4.5675C14.6052 4.57135 14.6032 4.60486 14.6268 4.61663L15.0252 4.78146C15.0409 4.78735 15.0468 4.80297 15.037 4.81882L14.6288 5.5309C14.6268 5.53678 14.617 5.54267 14.6111 5.54267L13.9262 5.6038C13.921 5.60408 13.916 5.60605 13.9121 5.60943C13.9081 5.61281 13.9053 5.6174 13.9042 5.6225C13.9031 5.6276 13.9037 5.63292 13.9059 5.63764C13.9082 5.64236 13.9119 5.64623 13.9165 5.64863L14.2756 5.8429C14.2874 5.84878 14.2912 5.86463 14.2874 5.87641C14.1461 6.1549 13.8262 6.73769 13.5554 6.7986L13.1139 6.91429C13.0903 6.92018 13.0903 6.95754 13.1139 6.96343L13.4788 7.05558C13.4924 7.05761 13.5024 7.07731 13.4965 7.08909C13.2846 7.5521 12.8489 8.13105 12.1326 8.00539C12.5741 6.1669 13.5533 4.41241 14.6797 2.98984L14.7166 2.94297C14.7128 2.90765 14.7071 2.86826 14.6229 2.86622C14.6131 2.86654 14.6035 2.86922 14.595 2.87403C14.5864 2.87884 14.5791 2.88563 14.5738 2.89384L14.5561 2.91739ZM15.0359 21.2054C15.0359 21.0201 15.1096 20.8425 15.2405 20.7115C15.3715 20.5805 15.5491 20.5068 15.7344 20.5067C15.9196 20.507 16.0971 20.5808 16.228 20.7117C16.359 20.8427 16.4327 21.0202 16.4331 21.2054C16.4274 21.3869 16.3514 21.5591 16.221 21.6855C16.0906 21.8119 15.9161 21.8825 15.7345 21.8825C15.5529 21.8825 15.3784 21.8119 15.248 21.6855C15.1176 21.5591 15.0415 21.3869 15.0359 21.2054ZM13.7935 16.853H10.1197V17.5535H13.7933L13.7935 16.853ZM5.59959 16.0053V8.48222C5.59959 8.29769 5.74902 8.14848 5.93332 8.14848H18.0687C18.2532 8.14848 18.4022 8.29792 18.4022 8.48222V16.0053C18.4022 16.1898 18.2532 16.3388 18.0687 16.3388H5.93332C5.88952 16.3389 5.84614 16.3302 5.80566 16.3135C5.76518 16.2967 5.7284 16.2722 5.69743 16.2412C5.66645 16.2102 5.64189 16.1735 5.62514 16.133C5.60839 16.0925 5.59956 16.0491 5.59959 16.0053ZM7.53272 12.2907C7.53263 12.4325 7.56049 12.5729 7.6147 12.7039C7.6689 12.8349 7.7484 12.9539 7.84865 13.0541C7.94889 13.1544 8.06791 13.2339 8.1989 13.2881C8.32988 13.3423 8.47028 13.3702 8.61204 13.3701C8.89824 13.3699 9.17266 13.2561 9.37504 13.0537C9.57741 12.8514 9.69118 12.5769 9.69136 12.2907C9.69142 12.149 9.66354 12.0086 9.60932 11.8777C9.5551 11.7467 9.47559 11.6277 9.37535 11.5275C9.27512 11.4273 9.15611 11.3478 9.02513 11.2936C8.89416 11.2394 8.75378 11.2116 8.61204 11.2117C8.47029 11.2116 8.32992 11.2394 8.19895 11.2936C8.06797 11.3478 7.94896 11.4273 7.84873 11.5275C7.74849 11.6277 7.66898 11.7467 7.61476 11.8777C7.56054 12.0086 7.53266 12.149 7.53272 12.2907ZM14.3127 12.2907C14.3126 12.4325 14.3405 12.5729 14.3947 12.7039C14.4489 12.8349 14.5284 12.9539 14.6286 13.0541C14.7289 13.1544 14.8479 13.2339 14.9789 13.2881C15.1099 13.3423 15.2503 13.3702 15.392 13.3701C15.6782 13.3699 15.9527 13.2561 16.155 13.0537C16.3574 12.8514 16.4712 12.5769 16.4714 12.2907C16.4714 12.149 16.4435 12.0086 16.3893 11.8777C16.3351 11.7467 16.2556 11.6277 16.1554 11.5275C16.0551 11.4273 15.9361 11.3478 15.8051 11.2936C15.6742 11.2394 15.5338 11.2116 15.392 11.2117C15.2503 11.2116 15.1099 11.2394 14.9789 11.2936C14.848 11.3478 14.729 11.4273 14.6287 11.5275C14.5285 11.6277 14.449 11.7467 14.3948 11.8777C14.3405 12.0086 14.3127 12.149 14.3127 12.2907ZM4.13672 21.06C4.55256 21.422 4.99318 21.7544 5.45536 22.0549V19.975C5.07679 19.975 4.48404 20.3183 4.13672 21.06ZM12.0022 23.9996C9.88486 24.0014 7.80509 23.4407 5.97566 22.3748V20.5069H12.9617V23.9584C12.6425 23.985 12.3224 23.9988 12.0022 23.9996ZM7.46502 21.0974H6.99C6.85279 21.0974 6.74094 21.2072 6.74094 21.3464C6.74094 21.4839 6.85279 21.5957 6.99 21.5957H11.9471C12.0846 21.5957 12.1962 21.4839 12.1962 21.3467C12.1962 21.2092 12.0846 21.0976 11.9471 21.0976L7.46502 21.0974ZM17.6931 18.0775H6.31121C6.12668 18.0775 5.9777 18.2269 5.9777 18.4112V19.9868H13.4818V23.9054C15.0849 23.7088 16.6312 23.188 18.0266 22.3748V18.4112C18.0266 18.2267 17.8776 18.0775 17.6931 18.0775ZM15.7346 22.4199C15.412 22.4199 15.1025 22.2917 14.8744 22.0636C14.6462 21.8354 14.5181 21.526 14.5181 21.2034C14.5181 20.8807 14.6462 20.5713 14.8744 20.3431C15.1025 20.115 15.412 19.9868 15.7346 19.9868C16.0572 19.9868 16.3667 20.115 16.5948 20.3431C16.823 20.5713 16.9511 20.8807 16.9511 21.2034C16.9511 21.526 16.823 21.8354 16.5948 22.0636C16.3667 22.2917 16.0572 22.4199 15.7346 22.4199ZM18.546 19.975C18.9248 19.975 19.5173 20.3183 19.8649 21.06C19.448 21.4214 19.0074 21.7544 18.546 22.0569V19.975Z" fill="white"></path></g></svg>