<svg xmlns="http://www.w3.org/2000/svg" width="24" height="24" viewBox="0 0 24 24" fill="none"><path d="M12.478 10.1301C11.4209 11.1282 10.7598 12.5432 10.7598 14.1141C10.7598 15.3481 11.1682 16.4851 11.8547 17.3991L9.77003 19.4962C9.58473 19.4288 9.38678 19.391 9.18039 19.391C8.72561 19.391 8.30027 19.5679 7.98016 19.888C7.66009 20.208 7.48319 20.6375 7.48319 21.0925C7.48319 21.5472 7.66005 21.9726 7.98016 22.2927C8.30027 22.6127 8.72983 22.7812 9.18039 22.7812C9.63522 22.7812 10.0606 22.6169 10.3848 22.2927C10.705 21.9726 10.8818 21.543 10.8818 21.0925C10.8818 20.9156 10.8566 20.7471 10.8018 20.5828L12.9076 18.4687C13.834 19.1804 14.9879 19.6016 16.2471 19.6016C19.2752 19.6016 21.722 17.1463 21.722 14.1183C21.722 11.3724 19.7132 9.0983 17.081 8.69822V6.10401C17.818 5.7923 18.2686 5.10164 18.2686 4.29722C18.2686 3.19805 17.3884 2.28 16.2892 2.28C15.1901 2.28 14.3225 3.19805 14.3225 4.29722C14.3225 5.10164 14.7731 5.7923 15.5101 6.10401V8.68134C14.87 8.7698 14.2636 8.96348 13.7119 9.25411C12.5496 8.37389 8.76353 5.64487 6.5988 3.9982C6.64933 3.81291 6.68308 3.61922 6.68308 3.41709C6.68308 2.2042 5.69341 1.21875 4.4763 1.21875C3.26341 1.21875 2.27795 2.2042 2.27795 3.41709C2.27795 4.6342 3.26341 5.61966 4.4763 5.61966C4.88903 5.61966 5.27224 5.4975 5.60495 5.29959L12.478 10.1301ZM16.2471 17.0201C14.6426 17.0201 13.3413 15.7187 13.3413 14.1141C13.3413 12.5096 14.6426 11.2083 16.2471 11.2083C17.8517 11.2083 19.153 12.5096 19.153 14.1141C19.153 15.7187 17.8517 17.0201 16.2471 17.0201Z" fill="#FF7A59"></path></svg>