<svg xmlns="http://www.w3.org/2000/svg" width="28" height="24" viewBox="0 0 28 24" fill="none"><g clip-path="url(#clip0_2040_2857)"><path d="M9.81322 3.02372C10.067 2.35764 10.4159 1.74443 10.9339 1.24751C13.0062 -0.771869 16.4317 -0.26438 17.8379 2.27306C18.8951 4.19729 20.0159 6.07923 21.1048 7.98231C22.9233 11.1435 24.763 14.3048 26.5603 17.4766C28.0722 20.1303 26.4335 23.4819 23.4308 23.9365C21.5912 24.2114 19.8678 23.3656 18.9163 21.7162C17.3198 18.9356 15.7128 16.155 14.1163 13.385C14.0846 13.3215 14.0423 13.2687 14 13.2158C13.8308 13.0783 13.7568 12.8775 13.6511 12.6977C12.9427 11.4502 12.2132 10.2132 11.5048 8.97615C11.0502 8.17262 10.5745 7.37967 10.1198 6.57615C9.70749 5.8572 9.51718 5.07482 9.53833 4.25015C9.57005 3.82725 9.62291 3.40434 9.81322 3.02372Z" fill="#3C8BD9"></path><path d="M9.8133 3.02393C9.71814 3.40454 9.63356 3.78516 9.61242 4.18692C9.5807 5.07503 9.80272 5.8997 10.2468 6.6715C11.4097 8.66974 12.5727 10.6785 13.7252 12.6874C13.8309 12.8671 13.9155 13.0468 14.0212 13.216C13.3868 14.3155 12.7525 15.4045 12.1075 16.5041C11.2195 18.0371 10.3314 19.5807 9.43268 21.1138C9.39039 21.1138 9.37982 21.0926 9.36925 21.0609C9.35867 20.9763 9.39039 20.9023 9.41154 20.8177C9.84502 19.2318 9.48554 17.8257 8.39656 16.6204C7.73048 15.8909 6.88466 15.4785 5.91198 15.3411C4.64325 15.1614 3.52255 15.4891 2.51814 16.2821C2.33841 16.4195 2.22211 16.6204 2.01065 16.7261C1.96836 16.7261 1.94722 16.705 1.93665 16.6733C2.44413 15.7957 2.94105 14.9182 3.44854 14.0407C5.54193 10.4037 7.63532 6.76666 9.73929 3.14023C9.76043 3.09793 9.79215 3.06622 9.8133 3.02393Z" fill="#FABC04"></path><path d="M1.97896 16.7045C2.17984 16.5248 2.37015 16.3345 2.5816 16.1653C5.15077 14.1354 9.0098 15.605 9.57015 18.8191C9.70759 19.5909 9.63359 20.331 9.40099 21.071C9.39041 21.1345 9.37984 21.1873 9.3587 21.2508C9.26354 21.4199 9.17896 21.5997 9.07323 21.7688C8.13226 23.323 6.74724 24.0948 4.92874 23.9785C2.84592 23.8305 1.20716 22.2658 0.921695 20.1935C0.78425 19.1891 0.985131 18.2481 1.50319 17.3812C1.60892 17.1909 1.73579 17.0217 1.85209 16.8314C1.90495 16.7891 1.88381 16.7045 1.97896 16.7045Z" fill="#34A852"></path><path d="M1.9789 16.7049C1.93661 16.7472 1.93661 16.8212 1.86261 16.8318C1.85203 16.7578 1.89432 16.7155 1.93661 16.6626L1.9789 16.7049Z" fill="#FABC04"></path><path d="M9.35858 21.251C9.31629 21.177 9.35858 21.1242 9.40087 21.0713C9.41144 21.0819 9.43259 21.103 9.44316 21.1136L9.35858 21.251Z" fill="#E1C025"></path></g><defs><clipPath id="clip0_2040_2857"><rect width="26.326" height="24" fill="white" transform="translate(0.837036)"></rect></clipPath></defs></svg>