<svg xmlns="http://www.w3.org/2000/svg" width="24" height="24" viewBox="0 0 24 24" fill="none"><g id="Frame" clip-path="url(#clip0_2075_3824)"><path id="Vector" fill-rule="evenodd" clip-rule="evenodd" d="M23.6909 5.75413C23.6909 2.71758 21.2308 0.255859 18.1937 0.255859H5.49727C2.46223 0.255859 0 2.71758 0 5.75413V14.486L0.438873 14.3513C1.4114 14.052 1.89972 13.9024 2.17788 13.5235C2.4581 13.1447 2.4581 12.6353 2.4581 11.6166V5.75413C2.4581 4.0754 3.82006 2.71447 5.49727 2.71447H18.1937C19.8688 2.71447 21.2287 4.07049 21.2328 5.74514V7.95934L23.6909 7.20365V5.75413ZM23.6909 9.77123L23.2541 9.90592C22.7699 10.0548 22.4073 10.1666 22.1291 10.2879C21.8468 10.4107 21.6532 10.5431 21.513 10.7337C21.4554 10.8118 21.408 10.8955 21.3709 10.9879C21.3297 11.0961 21.3008 11.2164 21.2802 11.3544C21.2328 11.6702 21.2328 12.0776 21.2328 12.6404V18.4941C21.2328 20.1728 19.8729 21.5338 18.1937 21.5338H5.49727C3.82212 21.5338 2.46429 20.1777 2.4581 18.5031V16.2979L0 17.0536V18.4941C0 21.5307 2.46223 23.9924 5.49727 23.9924H18.1937C21.2308 23.9924 23.6909 21.5307 23.6909 18.4941V9.77123ZM6.62432 15.85V11.2594C6.62432 10.0494 6.87774 9.79697 8.08723 9.79697H8.53846C9.75001 9.79697 10.0014 10.0494 10.0014 11.2594V15.85C10.0014 17.06 9.75001 17.3124 8.53846 17.3124H8.08723C6.87774 17.3124 6.62432 17.0598 6.62432 15.85ZM13.6895 8.40078C13.6895 7.19105 13.943 6.93839 15.1525 6.93839H15.6037C16.8152 6.93839 17.0666 7.19078 17.0666 8.40078V15.8498C17.0666 17.0598 16.8152 17.3122 15.6037 17.3122H15.1525C13.943 17.3122 13.6895 17.0598 13.6895 15.8498V8.40078Z" fill="#FF5B49"></path></g><defs><clipPath id="clip0_2075_3824"><rect width="24" height="24" fill="white"></rect></clipPath></defs></svg>