<svg xmlns="http://www.w3.org/2000/svg" width="24" height="24" viewBox="0 0 24 24" fill="none"><g id="translate 1" clip-path="url(#clip0_2075_3833)"><path id="Vector" d="M22.4561 4.5H12.3161L11.2607 8.58281L10.8818 11.266L12.9129 16.9306L13.239 23.8043H22.4562C23.3085 23.8043 23.9999 23.113 23.9999 22.2607V6.04369C23.9998 5.19131 23.3085 4.5 22.4561 4.5Z" fill="#E6E6E6"></path><path id="Vector_2" d="M17.2823 19.5L13.2388 23.8043L11.8066 19.5L12.391 17.9307L17.2823 19.5Z" fill="#3A5BBC"></path><path id="Vector_3" d="M22.0107 11.4455V10.4672H18.2933V9.09766H17.315V10.4672H13.9648V11.4455H19.3972C19.095 12.0817 18.5712 13.0962 17.8513 14.1659C17.1889 13.3386 16.7703 12.7629 16.7653 12.756L16.478 12.3602L15.6862 12.9346L15.9734 13.3305C15.9958 13.3613 16.4832 14.0319 17.2549 14.9852C16.7289 15.6296 15.7639 16.6776 15.2555 17.186L15.9471 17.8777C16.386 17.4389 17.2959 16.4614 17.889 15.753C18.6605 16.6696 19.4135 17.4965 20.1321 18.2152L20.478 18.561L21.1698 17.8694L20.8239 17.5235C20.0815 16.7811 19.2996 15.9174 18.4967 14.9548C19.5342 13.4631 20.2067 12.0506 20.4748 11.4455H22.0107Z" fill="#808080"></path><path id="Vector_4" d="M16.3748 16.7585L17.2826 19.4997H11.807H1.54369C0.690656 19.4997 0 18.8083 0 17.956V1.739C0 0.886625 0.690656 0.195312 1.54369 0.195312H10.8913L12.3163 4.49966L14.4541 10.9562L16.3748 16.7585Z" fill="#518EF8"></path><path id="Vector_5" d="M6.99816 13.4709C4.99332 13.4709 3.3623 11.8399 3.3623 9.83508C3.3623 7.83023 4.99332 6.19922 6.99816 6.19922C7.96866 6.19922 8.8817 6.57727 9.56902 7.26384L8.87766 7.956C8.37502 7.45397 7.70762 7.1775 6.99812 7.1775C5.53266 7.1775 4.34049 8.36967 4.34049 9.83512C4.34049 11.3006 5.53266 12.4928 6.99812 12.4928C8.29646 12.4928 9.3803 11.5568 9.6106 10.3243H6.99821V9.34598H10.6341V9.83512C10.634 11.8399 9.00301 13.4709 6.99816 13.4709Z" fill="white"></path></g><defs><clipPath id="clip0_2075_3833"><rect width="24" height="24" fill="white"></rect></clipPath></defs></svg>